SplineFontDB: 3.0
FontName: Garamond-Math
FullName: Garamond-Math
FamilyName: Garamond-Math
Weight: Regular
Copyright: 
Version: 0.1
ItalicAngle: 0
UnderlinePosition: -200
UnderlineWidth: 40
Ascent: 782
Descent: 218
InvalidEm: 0
sfntRevision: 0x0000199a
LayerCount: 2
Layer: 0 0 "Back" 1
Layer: 1 0 "Fore" 0
XUID: [1021 70 263418660 10072]
StyleMap: 0x0040
FSType: 8
OS2Version: 4
OS2_WeightWidthSlopeOnly: 0
OS2_UseTypoMetrics: 1
CreationTime: 1409921248
ModificationTime: 1524131226
PfmFamily: 17
TTFWeight: 400
TTFWidth: 5
LineGap: 200
VLineGap: 0
Panose: 2 0 5 3 0 0 0 0 0 0
OS2TypoAscent: 782
OS2TypoAOffset: 0
OS2TypoDescent: -218
OS2TypoDOffset: 0
OS2TypoLinegap: 200
OS2WinAscent: 2274
OS2WinAOffset: 0
OS2WinDescent: 1774
OS2WinDOffset: 0
HheadAscent: 782
HheadAOffset: 0
HheadDescent: -218
HheadDOffset: 0
OS2SubXSize: 650
OS2SubYSize: 699
OS2SubXOff: 0
OS2SubYOff: 140
OS2SupXSize: 650
OS2SupYSize: 699
OS2SupXOff: 0
OS2SupYOff: 479
OS2StrikeYSize: 49
OS2StrikeYPos: 258
OS2CapHeight: 662
OS2XHeight: 450
OS2Vendor: 'PfEd'
OS2CodePages: 60000193.0dd40000
OS2UnicodeRanges: a10000ef.4201f9ee.02000000.00000000
Lookup: 3 0 0 "'aalt' Access All Alternates in Mathematical Alphanumeric Symbols lookup 0" { "'aalt' Access All Alternates in Mathematical Alphanumeric Symbols lookup 0 subtable"  } ['aalt' ('math' <'dflt' > ) ]
Lookup: 1 0 0 "'dtls' Dotless Forms in Mathematical Alphanumeric Symbols lookup 1" { "'dtls' Dotless Forms in Mathematical Alphanumeric Symbols lookup 1 subtable"  } ['dtls' ('math' <'dflt' > ) ]
Lookup: 3 0 0 "'ssty' Script Style in Mathematical Alphanumeric Symbols lookup 2" { "'ssty' Script Style in Mathematical Alphanumeric Symbols lookup 2 subtable"  } ['ssty' ('math' <'dflt' > ) ]
Lookup: 258 0 0 "mkn" { "mkn-1"  } []
MarkAttachClasses: 1
DEI: 91125

StartChar: A
Encoding: 65 65 0
Width: 696
GlyphClass: 2
Flags: HW
TeX: 685 5
ItalicCorrection: 12
TopAccentHorizontal: 348
HStem: -5 36<-0.781837 69.554 195.831 267.136 392.537 473.166 618.145 699.076> 247 36<241.006 427.039>
LayerCount: 2
Fore
SplineSet
27 -5 m 0
 10 -5 -2 -1 -2 8 c 0
 -2 17 9 24 30 31 c 0
 65 41 95 59 116 107 c 0
 190 275 235 392 301 573 c 0
 310 597 314 615 316 634 c 1
 330 638 343 642 357 650 c 0
 370 658 375 678 380 684 c 0
 382 685 385 686 386 683 c 0
 389 677 390 668 393 660 c 0
 456 460 535 230 571 125 c 0
 597 50 630 37 670 29 c 0
 692 25 701 16 701 6 c 0
 701 -2 690 -5 674 -5 c 0
 644 -5 577 1 532 1 c 0
 493 1 447 0 421 -0 c 0
 405 0 392 4 392 12 c 0
 392 21 407 28 424 31 c 0
 469 38 487 54 486 78 c 0
 485 108 463 186 448 235 c 0
 445 245 439 247 422 247 c 2
 235 247 l 2
 228 247 223 243 218 229 c 0
 209 202 178 105 177 89 c 0
 176 58 201 39 236 30 c 0
 258 24 268 19 268 10 c 0
 268 2 257 -1 240 -1 c 0
 219 -1 183 1 146 1 c 0
 103 1 61 -5 27 -5 c 0
262 283 m 2
 413 283 l 2
 423 283 427 283 427 288 c 0
 427 290 426 294 425 298 c 2
 349 539 l 2
 345 550 343 557 340 557 c 0
 338 557 337 550 333 540 c 2
 243 298 l 2
 242 295 241 292 241 290 c 0
 241 283 250 283 262 283 c 2
EndSplineSet
EndChar

StartChar: B
Encoding: 66 66 1
Width: 594
GlyphClass: 2
Flags: HW
TeX: 657 5
TopAccentHorizontal: 283
HStem: -5 30<19.5875 94.8489> -4 43<228.948 371.978> 340 30<225.16 346.485> 625 32<28.8336 101.496 222.528 353.819>
VStem: 127 88<52.489 333.446 374.289 607.334> 419 94<429.415 574.301> 450 104<113.773 269.367>
LayerCount: 2
Fore
SplineSet
47 -5 m 0xba
 31 -5 19 -1 19 7 c 0
 19 16 29 21 51 25 c 0
 100 35 127 52 127 99 c 2
 127 549 l 2
 127 596 109 617 60 622 c 0
 38 624 29 633 29 642 c 0
 29 650 41 653 57 653 c 0
 112 653 123 651 165 651 c 0
 204 651 220 657 280 657 c 0
 436 657 513 617 513 508 c 0xbc
 513 464 494 427 477 411 c 0
 456 390 442 381 410 369 c 0
 405 367 404 361 410 359 c 0
 471 340 554 310 554 194 c 0
 554 84 491 51 450 30 c 0
 408 9 355 -4 279 -4 c 0x7a
 257 -4 220 0 179 0 c 0
 128 0 103 -5 47 -5 c 0xba
260 371 m 0
 295 371 337 376 376 399 c 0
 389 407 419 436 419 494 c 0
 419 554 395 625 279 625 c 0
 226 625 215 610 215 580 c 2
 215 407 l 2
 215 373 244 371 260 371 c 0
291 39 m 0x7a
 375 39 450 104 450 189 c 0
 450 265 406 301 380 316 c 0
 363 326 327 340 270 340 c 0
 230 340 215 319 215 305 c 2
 215 109 l 2
 215 55 242 39 291 39 c 0x7a
EndSplineSet
EndChar

StartChar: C
Encoding: 67 67 2
Width: 712
GlyphClass: 2
Flags: HW
TeX: 663 15
TopAccentHorizontal: 404
HStem: -15 34<338.986 513.099> 629 34<330.199 519.475>
VStem: 46 110<221.315 433.291> 616 35<475.316 538.684>
LayerCount: 2
Fore
SplineSet
409 -15 m 0
 219 -15 46 119 46 322 c 0
 46 514 224 663 435 663 c 0
 510 663 547 653 613 636 c 0
 632 631 639 621 641 603 c 0
 644 570 649 536 651 487 c 0
 652 471 622 463 616 486 c 0
 603 534 590 570 556 594 c 0
 524 617 475 629 418 629 c 0
 264 629 156 493 156 347 c 0
 156 182 261 19 425 19 c 0
 521 19 579 64 623 144 c 0
 632 162 658 163 658 142 c 0
 658 125 644 73 632 42 c 0
 623 23 620 22 600 15 c 0
 551 -5 477 -15 409 -15 c 0
EndSplineSet
EndChar

StartChar: D
Encoding: 68 68 3
Width: 758
GlyphClass: 2
Flags: HW
TeX: 659 7
TopAccentHorizontal: 318
HStem: -7 37<29.4135 112.75 214.736 454.284> 625 34<29.2602 101.148 234.44 437.543>
VStem: 127 90<64.1183 605.358> 619 105<223.676 443.502>
LayerCount: 2
Fore
SplineSet
374 -7 m 0
 347 -7 240 0 167 0 c 0
 127 0 109 -5 57 -5 c 0
 41 -5 29 -2 29 8 c 0
 29 19 39 21 61 25 c 0
 111 34 127 52 127 99 c 2
 127 549 l 2
 127 596 111 613 61 622 c 0
 39 626 29 629 29 640 c 0
 29 649 41 653 57 653 c 0
 107 653 125 651 172 651 c 0
 215 651 318 659 348 659 c 0
 610 659 724 518 724 341 c 0
 724 151 570 -7 374 -7 c 0
362 30 m 0
 515 30 619 151 619 323 c 0
 619 513 485 625 348 625 c 0
 264 625 217 624 217 567 c 2
 217 122 l 2
 217 43 288 30 362 30 c 0
EndSplineSet
EndChar

StartChar: E
Encoding: 69 69 4
Width: 569
GlyphClass: 2
Flags: HW
TeX: 653 5
ItalicCorrection: 14
TopAccentHorizontal: 288
HStem: -5 30<37.5875 111.847> 1 35<243.845 458.82> 319 34<231.828 390.611> 622 32<44.0505 118.951 242.994 439.954>
VStem: 141 90<45.911 318.122 352.4 605.444> 405 31<241.444 303.134 367.184 424.071> 484 26<521.444 569.399>
LayerCount: 2
Fore
SplineSet
65 -5 m 0xbe
 49 -5 37 -1 37 7 c 0
 37 16 47 21 69 25 c 0xbe
 118 35 141 52 141 99 c 2
 141 549 l 2
 141 596 125 613 75 622 c 0
 53 626 43 633 43 642 c 0
 43 650 55 654 71 654 c 0
 143 654 178 650 245 650 c 0
 292 650 347 651 392 651 c 1
 401 651 475 654 476 654 c 1
 483 654 494 652 495 644 c 0
 502 605 510 565 510 537 c 0
 510 525 502 521 496 521 c 0
 489 521 486 525 484 532 c 0
 476 556 471 579 461 589 c 0
 442 609 419 617 393 617 c 2
 269 617 l 2
 256 617 231 603 231 583 c 2
 231 375 l 2
 231 362 239 352 250 352 c 2
 347 352 l 2
 386 352 395 367 405 403 c 0
 409 418 416 424 424 424 c 0
 429 424 436 419 436 408 c 0
 436 397 433 353 433 336 c 0
 433 315 436 268 436 258 c 0
 436 248 434 240 426 240 c 0
 416 240 408 251 403 271 c 0
 395 303 383 319 357 319 c 2
 264 319 l 2
 242 319 231 315 231 293 c 2
 231 101 l 2
 231 51 251 36 295 36 c 2
 371 36 l 2
 412 36 439 41 460 54 c 0
 481 69 497 92 517 131 c 0
 521 139 526 145 533 144 c 0
 540 143 544 137 544 129 c 0
 544 109 525 41 513 12 c 0
 509 3 506 -5 498 -5 c 0
 383 -5 285 1 183 1 c 0x7e
 139 1 117 -5 65 -5 c 0xbe
EndSplineSet
EndChar

StartChar: F
Encoding: 70 70 5
Width: 519
GlyphClass: 2
Flags: HW
TeX: 660 5
ItalicCorrection: 18
TopAccentHorizontal: 258
HStem: -5 30<30.5767 104.66 247.64 319.023> 318 33<219.862 381.85> 616 34<39.9449 111.791 224.178 430.531>
VStem: 128 90<46.9369 316.018 350.607 603.574> 403 32<254.17 303.541> 467 25<523.802 569.071>
LayerCount: 2
Fore
SplineSet
58 -5 m 0
 42 -5 30 -1 30 7 c 0
 30 16 39 21 61 25 c 0
 111 34 128 52 128 100 c 2
 128 525 l 2
 128 583 117 613 67 622 c 0
 45 626 36 633 36 642 c 0
 36 650 47 653 64 653 c 0
 134 653 167 650 233 650 c 2
 365 650 l 2
 410 650 443 660 468 660 c 0
 475 660 486 658 487 650 c 0
 490 624 492 561 492 544 c 0
 492 532 489 523 483 523 c 0
 476 523 469 528 467 536 c 0
 460 559 452 578 442 589 c 0
 423 610 401 616 375 616 c 2
 255 616 l 2
 224 616 219 592 218 566 c 1
 217 546 217 496 217 468 c 1
 217 434 217 398 218 373 c 0
 218 361 220 351 230 351 c 0
 271 351 318 353 343 353 c 0
 373 353 394 372 404 396 c 0
 406 402 417 413 422 413 c 0
 427 413 436 406 435 396 c 0
 433 372 432 355 432 339 c 0
 432 318 433 300 435 271 c 0
 435 261 434 252 426 252 c 0
 413 252 405 268 403 276 c 0
 393 308 373 317 356 317 c 0
 339 317 322 318 306 318 c 0
 283 318 263 318 242 316 c 0
 229 315 218 308 218 291 c 0
 218 230 218 166 221 101 c 0
 223 58 237 34 288 25 c 0
 310 21 320 16 320 7 c 0
 320 -1 308 -5 292 -5 c 0
 239 -5 224 2 186 2 c 0
 138 2 111 -5 58 -5 c 0
EndSplineSet
EndChar

StartChar: G
Encoding: 71 71 6
Width: 731
GlyphClass: 2
Flags: HW
TeX: 663 14
ItalicCorrection: 15
TopAccentHorizontal: 389
HStem: -14 39<316.329 497.149> 257 34<431.411 527.822 643.701 695.304> 623 40<314.525 513.97>
VStem: 45 108<198.219 424.998> 553 73<72.0528 238.147> 596 39<488.895 551.917>
LayerCount: 2
Fore
SplineSet
392 -14 m 0xf8
 206 -14 45 125 45 311 c 0
 45 507 211 663 414 663 c 0
 461 663 585 644 614 630 c 0
 621 627 624 624 625 616 c 0
 630 576 635 534 635 508 c 0
 635 498 628 488 620 488 c 0
 606 488 600 503 596 515 c 0xf4
 587 536 580 551 563 571 c 0
 549 588 499 623 408 623 c 0
 255 623 153 482 153 326 c 0
 153 137 274 25 407 25 c 0
 478 25 510 49 522 61 c 0
 537 75 551 102 551 136 c 0
 551 153 553 179 553 197 c 0
 553 211 551 223 545 228 c 0
 528 249 472 257 452 257 c 0
 446 257 431 265 431 275 c 0
 431 285 446 292 452 292 c 0
 500 292 528 288 581 288 c 0
 616 288 638 292 675 292 c 0
 681 292 695 289 695 276 c 0
 695 267 681 259 675 258 c 0
 645 250 635 236 631 209 c 0
 627 180 626 159 626 134 c 2
 626 106 l 2
 626 99 630 95 633 89 c 0
 637 82 645 77 645 72 c 0
 645 66 645 54 631 52 c 0
 611 49 520 -14 392 -14 c 0xf8
EndSplineSet
EndChar

StartChar: H
Encoding: 72 72 7
Width: 814
GlyphClass: 2
Flags: HW
TeX: 653 5
ItalicCorrection: 8
TopAccentHorizontal: 404
HStem: -5 30<37.1631 108.547 256.16 327.07 498.13 567.726 703.846 773.837> 306 40<218.4 596.998> 622 32<43.5481 114.485 243.695 317.09 499.876 571.564 702.915 771.844>
VStem: 128 90<53.4286 306.4 346.4 603.353> 597 90<45.7593 306.4 346.4 603.709>
LayerCount: 2
Fore
SplineSet
65 -5 m 0
 49 -5 37 0 37 8 c 0
 37 17 46 21 68 25 c 0
 117 34 128 52 128 99 c 2
 128 551 l 2
 128 597 125 613 75 622 c 0
 53 626 43 631 43 640 c 0
 43 648 52 654 71 654 c 0
 124 654 139 650 179 650 c 0
 220 650 237 654 290 654 c 0
 309 654 317 648 317 640 c 0
 317 631 308 626 286 622 c 0
 235 612 218 590 218 551 c 2
 218 356 l 2
 218 348 227 346 233 346 c 2
 589 346 l 2
 595 346 597 350 597 359 c 2
 597 552 l 2
 597 588 581 612 531 622 c 0
 509 626 500 631 500 640 c 0
 500 648 510 654 527 654 c 0
 580 654 604 650 648 650 c 0
 684 650 691 654 744 654 c 0
 762 654 772 648 772 640 c 0
 772 631 763 626 741 622 c 0
 691 613 687 591 687 552 c 2
 687 100 l 2
 687 52 694 34 743 25 c 0
 765 21 774 17 774 8 c 0
 774 0 762 -5 746 -5 c 0
 694 -5 679 0 638 0 c 0
 596 0 578 -5 525 -5 c 0
 509 -5 498 1 498 9 c 0
 498 18 506 21 528 25 c 0
 571 34 597 55 597 97 c 2
 597 291 l 2
 597 298 597 306 591 306 c 2
 225 306 l 2
 219 306 218 303 218 295 c 2
 218 105 l 2
 218 63 250 34 297 25 c 0
 319 21 327 18 327 9 c 0
 327 1 316 -5 300 -5 c 0
 247 -5 224 0 179 0 c 0
 136 0 117 -5 65 -5 c 0
EndSplineSet
EndChar

StartChar: I
Encoding: 73 73 8
Width: 344
GlyphClass: 2
Flags: HW
TeX: 653 5
ItalicCorrection: 10
TopAccentHorizontal: 176
HStem: -5 30<19.5767 96.7605 249.385 325.412> 622 32<29.6638 104.815 241.547 317.99>
VStem: 127 90<46.9812 603.642>
LayerCount: 2
Fore
SplineSet
47 -5 m 0
 31 -5 19 -1 19 7 c 0
 19 16 28 21 50 25 c 0
 100 34 127 52 127 98 c 2
 127 550 l 2
 127 596 110 613 60 622 c 0
 38 626 29 633 29 642 c 0
 29 650 41 654 57 654 c 0
 110 654 132 650 177 650 c 0
 220 650 238 654 291 654 c 0
 307 654 319 650 319 642 c 0
 319 633 309 626 287 622 c 0
 236 612 217 596 217 550 c 2
 217 98 l 2
 217 52 244 35 294 25 c 0
 316 21 326 16 326 7 c 0
 326 -1 314 -5 298 -5 c 0
 245 -5 222 0 177 0 c 0
 128 0 100 -5 47 -5 c 0
EndSplineSet
EndChar

StartChar: J
Encoding: 74 74 9
Width: 350
GlyphClass: 2
Flags: HW
TeX: 653 200
ItalicCorrection: 9
TopAccentHorizontal: 178
HStem: -200 41<28.7242 99.4707> 622 32<34.4075 108.407 237.145 309.39>
VStem: 131 90<-46.2633 605.175>
LayerCount: 2
Fore
SplineSet
39 -200 m 0
 -32 -200 -69 -182 -69 -150 c 0
 -69 -126 -44 -101 -28 -101 c 0
 -11 -101 4 -108 18 -126 c 0
 36 -149 48 -159 65 -159 c 0
 111 -159 131 -100 131 0 c 2
 131 551 l 2
 131 597 113 613 65 622 c 0
 44 626 33 633 33 642 c 0
 33 650 45 654 61 654 c 0
 114 654 137 650 182 650 c 0
 219 650 230 654 283 654 c 0
 299 654 310 650 310 642 c 0
 310 633 301 626 279 622 c 0
 228 612 221 596 221 551 c 2
 221 52 l 2
 221 -28 176 -100 142 -141 c 0
 113 -176 80 -200 39 -200 c 0
EndSplineSet
EndChar

StartChar: K
Encoding: 75 75 10
Width: 694
GlyphClass: 2
Flags: HW
TeX: 655 5
ItalicCorrection: 29
TopAccentHorizontal: 360
HStem: -5 30<31.5994 106.119 251.441 318.835 411.808 464.091 621.458 700.64> 320 23<219.512 241.327> 622 32<31.8797 107.061 235.889 305.19 414.616 463.3 588.301 685.817>
VStem: 129 90<50.7407 319.79 343.209 605.228>
LayerCount: 2
Fore
SplineSet
60 -5 m 0
 43 -5 31 -1 31 7 c 0
 31 16 41 21 63 25 c 0
 113 34 129 52 129 101 c 2
 129 551 l 2
 129 597 113 613 63 622 c 0
 41 626 31 633 31 642 c 0
 31 650 43 654 59 654 c 0
 112 654 131 651 175 651 c 0
 213 651 225 654 278 654 c 0
 294 654 306 650 306 642 c 0
 306 633 297 626 275 622 c 0
 224 612 219 590 219 551 c 2
 219 362 l 2
 219 356 220 343 225 343 c 0
 232 343 245 353 252 361 c 2
 451 565 l 2
 461 575 466 586 466 595 c 0
 466 606 458 616 444 619 c 0
 422 625 414 631 414 640 c 0
 414 648 426 651 442 651 c 2
 498 651 l 2
 556 651 644 655 665 655 c 0
 678 655 688 650 688 643 c 0
 688 634 677 627 655 623 c 0
 603 614 548 596 503 558 c 0
 433 499 382 448 313 374 c 0
 307 369 311 362 318 355 c 2
 559 95 l 2
 600 49 612 37 668 25 c 0
 690 20 701 16 701 7 c 0
 701 -1 689 -5 671 -5 c 0
 612 -5 583 0 527 0 c 0
 499 0 485 -1 440 -1 c 0
 424 -1 412 2 412 10 c 0
 412 19 420 24 438 28 c 0
 459 33 468 40 468 49 c 0
 468 57 460 66 452 75 c 2
 247 303 l 2
 239 311 229 320 224 320 c 0
 219 320 219 306 219 299 c 0
 219 236 221 187 224 109 c 0
 226 67 237 35 287 25 c 0
 309 21 319 16 319 7 c 0
 319 -1 307 -5 290 -5 c 0
 235 -5 225 2 187 2 c 0
 139 2 116 -5 60 -5 c 0
EndSplineSet
EndChar

StartChar: L
Encoding: 76 76 11
Width: 585
GlyphClass: 2
Flags: HW
TeX: 653 5
ItalicCorrection: 15
TopAccentHorizontal: 175
HStem: -5 42<225.713 481.972> -5 30<27.3486 94.6703> 622 32<35.2801 113.84 244.563 334.39>
VStem: 128 90<46.8309 602.806> 542 35<140.467 163.394>
LayerCount: 2
Fore
SplineSet
54 -5 m 1x78
 37 -5 27 0 27 7 c 0
 27 19 44 24 49 25 c 0x78
 100 35 128 52 128 96 c 2
 128 559 l 2
 128 606 116 613 66 622 c 0
 44 626 34 633 34 642 c 0
 34 650 46 654 62 654 c 0
 115 654 135 650 178 650 c 0
 226 650 255 654 308 654 c 0
 324 654 335 650 335 642 c 0
 335 633 326 626 304 622 c 0
 253 612 217 604 217 565 c 2
 217 97 l 2
 217 56 228 37 291 37 c 2
 412 37 l 2xb8
 447 37 475 50 489 63 c 0
 515 86 525 100 542 135 c 0
 546 145 555 166 564 166 c 0
 572 166 577 155 577 147 c 0
 577 145 575 141 575 140 c 0
 561 87 552 55 548 12 c 0
 547 3 543 -5 533 -5 c 0
 410 -5 292 0 190 0 c 0
 141 0 58 -5 54 -5 c 1x78
EndSplineSet
EndChar

StartChar: M
Encoding: 77 77 12
Width: 904
GlyphClass: 2
Flags: HW
TeX: 656 10
TopAccentHorizontal: 442
HStem: -5 30<19.7656 82.2918 197.458 263.18 581.48 649.065 793.837 868.202> 624 32<42.7889 114.434 778.941 846.425>
VStem: 653 87<310.064 455.7> 665 97<47.6202 352.232>
LayerCount: 2
Fore
SplineSet
47 -5 m 0xe0
 30 -5 19 -1 19 7 c 0
 19 16 29 21 51 25 c 0
 84 32 106 57 113 103 c 0
 136 271 152 434 154 527 c 1
 154 535 154 552 153 560 c 1
 152 573 150 584 137 595 c 0
 114 614 93 618 64 624 c 0
 51 627 42 635 42 644 c 0
 42 654 56 656 75 656 c 0
 103 656 199 648 230 648 c 0
 239 648 247 641 250 631 c 0
 257 607 263 580 273 555 c 2
 429 161 l 2
 433 151 445 148 450 158 c 2
 640 558 l 1
 646 583 655 615 659 635 c 0
 661 643 664 648 669 648 c 2
 706 648 l 2
 748 648 801 656 826 656 c 0
 833 656 848 655 848 646 c 0
 848 637 841 633 822 625 c 0
 805 619 784 610 767 603 c 0
 750 596 740 582 740 563 c 0xe0
 741 376 753 249 762 95 c 0
 764 55 788 34 837 25 c 0
 859 21 869 16 869 7 c 0
 869 -1 857 -5 841 -5 c 0
 788 -5 764 0 719 0 c 0
 678 0 662 -5 609 -5 c 0
 593 -5 581 -1 581 7 c 0
 581 16 591 22 613 25 c 0
 653 31 665 50 665 96 c 0xd0
 664 237 659 331 653 463 c 0
 651 476 645 475 638 463 c 2
 413 -4 l 2
 409 -12 397 -12 394 -3 c 0
 340 153 280 298 207 469 c 0
 204 477 195 476 194 468 c 0
 176 333 165 234 165 102 c 0
 165 66 190 33 232 25 c 0
 254 21 264 16 264 7 c 0
 264 -1 251 -5 235 -5 c 0
 181 -5 177 0 140 0 c 0
 103 0 95 -5 47 -5 c 0xe0
EndSplineSet
EndChar

StartChar: N
Encoding: 78 78 13
Width: 794
GlyphClass: 2
Flags: HW
TeX: 658 17
ItalicCorrection: 13
TopAccentHorizontal: 397
HStem: -5 31<33.8747 93.945 207.313 276.622> 619 32<542.655 616.854 702.775 782.178> 620 38<13.2985 86.6509>
VStem: 140 38<307.279 497.191> 642 44<145.405 600.954>
LayerCount: 2
Fore
SplineSet
670 -17 m 0xd8
 657 -17 615 2 582 47 c 1
 552 84 246 442 211 482 c 0
 202 493 196 497 191 497 c 0
 184 497 183 484 183 476 c 0
 181 378 179 225 179 105 c 0
 179 68 195 34 245 25 c 0
 267 21 277 16 277 7 c 0
 277 -1 265 -5 249 -5 c 0
 195 -5 190 0 153 0 c 0
 116 0 109 -5 61 -5 c 0
 45 -5 33 -1 33 7 c 0
 33 16 43 20 65 26 c 0
 102 36 118 67 122 108 c 0
 130 183 140 342 140 507 c 0
 140 578 101 601 43 620 c 0
 36 622 12 632 12 644 c 0
 12 656 27 658 35 658 c 0xb8
 109 656 123 653 195 653 c 0
 207 653 211 646 218 637 c 0
 249 598 578 201 609 165 c 0
 614 159 624 145 632 145 c 0
 637 145 641 152 642 166 c 0
 643 210 644 391 644 563 c 0
 643 590 608 614 583 619 c 0
 561 623 541 630 541 639 c 0
 541 647 564 651 580 651 c 1
 588 651 636 650 642 650 c 1
 689 650 696 653 756 653 c 0
 773 653 785 650 785 642 c 0
 785 633 774 626 752 622 c 0
 702 613 691 601 689 567 c 0
 688 535 686 263 686 112 c 0
 686 64 692 23 692 10 c 0
 692 -13 681 -17 670 -17 c 0xd8
EndSplineSet
EndChar

StartChar: O
Encoding: 79 79 14
Width: 767
GlyphClass: 2
Flags: HW
TeX: 664 14
TopAccentHorizontal: 382
HStem: -14 41<305.485 492.541> 621 43<271.857 464.017>
VStem: 45 105<212.171 438.915> 617 105<211.242 433.802>
LayerCount: 2
Fore
SplineSet
379 -14 m 0
 202 -14 45 118 45 315 c 0
 45 495 165 664 388 664 c 0
 565 664 722 532 722 335 c 0
 722 155 602 -14 379 -14 c 0
394 27 m 0
 542 27 617 130 617 286 c 0
 617 468 535 621 372 621 c 0
 226 621 150 520 150 365 c 0
 150 182 231 27 394 27 c 0
EndSplineSet
EndChar

StartChar: P
Encoding: 80 80 15
Width: 560
GlyphClass: 2
Flags: HW
TeX: 658 5
ItalicCorrection: 14
TopAccentHorizontal: 276
HStem: -5 30<24.5767 100.368 247.472 316.623> 251 32<263.99 375.313> 628 30<35.406 92.5213 229.373 355.022>
VStem: 128 90<45.7593 603.574> 441 95<370.689 559.308>
LayerCount: 2
Fore
SplineSet
52 -5 m 0
 36 -5 24 -1 24 7 c 0
 24 16 33 21 55 25 c 0
 105 34 128 52 128 100 c 2
 128 525 l 2
 128 583 117 613 67 622 c 0
 45 626 35 633 35 642 c 0
 35 650 46 653 63 653 c 0
 116 653 125 652 166 652 c 0
 207 652 248 658 281 658 c 0
 434 658 536 591 536 478 c 0
 536 355 463 251 309 251 c 0
 279 251 263 262 263 271 c 0
 263 277 272 285 279 285 c 0
 286 285 299 283 325 283 c 0
 402 283 441 353 441 469 c 0
 441 577 375 628 281 628 c 0
 243 628 218 616 218 585 c 2
 218 110 l 2
 218 63 235 34 286 25 c 0
 308 21 317 16 317 7 c 0
 317 -1 306 -5 290 -5 c 0
 237 -5 222 2 184 2 c 0
 134 2 105 -5 52 -5 c 0
EndSplineSet
EndChar

StartChar: Q
Encoding: 81 81 16
Width: 765
GlyphClass: 2
Flags: HW
TeX: 664 248
ItalicCorrection: 7
TopAccentHorizontal: 372
HStem: -248 58<677.862 844.16> 621 43<271.857 464.017>
VStem: 45 105<214.348 439.005> 617 105<207.981 433.892>
LayerCount: 2
Fore
SplineSet
744 -248 m 0
 650 -248 586 -220 521 -173 c 0
 469 -136 429 -108 366 -56 c 0
 322 -19 282 -4 251 10 c 0
 145 59 45 148 45 315 c 0
 45 495 165 664 388 664 c 0
 565 664 722 532 722 335 c 0
 722 185 639 44 483 0 c 0
 476 -2 475 -5 475 -7 c 0
 475 -10 476 -14 479 -17 c 0
 517 -57 554 -89 604 -125 c 0
 671 -174 721 -190 796 -190 c 0
 819 -190 840 -187 849 -183 c 0
 855 -181 863 -180 869 -180 c 0
 876 -180 882 -182 882 -189 c 0
 882 -201 879 -207 864 -216 c 0
 827 -238 784 -248 744 -248 c 0
394 27 m 0
 542 27 617 129 617 286 c 0
 617 469 535 621 372 621 c 0
 226 621 150 521 150 365 c 0
 150 181 231 27 394 27 c 0
EndSplineSet
EndChar

StartChar: R
Encoding: 82 82 17
Width: 720
GlyphClass: 2
Flags: HW
TeX: 657 21
ItalicCorrection: 20
TopAccentHorizontal: 237
HStem: -21 50<608.931 718.109> -5 30<24.5767 100.368 247.472 316.623> 625 32<35.2334 109.55 234.134 348.256>
VStem: 128 90<46.7907 306.639 333.187 610.962> 414 98<411.545 573.259>
LayerCount: 2
Fore
SplineSet
639 -21 m 0xb8
 576 -21 530 -6 494 38 c 0
 446 98 412 140 346 249 c 0
 335 266 324 277 305 287 c 0
 278 300 249 305 232 307 c 0
 221 308 218 299 218 287 c 2
 218 109 l 2
 218 66 235 34 286 25 c 0
 308 21 317 16 317 7 c 0
 317 -1 306 -5 290 -5 c 0
 237 -5 222 2 184 2 c 0
 134 2 105 -5 52 -5 c 0
 36 -5 24 -1 24 7 c 0
 24 16 33 21 55 25 c 0x78
 105 34 128 52 128 100 c 2
 128 529 l 2
 128 601 123 615 67 622 c 0
 45 624 35 633 35 642 c 0
 35 650 46 653 63 653 c 0
 118 653 124 651 166 651 c 0
 205 651 224 657 284 657 c 0
 431 657 512 602 512 493 c 0
 512 403 448 354 392 327 c 0
 387 325 388 320 392 314 c 0
 454 220 502 146 592 64 c 0
 628 31 663 29 710 29 c 0
 720 29 725 26 725 18 c 0
 725 -13 670 -21 639 -21 c 0xb8
269 331 m 0
 359 331 414 400 414 477 c 0
 414 560 391 625 272 625 c 0
 231 625 222 602 219 532 c 0
 218 499 218 444 218 366 c 0
 218 334 237 331 269 331 c 0
EndSplineSet
EndChar

StartChar: S
Encoding: 83 83 18
Width: 471
GlyphClass: 2
Flags: HW
TeX: 664 16
TopAccentHorizontal: 245
HStem: -16 35<160.887 283.49> 628 36<188.818 314.405>
VStem: 40 36<113.565 176.144> 60 84<462.722 568.789> 338 90<88.3947 215.388>
LayerCount: 2
Fore
SplineSet
208 -16 m 0xd8
 152 -16 103 0 65 31 c 0
 59 36 53 44 51 52 c 0
 43 80 41 131 40 162 c 0
 40 171 49 176 60 176 c 0
 68 176 74 173 76 165 c 0xe8
 103 63 162 19 222 19 c 0
 290 19 338 68 338 138 c 0
 338 218 297 243 225 287 c 0
 146 336 60 382 60 481 c 0
 60 584 132 664 272 664 c 0
 320 664 357 651 380 642 c 0
 391 638 399 627 402 616 c 0
 410 588 421 548 421 514 c 0
 421 506 413 503 405 503 c 0
 393 503 381 509 378 517 c 0
 351 588 314 628 256 628 c 0
 196 628 144 598 144 517 c 0
 144 459 207 419 283 373 c 0
 358 327 428 280 428 181 c 0
 428 59 341 -16 208 -16 c 0xd8
EndSplineSet
EndChar

StartChar: T
Encoding: 84 84 19
Width: 675
GlyphClass: 2
Flags: HW
TeX: 694 5
ItalicCorrection: 10
TopAccentHorizontal: 348
HStem: -5 30<186.49 262.468 419.102 494.001> 610 33<110.879 286.725 393.84 601.558>
VStem: 295 90<48.3337 605.594> 622 36<520.062 591.468>
LayerCount: 2
Fore
SplineSet
214 -5 m 0
 198 -5 186 -1 186 7 c 0
 186 16 196 21 218 25 c 0
 268 34 295 54 295 101 c 2
 295 493 l 2
 295 582 289 602 274 605 c 0
 256 609 238 610 207 610 c 2
 163 610 l 2
 130 610 93 596 78 569 c 0
 72 558 51 529 35 529 c 0
 29 529 27 536 27 543 c 0
 27 549 29 557 32 563 c 0
 52 603 58 628 64 671 c 0
 67 692 76 695 82 695 c 0
 88 695 101 673 108 662 c 0
 117 648 152 643 179 643 c 2
 534 643 l 2
 578 643 604 649 625 658 c 0
 642 667 650 679 666 679 c 0
 671 679 673 667 673 657 c 0
 673 650 670 636 669 630 c 0
 662 593 658 592 658 565 c 2
 658 552 l 2
 658 539 652 520 642 520 c 0
 632 520 627 534 622 560 c 0
 616 591 592 610 529 610 c 2
 434 610 l 2
 390 610 385 604 385 496 c 2
 385 102 l 2
 385 55 413 35 463 25 c 0
 485 21 495 16 495 7 c 0
 495 -1 483 -5 467 -5 c 0
 414 -5 390 0 345 0 c 0
 296 0 267 -5 214 -5 c 0
EndSplineSet
EndChar

StartChar: U
Encoding: 85 85 20
Width: 741
GlyphClass: 2
Flags: HW
TeX: 653 14
ItalicCorrection: 11
TopAccentHorizontal: 376
HStem: -14 55<296.676 478.082> 620 33<25.2382 83.3637 213.292 268.085 514.078 567.824 666.004 729.539>
VStem: 103 90<154.833 604.905> 590 58<324.472 602.634> 593 44<162.81 459.404>
LayerCount: 2
Fore
SplineSet
374 -14 m 0xe8
 194 -14 103 88 103 242 c 2
 103 546 l 2
 103 592 80 614 56 620 c 0
 33 626 24 633 24 642 c 0
 24 650 36 653 53 653 c 0
 84 653 116 650 153 650 c 0
 185 650 218 652 241 652 c 0
 258 652 269 649 269 641 c 0
 269 631 257 627 235 620 c 0
 218 614 193 587 193 547 c 2
 193 268 l 2
 193 111 279 41 397 41 c 0
 532 41 593 140 593 295 c 0xe8
 593 340 592 432 590 507 c 0
 589 563 576 610 547 619 c 0
 533 623 513 631 513 640 c 0
 513 648 525 651 542 651 c 0
 574 651 591 650 620 650 c 0
 653 650 677 653 702 653 c 0
 719 653 731 650 731 642 c 0
 731 633 721 627 699 622 c 0
 663 614 650 586 648 545 c 0xf0
 641 432 640 344 637 252 c 0
 633 96 521 -14 374 -14 c 0xe8
EndSplineSet
EndChar

StartChar: V
Encoding: 86 86 21
Width: 676
GlyphClass: 2
Flags: HW
TeX: 653 12
ItalicCorrection: 3
TopAccentHorizontal: 339
HStem: -13 21G<319.7 324.6> 620 33<1.37885 63.1468 205.612 290.242 412.985 484.198 609.783 680.932>
VStem: 0 195<571 645.7>
LayerCount: 2
Fore
SplineSet
322 -13 m 0
 317 -13 312 -10 310 -4 c 0
 304 11 294 41 287 60 c 2
 102 547 l 2
 88 583 67 610 32 620 c 0
 11 627 0 633 0 642 c 0
 0 650 12 653 28 653 c 0
 60 653 108 650 153 650 c 0
 193 650 239 652 262 652 c 0
 278 652 291 649 291 641 c 0
 291 632 281 623 259 621 c 0
 221 617 195 605 195 582 c 0
 195 561 202 544 205 535 c 2
 347 158 l 2
 349 153 354 150 358 159 c 2
 492 512 l 2
 519 583 490 614 445 620 c 0
 426 623 412 631 412 640 c 0
 412 648 424 651 441 651 c 0
 469 651 502 650 540 650 c 0
 579 650 625 653 653 653 c 0
 670 653 682 651 682 642 c 0
 682 633 672 627 650 622 c 0
 602 611 569 572 553 533 c 2
 370 90 l 2
 362 71 346 22 334 -4 c 0
 332 -9 327 -13 322 -13 c 0
EndSplineSet
EndChar

StartChar: W
Encoding: 87 87 22
Width: 928
GlyphClass: 2
Flags: HW
TeX: 653 16
ItalicCorrection: 16
TopAccentHorizontal: 465
HStem: -12 21G<625.3 631.9> 620 33<1.46279 66.1816 198.231 248.511 269.197 334.833 629.025 703.704 725.057 780.088 873.849 941.329>
VStem: 0 196<578.3 645.7> 573 132<595.6 645.9>
LayerCount: 2
Fore
SplineSet
340 -16 m 0
 336 -16 330 -1 325 12 c 2
 104 554 l 2
 88 588 67 610 32 620 c 0
 11 627 0 633 0 642 c 0
 0 650 13 653 29 653 c 0
 61 653 89 650 124 650 c 0
 161 650 197 652 220 652 c 0
 236 652 249 650 249 641 c 0
 249 632 240 627 217 621 c 0
 200 617 196 603 196 588 c 0
 196 569 204 548 204 547 c 1
 264 395 302 305 367 157 c 0
 374 142 378 144 382 156 c 2
 457 337 l 2
 461 347 463 354 463 360 c 0
 463 368 461 375 456 387 c 2
 392 540 l 2
 376 582 335 610 300 620 c 0
 279 626 268 632 268 641 c 0
 268 649 280 653 296 653 c 0
 328 653 360 650 396 650 c 0
 427 650 456 652 479 652 c 0
 496 652 508 649 508 641 c 0
 508 625 471 622 468 601 c 1
 465 598 465 594 467 589 c 0
 472 575 504 495 513 475 c 0
 520 459 523 458 531 475 c 0
 547 510 565 570 571 588 c 0
 572 591 573 595 573 597 c 0
 573 622 534 623 534 641 c 0
 534 649 545 652 562 652 c 0
 592 652 596 650 615 650 c 0
 638 650 650 653 676 653 c 0
 693 653 705 651 705 642 c 0
 705 633 695 627 673 622 c 0
 630 612 622 600 605 572 c 0
 593 550 566 489 550 446 c 0
 546 435 541 415 545 407 c 2
 644 154 l 2
 647 146 651 150 655 159 c 0
 690 250 736 395 780 541 c 0
 785 556 787 568 787 579 c 0
 787 598 778 614 757 620 c 0
 743 624 724 631 724 640 c 0
 724 648 736 651 753 651 c 0
 781 651 800 650 825 650 c 0
 857 650 886 653 913 653 c 0
 930 653 943 651 943 642 c 0
 943 633 932 627 910 622 c 0
 862 611 840 565 829 536 c 2
 645 10 l 2
 642 3 635 -12 628 -12 c 0
 622 -12 614 -2 610 7 c 0
 561 117 537 189 489 307 c 0
 485 316 482 314 477 302 c 0
 430 194 404 127 362 14 c 0
 357 0 348 -16 340 -16 c 0
EndSplineSet
EndChar

StartChar: X
Encoding: 88 88 23
Width: 713
GlyphClass: 2
Flags: HW
TeX: 656 5
ItalicCorrection: 10
TopAccentHorizontal: 347
HStem: -5 33<-3.53218 66.5552 203.223 267.657 392.614 452.267 634.353 703.776> 622 33<19.3788 88.0289 252.368 326.219 447.333 516.633 632.832 698.169>
LayerCount: 2
Fore
SplineSet
24 -5 m 0
 7 -5 -5 -3 -5 6 c 0
 -5 15 6 21 27 28 c 0
 62 38 126 71 168 124 c 2
 292 280 l 2
 306 299 315 315 296 342 c 2
 161 532 l 2
 114 597 85 612 50 622 c 0
 29 629 18 634 18 643 c 0
 18 651 30 655 46 655 c 0
 83 655 143 650 195 650 c 0
 236 650 277 652 298 652 c 0
 314 652 327 649 327 641 c 0
 327 632 316 628 294 621 c 0
 260 611 242 606 242 589 c 0
 242 578 252 559 273 530 c 2
 364 402 l 2
 378 382 384 384 395 399 c 2
 499 536 l 2
 515 557 525 575 525 588 c 0
 525 603 512 614 480 620 c 0
 466 623 447 631 447 640 c 0
 447 648 459 651 476 651 c 0
 502 651 528 650 559 650 c 0
 598 650 642 656 671 656 c 0
 688 656 700 653 700 644 c 0
 700 635 690 630 668 624 c 0
 631 614 584 565 543 516 c 2
 425 375 l 2
 407 354 405 350 413 334 c 2
 569 109 l 2
 598 67 636 36 672 27 c 0
 694 21 705 15 705 6 c 0
 705 -2 694 -5 677 -5 c 0
 643 -5 575 1 526 1 c 0
 485 1 447 0 421 -0 c 0
 405 0 393 3 393 11 c 0
 393 20 411 27 425 31 c 0
 446 37 471 52 471 77 c 0
 471 87 468 97 459 109 c 2
 355 260 l 2
 344 275 338 276 330 265 c 2
 200 97 l 2
 192 87 190 77 190 70 c 0
 190 51 208 36 235 30 c 0
 257 24 268 19 268 10 c 0
 268 2 256 -1 239 -1 c 0
 218 -1 182 1 148 1 c 0
 104 1 58 -5 24 -5 c 0
EndSplineSet
EndChar

StartChar: Y
Encoding: 89 89 24
Width: 586
GlyphClass: 2
Flags: HW
TeX: 653 5
ItalicCorrection: 9
TopAccentHorizontal: 310
HStem: -5 30<155.221 228.748 390.958 463.26> 620 33<1.37885 57.9188 200.739 264.744 389.85 457.791 551.189 626.433>
VStem: 264 90<51.8328 324.512> 464 165<578 646.1>
LayerCount: 2
Fore
SplineSet
183 -5 m 0
 166 -5 155 -1 155 7 c 0
 155 16 165 21 187 25 c 0
 237 34 264 61 264 108 c 2
 264 255 l 2
 264 284 244 322 238 333 c 2
 119 526 l 2
 104 550 67 610 32 620 c 0
 11 627 0 633 0 642 c 0
 0 650 12 653 28 653 c 0
 62 653 103 650 151 650 c 0
 184 650 213 652 237 652 c 0
 253 652 266 649 266 641 c 0
 266 632 254 626 233 621 c 0
 212 616 199 610 199 594 c 0
 199 586 202 573 211 558 c 2
 305 387 l 2
 318 363 326 352 332 352 c 0
 340 352 346 361 363 387 c 0
 393 435 414 474 447 534 c 0
 459 555 464 572 464 584 c 0
 464 609 442 617 422 620 c 0
 408 622 389 631 389 640 c 0
 389 648 401 651 418 651 c 0
 449 651 466 650 496 650 c 0
 536 650 575 653 600 653 c 0
 617 653 629 651 629 642 c 0
 629 633 605 624 579 617 c 0
 543 607 525 581 491 529 c 0
 438 448 424 425 379 351 c 0
 354 310 354 299 354 260 c 2
 354 108 l 2
 354 62 381 35 431 25 c 0
 453 21 464 17 464 7 c 0
 464 -1 452 -5 435 -5 c 0
 382 -5 359 0 314 0 c 0
 265 0 236 -5 183 -5 c 0
EndSplineSet
EndChar

StartChar: Z
Encoding: 90 90 25
Width: 603
GlyphClass: 2
Flags: HW
TeX: 676 5
ItalicCorrection: 14
TopAccentHorizontal: 308
HStem: -5 42<192.156 485.486> 608 38<123.61 430.259>
LayerCount: 2
Fore
SplineSet
532 -5 m 0
 429 -5 327 -2 235 -2 c 0
 194 -2 152 -3 113 -3 c 2
 36 -3 l 2
 29 -3 28 12 28 13 c 1
 30 25 64 75 86 106 c 0
 217 288 302 404 426 591 c 0
 428 594 430 597 430 600 c 0
 430 604 427 607 412 608 c 0
 378 609 325 610 275 610 c 0
 238 610 202 610 177 608 c 0
 142 605 95 582 75 533 c 0
 69 520 61 501 45 501 c 0
 38 501 35 506 35 512 c 0
 35 520 39 531 42 539 c 0
 51 563 67 615 70 659 c 0
 71 675 79 677 85 677 c 0
 91 677 107 667 119 662 c 0
 133 656 171 646 205 646 c 2
 330 646 l 2
 408 646 490 648 561 650 c 0
 567 650 576 636 572 631 c 2
 510 546 l 2
 378 366 301 257 182 73 c 0
 179 69 178 63 178 59 c 0
 178 51 183 43 191 42 c 0
 218 39 258 37 299 37 c 0
 345 37 393 40 438 44 c 0
 494 50 532 84 557 151 c 0
 560 159 568 171 578 171 c 0
 584 171 588 167 588 158 c 0
 588 144 562 39 551 12 c 0
 547 3 543 -5 532 -5 c 0
EndSplineSet
EndChar

StartChar: a
Encoding: 97 97 26
Width: 406
GlyphClass: 2
Flags: HW
TeX: 414 14
ItalicCorrection: 26
TopAccentHorizontal: 218
HStem: -14 54<100.4 199.92 319.01 377.238> 366 50<156.328 258.4>
VStem: 37 84<44.5436 127.424 282.237 320.848> 238 76<59.5114 170.396 202.494 355.716>
LayerCount: 2
Fore
SplineSet
120 -14 m 0
 82 -14 37 34 37 73 c 0
 37 116 60 137 110 158 c 2
 210 200 l 2
 236 211 237 213 238 240 c 2
 240 303 l 2
 241 338 220 366 183 366 c 0
 163 366 141 359 129 348 c 0
 121 342 120 332 120 321 c 2
 121 301 l 2
 121 290 73 265 52 265 c 0
 45 265 40 270 40 276 c 0
 40 297 55 322 81 345 c 0
 127 386 193 416 233 416 c 0
 284 416 320 376 319 322 c 2
 314 88 l 2
 313 60 329 40 350 40 c 0
 366 40 377 43 386 51 c 0
 390 55 392 56 394 56 c 0
 400 56 405 50 405 44 c 0
 405 38 400 28 393 21 c 0
 372 -1 344 -14 322 -14 c 0
 290 -14 265 4 246 39 c 1
 243 39 l 1
 199 2 163 -14 120 -14 c 0
168 36 m 0
 192 36 210 45 224 59 c 0
 231 66 235 75 236 98 c 2
 238 150 l 2
 239 165 237 170 229 170 c 0
 226 170 220 170 210 166 c 0
 143 141 121 115 121 89 c 0
 121 54 145 36 168 36 c 0
EndSplineSet
EndChar

StartChar: b
Encoding: 98 98 27
Width: 520
GlyphClass: 2
Flags: HW
TeX: 705 14
TopAccentHorizontal: 114
HStem: -14 33<216.7 335.943> -4 21G<78.2 83.2> 373 44<219.615 333.272>
VStem: 74 78<70.9741 346.048 359.442 620.892> 401 84<111.845 292.254>
LayerCount: 2
Fore
SplineSet
261 -14 m 0xb8
 231 -14 200 -8 174 -1 c 0
 146 7 123 15 115 15 c 0
 107 15 97 8 91 2 c 0
 88 -1 85 -4 82 -4 c 0x78
 75 -4 67 1 67 8 c 0
 67 20 74 55 74 84 c 2
 74 564 l 2
 74 599 57 626 29 637 c 0
 23 640 16 644 16 652 c 0
 16 659 23 661 28 662 c 0
 57 667 124 695 139 702 c 0
 143 704 147 705 149 705 c 0
 153 705 155 701 155 697 c 0
 155 691 152 650 152 598 c 2
 152 392 l 2
 152 367 154 360 161 359 c 1
 202 392 261 417 305 417 c 0
 406 417 485 330 485 218 c 0
 485 80 394 -14 261 -14 c 0xb8
283 19 m 0xb8
 356 19 401 96 401 196 c 0
 401 273 360 373 268 373 c 0
 219 373 180 355 152 330 c 1
 152 133 l 2
 152 63 216 19 283 19 c 0xb8
EndSplineSet
EndChar

StartChar: c
Encoding: 99 99 28
Width: 411
GlyphClass: 2
Flags: HW
TeX: 414 15
TopAccentHorizontal: 204
HStem: -15 66<185.029 305.976> 377 39<163.803 268.384>
VStem: 35 75<128.415 285.443>
LayerCount: 2
Fore
SplineSet
214 -15 m 0
 112 -15 35 71 35 183 c 0
 35 313 130 416 248 416 c 0
 292 416 333 404 365 379 c 0
 373 373 376 367 376 360 c 0
 376 344 350 318 333 318 c 0
 325 318 318 324 310 330 c 0
 280 353 239 377 215 377 c 0
 152 377 110 314 110 217 c 0
 110 122 174 51 259 51 c 0
 298 51 322 62 354 93 c 0
 357 96 361 99 365 99 c 0
 371 99 376 93 376 85 c 0
 376 77 371 67 362 54 c 0
 332 13 278 -15 214 -15 c 0
EndSplineSet
EndChar

StartChar: d
Encoding: 100 100 29
Width: 513
GlyphClass: 2
Flags: HW
TeX: 704 19
ItalicCorrection: 19
TopAccentHorizontal: 382
HStem: -14 54<185.128 299.207> 21 25<437.177 509.794> 380 36<178.212 297.44> 637 26<294.415 332.836>
VStem: 35 80<116.269 288.022> 352 78<67.6217 330.928 402.405 626.411>
LayerCount: 2
Fore
SplineSet
359 -19 m 0x7c
 356 -19 347 -11 347 -8 c 0
 348 6 352 34 352 51 c 2
 352 57 l 1
 331 25 285 -14 221 -14 c 0xbc
 107 -14 35 88 35 191 c 0
 35 310 122 416 262 416 c 0
 288 416 318 410 333 405 c 1
 338 403 344 402 346 402 c 1
 349 402 352 408 352 425 c 2
 352 564 l 2
 352 617 335 631 304 637 c 0
 298 638 294 644 294 650 c 0
 294 655 297 661 303 663 c 0
 361 677 394 691 415 700 c 0
 422 703 427 704 430 704 c 0
 434 704 436 701 437 697 c 0
 437 687 430 652 430 570 c 2
 430 111 l 2
 430 65 436 46 451 46 c 0
 458 46 475 48 494 50 c 0
 507 51 511 48 511 40 c 0
 511 31 504 21 497 21 c 0
 458 16 422 7 375 -13 c 0
 364 -19 363 -19 359 -19 c 0x7c
259 40 m 0
 292 40 327 59 351 87 c 1
 352 272 l 2
 352 323 304 380 234 380 c 0
 188 380 115 343 115 214 c 0
 115 69 214 40 259 40 c 0
EndSplineSet
EndChar

StartChar: e
Encoding: 101 101 30
Width: 394
GlyphClass: 2
Flags: HW
TeX: 414 15
ItalicCorrection: 8
TopAccentHorizontal: 198
HStem: -15 66<179.199 300.179> 257 33<116.457 285.427> 386 30<164.557 262.58>
VStem: 30 71<133.565 256.367> 295 71<278 360.1>
LayerCount: 2
Fore
SplineSet
214 -15 m 0
 104 -15 30 73 30 203 c 0
 30 319 119 416 226 416 c 0
 307 416 365 364 365 289 c 0
 365 267 356 257 335 257 c 2
 126 257 l 2
 107 257 101 248 101 220 c 0
 101 126 167 51 251 51 c 0
 291 51 324 67 350 96 c 0
 355 103 357 104 361 104 c 0
 366 104 370 99 370 93 c 0
 370 81 364 68 353 53 c 0
 324 12 272 -15 214 -15 c 0
128 290 m 2
 214 290 l 2
 247 290 265 290 286 294 c 0
 292 295 295 303 295 317 c 0
 295 355 258 386 212 386 c 0
 167 386 115 340 115 300 c 0
 115 293 120 290 128 290 c 2
EndSplineSet
EndChar

StartChar: f
Encoding: 102 102 31
Width: 325
GlyphClass: 2
Flags: HW
TeX: 706 3
ItalicCorrection: 78
TopAccentHorizontal: 222
HStem: -3 28<24.8284 79.1077 182.669 256.375> 353 50<168.2 314.706> 664 42<228.11 338.435>
VStem: 90 78<34.9454 350.6 402.731 543.648>
LayerCount: 2
Fore
SplineSet
45 -3 m 0
 33 -3 25 0 25 8 c 0
 25 18 33 22 47 25 c 0
 79 33 90 41 90 68 c 2
 90 351 l 1
 77 351 59 351 38 353 c 0
 33 354 24 365 24 372 c 0
 24 375 29 378 31 379 c 1
 35 381 86 406 90 408 c 1
 91 637 226 706 315 706 c 0
 391 706 427 681 427 644 c 0
 427 617 412 602 393 602 c 0
 381 602 371 613 358 626 c 0
 340 644 317 664 273 664 c 0
 211 664 168 611 168 500 c 2
 168 413 l 2
 168 405 174 403 180 403 c 2
 303 403 l 2
 311 403 317 397 317 391 c 0
 317 382 314 369 310 361 c 0
 308 356 304 353 301 353 c 2
 189 353 l 2
 171 353 168 348 168 339 c 2
 168 71 l 2
 168 43 180 32 234 25 c 0
 248 23 257 19 257 9 c 0
 257 1 249 -3 237 -3 c 0
 197 -3 166 2 131 2 c 0
 96 2 85 -3 45 -3 c 0
EndSplineSet
EndChar

StartChar: g
Encoding: 103 103 32
Width: 444
GlyphClass: 2
Flags: HW
TeX: 416 290
TopAccentHorizontal: 206
HStem: -290 41<136.188 281.964> 105 36<164.121 252.726> 348 42<373.519 449.052> 387 32<164.464 248.527>
VStem: 11 77<-206.512 -105.977> 39 79<188.107 334.133> 40 70<25 79.6036> 296 72<204.85 339.992> 358 69<-153.705 -71.6236>
LayerCount: 2
Fore
SplineSet
437 391 m 0xe4
 444 391 450 385 450 375 c 0
 450 369 446 361 440 354 c 0
 437 351 433 348 431 348 c 2
 404 348 l 2
 386 348 375 345 373 340 c 0
 370 331 368 316 368 294 c 0
 368 192 293 105 204 105 c 0
 185 105 167 108 149 115 c 1
 127 103 110 86 110 75 c 0xe3
 110 48 153 32 241 27 c 0
 367 19 427 -14 427 -75 c 0
 427 -179 309 -290 198 -290 c 0
 82 -290 11 -245 11 -171 c 0xe880
 11 -135 21 -113 45 -94 c 0
 64 -78 96 -55 126 -31 c 1
 64 -18 40 6 40 44 c 0xe2
 40 57 46 68 63 81 c 0
 100 108 111 117 119 129 c 1
 73 156 39 205 39 259 c 0
 39 353 123 419 216 419 c 0xd4
 255 419 283 406 313 398 c 0
 344 389 361 388 382 388 c 0
 399 388 427 391 437 391 c 0xe4
210 141 m 0
 259 141 296 198 296 274 c 0
 296 334 252 387 204 387 c 0
 158 387 118 332 118 270 c 0xd5
 118 199 159 141 210 141 c 0
358 -111 m 0xc880
 358 -68 316 -49 210 -42 c 0
 193 -41 178 -39 164 -37 c 1
 109 -74 88 -105 88 -154 c 0
 88 -207 142 -249 211 -249 c 0
 252 -249 283 -239 306 -221 c 0
 338 -196 358 -155 358 -111 c 0xc880
EndSplineSet
EndChar

StartChar: h
Encoding: 104 104 33
Width: 522
GlyphClass: 2
Flags: HW
TeX: 705 3
ItalicCorrection: 15
TopAccentHorizontal: 122
HStem: -3 28<19.2992 71.8711 173.445 222.29 297.025 345.273 448.875 498.838> 360 56<235.66 323.823>
VStem: 84 78<32.9538 335.264 353.193 626.19> 358 78<32.8545 324.964>
LayerCount: 2
Fore
SplineSet
39 -3 m 0
 27 -3 19 0 19 8 c 0
 19 16 25 20 42 25 c 0
 62 31 83 39 84 66 c 2
 84 564 l 2
 84 600 75 630 41 636 c 0
 35 637 32 642 32 650 c 0
 32 656 34 660 40 662 c 0
 70 671 124 689 157 703 c 0
 159 704 162 705 164 705 c 0
 169 705 171 701 171 697 c 0
 171 685 162 667 162 570 c 2
 162 389 l 2
 162 369 164 361 169 353 c 1
 200 376 257 416 321 416 c 0
 387 416 436 359 436 280 c 2
 436 69 l 2
 436 42 456 31 476 25 c 0
 490 21 499 16 499 8 c 0
 499 0 493 -3 479 -3 c 0
 438 -3 434 2 398 2 c 0
 362 2 358 -3 317 -3 c 0
 303 -3 297 1 297 9 c 0
 297 18 305 20 319 25 c 0
 339 32 358 42 358 69 c 2
 358 272 l 2
 358 321 311 360 269 360 c 0
 245 360 207 353 188 338 c 0
 168 322 162 309 162 271 c 2
 162 66 l 2
 163 39 181 31 201 25 c 0
 215 21 223 17 223 9 c 0
 223 1 218 -3 203 -3 c 0
 163 -3 158 2 123 2 c 0
 88 2 79 -3 39 -3 c 0
EndSplineSet
EndChar

StartChar: i
Encoding: 105 105 34
Width: 253
GlyphClass: 2
Flags: HW
TeX: 617 3
ItalicCorrection: 3
TopAccentHorizontal: 125
HStem: -3 28<24.2909 80.2172 179.325 233.875> 352 26<34.8092 71.0408> 513 109<84.2037 171.588>
VStem: 74 109<523.531 610.915> 90 78<32.041 341.447>
LayerCount: 2
Fore
SplineSet
127 513 m 0xf0
 97 513 74 537 74 567 c 0
 74 598 97 622 127 622 c 0
 158 622 182 598 182 567 c 0
 182 537 158 513 127 513 c 0xf0
44 -3 m 0
 32 -3 24 0 24 8 c 0
 24 18 35 22 46 25 c 0
 75 32 90 39 90 63 c 2
 90 280 l 2
 90 317 79 347 45 352 c 0
 38 353 35 357 35 365 c 0
 35 372 38 377 44 378 c 0
 99 390 137 415 156 429 c 0
 162 433 167 436 171 436 c 0
 176 436 178 434 178 430 c 0
 178 412 168 338 168 293 c 2
 168 63 l 2xe8
 168 41 184 33 212 25 c 0
 223 22 234 18 234 8 c 0
 234 0 228 -3 215 -3 c 0
 177 -3 164 2 129 2 c 0
 94 2 83 -3 44 -3 c 0
EndSplineSet
Substitution2: "'dtls' Dotless Forms in Mathematical Alphanumeric Symbols lookup 1 subtable" dotlessi
EndChar

StartChar: j
Encoding: 106 106 35
Width: 234
GlyphClass: 2
Flags: HW
TeX: 617 287
TopAccentHorizontal: 116
HStem: -287 28<-19.5152 20.1521> 513 109<77.2037 164.588>
VStem: 67 109<523.531 610.915> 89 78<-121.133 339.352>
LayerCount: 2
Fore
SplineSet
120 513 m 0xe0
 90 513 67 537 67 567 c 0
 67 598 90 622 120 622 c 0
 151 622 175 598 175 567 c 0
 175 537 151 513 120 513 c 0xe0
4 -287 m 0
 -5 -287 -20 -283 -20 -276 c 0
 -20 -268 -11 -261 -8 -259 c 0
 16 -253 38 -236 57 -197 c 0
 86 -137 89 -1 89 67 c 2
 89 280 l 2
 89 317 76 345 43 352 c 0
 38 353 35 359 35 365 c 0
 35 370 38 377 42 378 c 0
 94 390 133 417 153 429 c 0
 160 433 165 436 167 436 c 0
 171 436 175 434 175 430 c 0
 171 389 167 321 167 276 c 2
 167 91 l 2xd0
 167 29 166 -72 136 -152 c 0
 110 -220 46 -287 4 -287 c 0
EndSplineSet
Substitution2: "'dtls' Dotless Forms in Mathematical Alphanumeric Symbols lookup 1 subtable" dotlessj
EndChar

StartChar: k
Encoding: 107 107 36
Width: 479
GlyphClass: 2
Flags: HW
TeX: 705 3
ItalicCorrection: 33
TopAccentHorizontal: 121
HStem: -3 28<19.3641 72.1889 171.095 219.299 259.316 298.976 433.092 489.336> 206 20<162.6 178.841> 380 23<277.46 314.634> 386 29<399.125 459.285>
VStem: 84 78<32.7628 206.39 226.802 626.132>
LayerCount: 2
Fore
SplineSet
42 -3 m 0xd8
 27 -3 19 0 19 8 c 0
 19 18 31 21 42 25 c 0
 62 31 84 39 84 66 c 2
 84 564 l 2
 84 610 73 629 40 637 c 0
 34 638 31 644 31 650 c 0
 31 656 34 661 39 662 c 0
 90 674 125 689 155 702 c 0
 159 704 161 705 164 705 c 0
 169 705 171 702 171 696 c 0
 171 682 162 648 162 570 c 2
 162 236 l 2
 162 230 165 227 168 227 c 0
 176 227 187 233 201 245 c 0
 254 291 294 333 307 349 c 0
 314 357 316 362 316 365 c 0
 316 372 302 377 289 380 c 0
 280 382 277 384 277 390 c 0
 277 397 286 403 299 403 c 2
 348 403 l 2xe8
 380 403 427 414 447 414 c 0
 456 414 460 410 460 404 c 0
 460 396 449 390 435 386 c 0
 410 379 387 366 367 354 c 0
 351 345 286 291 241 251 c 0
 237 247 236 244 236 241 c 0
 236 239 237 236 239 234 c 0
 290 170 359 97 384 74 c 0
 406 53 440 34 460 27 c 0
 474 22 490 18 490 8 c 0
 490 -1 482 -3 470 -3 c 0
 414 -3 345 0 277 0 c 0
 263 0 259 5 259 10 c 0
 259 18 267 23 277 26 c 0
 291 31 302 37 302 48 c 0
 302 52 299 57 295 63 c 2
 177 200 l 2
 173 205 172 206 168 206 c 0
 165 206 162 204 162 199 c 0
 161 180 162 159 162 136 c 0
 162 113 161 89 162 66 c 0
 162 40 177 31 197 25 c 0
 208 21 220 19 220 9 c 0
 220 -1 203 -3 197 -3 c 0
 158 -3 158 2 123 2 c 0
 88 2 81 -3 42 -3 c 0xd8
EndSplineSet
EndChar

StartChar: l
Encoding: 108 108 37
Width: 246
GlyphClass: 2
Flags: HW
TeX: 705 3
ItalicCorrection: 7
TopAccentHorizontal: 120
HStem: -3 28<20.0116 74.3022 173.304 226.97>
VStem: 84 78<32.1877 625.255>
LayerCount: 2
Fore
SplineSet
39 -3 m 0
 31 -3 19 -1 19 7 c 0
 19 17 31 21 42 25 c 0
 62 31 84 36 84 63 c 2
 84 564 l 2
 84 603 72 630 39 637 c 0
 34 638 31 644 31 650 c 0
 31 656 34 661 38 662 c 0
 89 674 125 691 157 703 c 0
 159 704 162 705 164 705 c 0
 168 705 169 700 169 697 c 0
 169 685 162 652 162 570 c 2
 162 63 l 2
 162 36 185 31 205 25 c 0
 217 21 228 17 228 7 c 0
 228 -1 216 -3 208 -3 c 0
 169 -3 158 2 123 2 c 0
 88 2 78 -3 39 -3 c 0
EndSplineSet
EndChar

StartChar: m
Encoding: 109 109 38
Width: 783
GlyphClass: 2
Flags: HW
TeX: 430 3
ItalicCorrection: 25
TopAccentHorizontal: 390
HStem: -3 28<24.3561 78.9935 177.084 230.634 288.514 342.67 441.205 496.25 553.682 608.126 705.222 759.851> 365 52<237.485 353.1 502.21 626>
VStem: 89 78<32.2389 335.156> 353 78<31.7359 334.213> 617 78<31.7125 332.231>
LayerCount: 2
Fore
SplineSet
44 -3 m 0
 33 -3 24 -1 24 8 c 0
 24 17 34 21 47 25 c 0
 66 31 89 36 89 63 c 2
 89 280 l 2
 89 315 85 344 52 350 c 0
 46 351 43 354 43 363 c 0
 43 371 46 375 51 376 c 0
 104 389 124 405 160 428 c 0
 162 429 165 432 169 432 c 0
 172 432 176 429 176 425 c 0
 176 416 171 380 171 361 c 0
 171 355 172 350 173 349 c 2
 175 349 l 1
 206 379 255 416 330 416 c 0
 377 416 409 396 429 346 c 1
 432 346 l 1
 475 385 529 416 594 416 c 0
 659 416 695 349 695 277 c 2
 695 63 l 2
 695 36 717 31 737 25 c 0
 750 21 760 17 760 8 c 0
 760 0 754 -3 740 -3 c 0
 700 -3 693 2 658 2 c 0
 623 2 613 -3 573 -3 c 0
 561 -3 553 0 553 8 c 0
 553 18 563 22 576 25 c 0
 597 30 617 36 617 62 c 2
 617 271 l 2
 617 319 582 365 540 365 c 0
 508 365 481 357 457 338 c 0
 440 325 431 303 431 270 c 2
 431 63 l 2
 431 36 454 30 474 25 c 0
 487 22 497 17 497 8 c 0
 497 0 489 -3 477 -3 c 0
 437 -3 428 2 393 2 c 0
 358 2 348 -3 308 -3 c 0
 297 -3 288 0 288 8 c 0
 288 18 300 21 311 25 c 0
 331 31 353 36 353 62 c 2
 353 271 l 2
 353 319 318 365 276 365 c 0
 244 365 218 357 193 338 c 0
 175 325 167 303 167 271 c 2
 167 63 l 2
 167 37 188 31 208 25 c 0
 219 21 231 18 231 8 c 0
 231 0 223 -3 211 -3 c 0
 171 -3 163 2 128 2 c 0
 93 2 84 -3 44 -3 c 0
EndSplineSet
EndChar

StartChar: n
Encoding: 110 110 39
Width: 534
GlyphClass: 2
Flags: HW
TeX: 430 3
ItalicCorrection: 13
TopAccentHorizontal: 264
HStem: -3 28<24.2197 79.3022 177.544 231.861 304.55 358.055 456.421 510.419> 364 53<235.918 340.497>
VStem: 89 78<31.7359 325.371> 368 78<31.7125 335.239>
LayerCount: 2
Fore
SplineSet
44 -3 m 0
 32 -3 24 0 24 8 c 0
 24 18 32 21 47 25 c 0
 67 30 89 36 89 63 c 2
 89 280 l 2
 89 315 86 342 53 350 c 0
 47 352 43 354 43 363 c 0
 43 370 46 375 52 376 c 0
 98 388 129 406 158 427 c 0
 162 430 166 432 170 432 c 0
 174 432 176 429 176 425 c 0
 176 416 171 381 171 362 c 0
 171 356 172 350 173 349 c 0
 220 394 269 417 332 417 c 0
 398 417 446 356 446 277 c 2
 446 63 l 2
 446 36 469 31 489 25 c 0
 500 21 511 17 511 7 c 0
 511 -1 500 -3 492 -3 c 0
 452 -3 443 2 408 2 c 0
 373 2 363 -3 323 -3 c 0
 316 -3 304 -1 304 7 c 0
 304 17 315 21 326 25 c 0
 346 31 368 36 368 63 c 2
 368 271 l 2
 368 328 334 363 282 364 c 0
 237 364 203 348 176 326 c 0
 171 321 167 311 167 303 c 2
 167 63 l 2
 167 36 190 30 210 25 c 0
 225 21 232 16 232 8 c 0
 232 0 225 -3 213 -3 c 0
 173 -3 164 2 129 2 c 0
 94 2 84 -3 44 -3 c 0
EndSplineSet
EndChar

StartChar: o
Encoding: 111 111 40
Width: 499
GlyphClass: 2
Flags: HW
TeX: 414 14
TopAccentHorizontal: 248
HStem: -14 32<205.888 319.78> 384 33<179.073 292.661>
VStem: 35 90<106.862 281.462> 375 90<112.105 292.971>
LayerCount: 2
Fore
SplineSet
236 -14 m 0
 123 -14 35 70 35 188 c 0
 35 301 132 417 256 417 c 0
 373 417 465 323 465 214 c 0
 465 95 387 -14 236 -14 c 0
257 18 m 0
 300 18 335 33 354 70 c 0
 370 101 375 148 375 190 c 0
 375 287 320 384 239 384 c 0
 205 384 179 375 156 346 c 0
 129 313 125 262 125 211 c 0
 125 112 180 18 257 18 c 0
EndSplineSet
EndChar

StartChar: p
Encoding: 112 112 41
Width: 525
GlyphClass: 2
Flags: HW
TeX: 426 285
TopAccentHorizontal: 252
HStem: -282 28<19.9198 73.9375 179.733 241.703> -15 33<229.626 326.101> 367 48<239.732 340.781>
VStem: 84 78<-242.425 15.9707 86.793 336.497> 402 88<127.427 298.387>
LayerCount: 2
Fore
SplineSet
40 -282 m 0
 33 -282 19 -280 19 -272 c 0
 19 -262 31 -258 42 -254 c 0
 63 -248 84 -242 84 -216 c 2
 84 287 l 2
 84 303 71 351 39 358 c 0
 34 359 30 365 30 372 c 0
 30 379 34 384 38 385 c 0
 88 397 125 412 158 426 c 0
 160 426 161 428 162 428 c 0
 166 428 168 422 168 418 c 0
 168 406 163 374 163 358 c 0
 163 354 163 350 164 349 c 1
 183 368 263 416 326 416 c 0
 430 416 490 321 490 226 c 0
 490 106 391 -15 264 -15 c 0
 237 -15 187 -1 166 16 c 0
 163 16 162 -25 162 -31 c 2
 162 -215 l 2
 162 -242 198 -247 220 -254 c 0
 231 -258 243 -262 243 -272 c 0
 243 -280 229 -282 221 -282 c 0
 182 -282 159 -277 124 -277 c 0
 89 -277 79 -282 40 -282 c 0
277 18 m 0
 315 18 402 60 402 193 c 0
 402 346 312 367 271 367 c 0
 224 367 165 330 165 316 c 0
 165 263 162 187 162 163 c 0
 162 87 223 18 277 18 c 0
EndSplineSet
EndChar

StartChar: q
Encoding: 113 113 42
Width: 525
GlyphClass: 2
Flags: HW
TeX: 421 285
ItalicCorrection: 16
TopAccentHorizontal: 278
HStem: -285 28<308.368 362.828 465.836 524.595> -14 55<195.745 309.418> 383 33<201.461 319.383>
VStem: 35 90<116.047 281.364> 374 78<-247.696 42.3951 62.554 336.276>
LayerCount: 2
Fore
SplineSet
327 -285 m 0
 320 -285 307 -284 307 -276 c 0
 307 -266 319 -261 330 -257 c 0
 352 -250 374 -245 374 -218 c 2
 374 13 l 2
 374 35 372 42 368 42 c 0
 365 42 362 43 359 40 c 0
 341 25 285 -14 234 -14 c 0
 129 -14 35 57 35 180 c 0
 35 319 133 416 282 416 c 0
 350 416 404 394 412 394 c 0
 426 394 432 404 439 418 c 0
 441 419 444 422 447 422 c 0
 454 422 464 417 464 412 c 0
 464 399 452 354 452 297 c 2
 452 -219 l 2
 452 -245 481 -251 502 -257 c 0
 513 -261 525 -266 525 -276 c 0
 525 -284 513 -285 505 -285 c 0
 465 -285 449 -280 413 -280 c 0
 378 -280 367 -285 327 -285 c 0
273 41 m 0
 315 41 358 61 375 80 c 1
 375 117 375 249 374 276 c 0
 372 337 322 383 258 383 c 0
 189 383 125 319 125 207 c 0
 125 80 212 41 273 41 c 0
EndSplineSet
EndChar

StartChar: r
Encoding: 114 114 43
Width: 346
GlyphClass: 2
Flags: HW
TeX: 430 3
ItalicCorrection: 30
TopAccentHorizontal: 179
HStem: -3 28<29.2307 79.9998 186.49 244.489> 346 70<227.782 318.432>
VStem: 90 79<36.9124 327.97>
LayerCount: 2
Fore
SplineSet
49 -3 m 0
 35 -3 29 0 29 8 c 0
 29 18 37 21 52 25 c 0
 78 31 90 44 90 63 c 2
 90 280 l 2
 90 315 82 342 50 349 c 0
 45 350 40 356 40 363 c 0
 40 369 44 375 49 376 c 0
 85 387 130 411 153 425 c 0
 161 430 166 432 169 432 c 0
 173 432 175 428 175 424 c 0
 175 417 174 380 172 349 c 0
 172 348 173 346 174 346 c 0
 206 385 251 417 291 417 c 0
 321 417 341 402 341 383 c 0
 341 362 320 327 299 327 c 0
 291 327 280 332 270 337 c 0
 259 341 247 346 237 346 c 0
 205 346 169 329 169 261 c 2
 169 64 l 2
 169 45 188 35 222 25 c 0
 236 21 245 17 245 8 c 0
 245 0 239 -3 225 -3 c 0
 185 -3 169 2 134 2 c 0
 99 2 89 -3 49 -3 c 0
EndSplineSet
EndChar

StartChar: s
Encoding: 115 115 44
Width: 328
GlyphClass: 2
Flags: HW
TeX: 414 14
TopAccentHorizontal: 160
HStem: -14 29<107.576 198.573> 387 29<132.293 218.565>
VStem: 47 65<282.158 367.983> 224 73<41.1151 129.974>
LayerCount: 2
Fore
SplineSet
147 -14 m 0
 106 -14 67 -1 41 22 c 1
 33 37 30 80 29 106 c 0
 29 112 36 116 43 116 c 0
 49 116 55 113 56 108 c 0
 74 43 116 15 156 15 c 0
 195 15 224 43 224 81 c 0
 224 117 201 138 144 173 c 0
 77 213 47 247 47 300 c 0
 47 366 95 416 185 416 c 0
 226 416 255 406 268 397 c 1
 278 382 287 346 287 316 c 0
 287 311 282 308 276 308 c 0
 268 308 258 313 256 318 c 0
 238 363 212 387 175 387 c 0
 142 387 112 366 112 329 c 0
 112 299 129 279 181 249 c 0
 259 205 297 173 297 110 c 0
 297 36 237 -14 147 -14 c 0
EndSplineSet
EndChar

StartChar: t
Encoding: 116 116 45
Width: 323
GlyphClass: 2
Flags: HW
TeX: 475 14
ItalicCorrection: 29
TopAccentHorizontal: 170
HStem: -14 57<183.605 269.592> 353 50<164.739 312.839>
VStem: 86 78<60.2587 352.485>
LayerCount: 2
Fore
SplineSet
194 -14 m 0
 126 -14 86 27 86 106 c 2
 86 338 l 2
 86 349 80 353 54 353 c 2
 47 353 l 2
 40 353 35 365 35 375 c 0
 35 378 40 385 42 386 c 0
 82 412 118 446 138 469 c 0
 144 476 149 481 156 481 c 0
 163 481 171 479 170 469 c 2
 164 422 l 2
 162 407 172 403 189 403 c 2
 303 403 l 2
 308 403 313 393 313 381 c 0
 313 368 308 353 303 353 c 2
 205 353 l 2
 172 353 164 351 164 325 c 2
 164 129 l 2
 164 74 187 43 230 43 c 0
 269 43 286 50 303 61 c 0
 304 62 307 63 308 63 c 0
 313 63 315 56 315 48 c 0
 315 37 257 -14 194 -14 c 0
EndSplineSet
EndChar

StartChar: u
Encoding: 117 117 46
Width: 532
GlyphClass: 2
Flags: HW
TeX: 415 19
ItalicCorrection: 7
TopAccentHorizontal: 273
HStem: -19 60<194.693 283.251> 22 29<463.189 521.984> 366 33<29.005 69.5241 280.066 348.954>
VStem: 85 78<73.6324 354.708> 363 82<76.086 355.857>
LayerCount: 2
Fore
SplineSet
365 -19 m 0xb8
 360 -19 358 -16 358 -11 c 0
 358 2 363 34 363 51 c 1
 363 52 363 58 363 58 c 1
 313 8 261 -14 199 -14 c 0
 134 -14 85 30 85 108 c 2
 85 309 l 2
 85 338 72 355 42 366 c 0
 35 368 29 371 29 382 c 0
 29 394 36 397 44 398 c 0
 91 401 111 406 149 415 c 0
 153 416 156 417 159 417 c 0
 165 417 170 414 169 403 c 0
 165 372 163 356 163 326 c 2
 163 131 l 2
 163 83 202 41 244 41 c 0xb8
 276 41 301 43 325 62 c 0
 339 72 367 95 367 135 c 2
 367 315 l 2
 367 355 323 366 301 366 c 0
 289 366 280 369 280 383 c 0
 280 395 290 399 301 399 c 0
 367 401 394 405 430 415 c 0
 433 416 438 417 441 417 c 0
 448 417 454 413 454 406 c 0
 454 404 453 400 452 396 c 0
 450 389 445 343 445 327 c 2
 445 96 l 2
 445 61 453 48 463 48 c 1
 471 48 498 51 506 51 c 1
 514 51 522 49 522 37 c 0
 522 26 517 23 508 22 c 0x78
 454 15 416 -1 386 -13 c 0
 381 -15 371 -19 365 -19 c 0xb8
EndSplineSet
EndChar

StartChar: v
Encoding: 118 118 47
Width: 444
GlyphClass: 2
Flags: HW
TeX: 405 21
ItalicCorrection: 5
TopAccentHorizontal: 224
HStem: 380 28<164.719 201.506 275.849 318.081 403.829 448.267>
VStem: 325 124<331.6 402.4>
LayerCount: 2
Fore
SplineSet
218 -21 m 2
 212 -21 202 7 198 18 c 0
 189 40 180 67 172 89 c 0
 141 171 106 249 74 330 c 0
 64 355 44 376 23 382 c 0
 12 386 5 389 5 398 c 0
 5 406 19 408 26 408 c 0
 66 408 66 403 102 403 c 0
 138 403 142 408 182 408 c 0
 189 408 202 406 202 398 c 0
 202 388 192 384 180 380 c 0
 166 375 159 359 159 339 c 0
 159 330 160 319 163 311 c 2
 240 107 l 2
 241 106 242 106 243 107 c 2
 317 297 l 2
 322 310 325 326 325 337 c 0
 325 363 316 373 298 380 c 0
 282 386 275 389 275 398 c 0
 275 406 287 408 296 408 c 0
 314 408 335 403 368 403 c 0
 401 403 408 408 429 408 c 0
 439 408 449 406 449 398 c 0
 449 389 443 385 427 380 c 0
 406 374 379 346 365 313 c 2
 287 124 l 2
 282 112 251 31 250 29 c 1
 249 27 233 -11 226 -21 c 1
 218 -21 l 2
EndSplineSet
EndChar

StartChar: w
Encoding: 119 119 48
Width: 693
GlyphClass: 2
Flags: HW
TeX: 405 23
TopAccentHorizontal: 348
HStem: 380 28<5.93571 52.9213 169.506 206.979 258.536 304.731 413.957 460.706 524.816 567.763 655.742 697.155>
VStem: 5 159<335.4 402.5> 329 77<277.55 363.854>
LayerCount: 2
Fore
SplineSet
227 -24 m 0
 223 -24 220 -21 219 -17 c 2
 79 330 l 2
 69 356 48 374 27 380 c 0
 16 384 5 388 5 398 c 0
 5 406 19 408 26 408 c 0
 54 408 74 403 102 403 c 0
 132 403 157 408 187 408 c 0
 192 408 208 406 208 398 c 0
 208 388 196 384 185 380 c 0
 171 376 164 360 164 340 c 0
 164 331 166 321 169 313 c 2
 245 118 l 2
 246 115 247 114 249 114 c 0
 251 114 253 115 254 118 c 2
 322 279 l 2
 328 295 329 311 329 325 c 0
 329 352 303 371 280 380 c 0
 269 384 258 388 258 398 c 0
 258 406 270 408 278 408 c 0
 298 408 320 403 355 403 c 0
 392 403 417 408 441 408 c 0
 448 408 462 406 462 398 c 0
 462 388 450 384 439 380 c 0
 424 375 406 367 406 344 c 0
 406 335 408 325 413 313 c 2
 486 125 l 2
 489 119 491 115 493 115 c 0
 496 115 498 118 501 124 c 2
 574 296 l 2
 579 307 581 327 581 336 c 0
 581 360 562 375 547 380 c 0
 536 384 524 388 524 398 c 0
 524 406 537 407 544 407 c 0
 574 407 585 403 619 403 c 0
 654 403 653 407 677 407 c 0
 685 407 698 406 698 398 c 0
 698 388 687 384 676 380 c 0
 655 374 635 344 622 314 c 2
 484 -17 l 2
 482 -21 479 -24 474 -24 c 0
 471 -24 468 -21 466 -17 c 2
 359 245 l 2
 357 249 355 252 353 253 c 0
 351 253 350 250 347 244 c 2
 237 -17 l 2
 235 -21 230 -24 227 -24 c 0
EndSplineSet
EndChar

StartChar: x
Encoding: 120 120 49
Width: 440
GlyphClass: 2
Flags: HW
TeX: 405 4
ItalicCorrection: 7
TopAccentHorizontal: 218
HStem: -2 30<12.6735 65.9372 226.05 275.219 381.248 433.153> 381 24<175.307 214.155 372.731 419.806>
LayerCount: 2
Fore
SplineSet
31 -4 m 0
 23 -4 10 -3 10 5 c 0
 10 16 22 21 33 24 c 0
 52 30 70 42 98 80 c 2
 177 189 l 2
 186 200 184 205 179 213 c 2
 98 336 l 2
 82 362 71 373 51 379 c 0
 40 382 29 386 29 397 c 0
 29 407 46 407 52 407 c 0
 92 407 86 403 134 403 c 0
 160 403 165 405 191 405 c 0
 196 405 215 405 215 395 c 0
 215 387 205 384 196 381 c 0
 186 378 174 375 174 363 c 0
 174 356 179 344 187 331 c 2
 233 262 l 2
 236 257 239 258 242 262 c 2
 290 336 l 2
 295 344 299 353 299 361 c 0
 299 368 295 375 285 378 c 0
 274 382 263 386 263 396 c 0
 263 406 281 406 286 406 c 0
 299 406 322 403 338 403 c 0
 373 403 382 408 401 408 c 0
 409 408 421 406 421 398 c 0
 421 388 410 384 399 380 c 0
 380 374 350 361 330 333 c 2
 266 238 l 2
 263 234 263 229 267 223 c 2
 362 68 l 2
 378 42 393 30 413 24 c 0
 424 21 436 17 436 6 c 0
 436 -2 423 -4 415 -4 c 0
 373 -4 376 1 327 1 c 0
 301 1 274 -2 248 -2 c 0
 231 -2 225 4 225 9 c 0
 225 21 234 24 250 28 c 0
 264 32 278 38 278 54 c 0
 278 60 276 67 271 75 c 2
 213 168 l 2
 212 169 208 169 207 168 c 2
 144 71 l 2
 142 67 138 58 138 49 c 0
 138 39 142 29 152 26 c 0
 163 22 175 18 175 8 c 0
 175 -2 157 -1 152 -1 c 0
 138 -1 114 1 98 1 c 0
 63 1 51 -4 31 -4 c 0
EndSplineSet
EndChar

StartChar: y
Encoding: 121 121 50
Width: 443
GlyphClass: 2
Flags: HW
TeX: 405 285
ItalicCorrection: 3
TopAccentHorizontal: 224
HStem: -285 91<18.7956 119.053> 380 28<5.93573 49.6562 160.449 202.16 403.754 447.465>
VStem: 5 149<337.4 402.2> 12 123<-269.357 -201.304> 326 123<328.9 402.2>
LayerCount: 2
Fore
SplineSet
66 -285 m 0xd8
 39 -285 12 -272 12 -241 c 0xd8
 12 -217 24 -194 46 -194 c 0
 62 -194 78 -201 90 -201 c 0
 100 -201 105 -198 111 -188 c 0
 132 -155 163 -94 191 -20 c 0
 194 -13 195 -4 195 6 c 0
 195 18 193 29 190 38 c 2
 73 329 l 2
 63 354 48 374 27 380 c 0
 16 384 5 388 5 398 c 0
 5 406 18 407 25 407 c 0
 66 407 68 403 102 403 c 0
 138 403 141 407 182 407 c 0
 190 407 203 404 203 396 c 0
 203 386 185 377 174 374 c 0
 160 370 154 362 154 342 c 0xe8
 154 334 158 320 162 311 c 2
 241 118 l 2
 242 115 243 112 246 112 c 0
 248 112 250 115 251 118 c 2
 318 297 l 2
 322 306 326 324 326 334 c 0
 326 359 316 368 304 373 c 0
 293 378 276 386 276 396 c 0
 276 404 289 407 296 407 c 0
 316 407 333 403 368 403 c 0
 403 403 404 407 428 407 c 0
 435 407 448 406 448 398 c 0
 448 388 437 384 426 380 c 0
 405 374 380 345 367 313 c 2
 229 -15 l 2
 223 -30 174 -149 135 -241 c 0
 122 -270 97 -285 66 -285 c 0xd8
EndSplineSet
EndChar

StartChar: z
Encoding: 122 122 51
Width: 383
GlyphClass: 2
Flags: HW
TeX: 416 5
TopAccentHorizontal: 200
HStem: -5 40<135.927 298.641> 369 35<104.04 244.174>
VStem: 35 23<288.332 305.335>
LayerCount: 2
Fore
SplineSet
40 -5 m 0
 35 -5 25 7 25 13 c 0
 25 19 49 54 63 73 c 0
 130 170 177 240 251 358 c 0
 254 362 257 369 242 369 c 2
 149 371 l 2
 130 372 114 361 105 352 c 0
 90 337 71 307 58 290 c 0
 50 282 31 289 35 300 c 0
 41 318 54 373 54 400 c 0
 54 411 65 419 70 419 c 0
 74 419 80 415 86 410 c 0
 92 405 112 404 130 404 c 0
 145 404 159 405 168 405 c 0
 236 405 295 406 357 408 c 0
 363 408 370 397 366 392 c 0
 352 375 340 361 327 341 c 2
 136 50 l 2
 130 40 136 35 146 35 c 2
 256 35 l 2
 272 35 287 43 302 58 c 0
 319 75 336 101 357 132 c 0
 363 142 381 137 381 126 c 0
 381 117 356 29 350 9 c 0
 348 0 342 -5 334 -5 c 0
 305 -5 231 0 121 0 c 0
 93 0 57 -5 40 -5 c 0
EndSplineSet
EndChar

StartChar: Alpha
Encoding: 913 913 52
Width: 696
GlyphClass: 2
Flags: HW
TeX: 685 5
TopAccentHorizontal: 348
HStem: -5 36<-0.781837 69.554 195.831 267.136 392.537 473.166 618.145 699.076> 247 36<241.006 427.039>
LayerCount: 2
Fore
SplineSet
27 -5 m 0
 10 -5 -2 -1 -2 8 c 0
 -2 17 9 24 30 31 c 0
 65 41 95 59 116 107 c 0
 190 275 235 392 301 573 c 0
 310 597 314 615 316 634 c 1
 330 638 343 642 357 650 c 0
 370 658 375 678 380 684 c 0
 382 685 385 686 386 683 c 0
 389 677 390 668 393 660 c 0
 456 460 535 230 571 125 c 0
 597 50 630 37 670 29 c 0
 692 25 701 16 701 6 c 0
 701 -2 690 -5 674 -5 c 0
 644 -5 577 1 532 1 c 0
 493 1 447 0 421 -0 c 0
 405 0 392 4 392 12 c 0
 392 21 407 28 424 31 c 0
 469 38 487 54 486 78 c 0
 485 108 463 186 448 235 c 0
 445 245 439 247 422 247 c 2
 235 247 l 2
 228 247 223 243 218 229 c 0
 209 202 178 105 177 89 c 0
 176 58 201 39 236 30 c 0
 258 24 268 19 268 10 c 0
 268 2 257 -1 240 -1 c 0
 219 -1 183 1 146 1 c 0
 103 1 61 -5 27 -5 c 0
262 283 m 2
 413 283 l 2
 423 283 427 283 427 288 c 0
 427 290 426 294 425 298 c 2
 349 539 l 2
 345 550 343 557 340 557 c 0
 338 557 337 550 333 540 c 2
 243 298 l 2
 242 295 241 292 241 290 c 0
 241 283 250 283 262 283 c 2
EndSplineSet
EndChar

StartChar: Beta
Encoding: 914 914 53
Width: 594
GlyphClass: 2
Flags: HW
TeX: 657 5
TopAccentHorizontal: 283
HStem: -5 30<19.5875 94.8489> -4 43<228.948 371.978> 340 30<225.16 346.485> 625 32<28.8336 101.496 222.528 353.819>
VStem: 127 88<52.489 333.446 374.289 607.334> 419 94<429.415 574.301> 450 104<113.773 269.367>
LayerCount: 2
Fore
SplineSet
47 -5 m 0xba
 31 -5 19 -1 19 7 c 0
 19 16 29 21 51 25 c 0
 100 35 127 52 127 99 c 2
 127 549 l 2
 127 596 109 617 60 622 c 0
 38 624 29 633 29 642 c 0
 29 650 41 653 57 653 c 0
 112 653 123 651 165 651 c 0
 204 651 220 657 280 657 c 0
 436 657 513 617 513 508 c 0xbc
 513 464 494 427 477 411 c 0
 456 390 442 381 410 369 c 0
 405 367 404 361 410 359 c 0
 471 340 554 310 554 194 c 0
 554 84 491 51 450 30 c 0
 408 9 355 -4 279 -4 c 0x7a
 257 -4 220 0 179 0 c 0
 128 0 103 -5 47 -5 c 0xba
260 371 m 0
 295 371 337 376 376 399 c 0
 389 407 419 436 419 494 c 0
 419 554 395 625 279 625 c 0
 226 625 215 610 215 580 c 2
 215 407 l 2
 215 373 244 371 260 371 c 0
291 39 m 0x7a
 375 39 450 104 450 189 c 0
 450 265 406 301 380 316 c 0
 363 326 327 340 270 340 c 0
 230 340 215 319 215 305 c 2
 215 109 l 2
 215 55 242 39 291 39 c 0x7a
EndSplineSet
EndChar

StartChar: Gamma
Encoding: 915 915 54
Width: 519
GlyphClass: 2
Flags: HW
TeX: 653 5
TopAccentHorizontal: 266
HStem: -5 30<19.5767 96.7605 249.385 325.412> 617 33<32.6704 111.684 226.383 447.343>
VStem: 127 90<46.9812 605.511> 491 26<500.814 557.718>
LayerCount: 2
Fore
SplineSet
47 -5 m 0
 31 -5 19 -1 19 7 c 0
 19 16 28 21 50 25 c 0
 100 34 127 52 127 98 c 2
 127 550 l 2
 127 596 111 613 61 622 c 0
 39 626 29 633 29 642 c 0
 29 650 41 653 57 653 c 0
 110 653 133 650 178 650 c 2
 463 650 l 2
 473 650 491 653 494 653 c 0
 502 653 513 651 513 644 c 0
 514 602 517 550 517 515 c 0
 517 508 512 501 506 501 c 0
 499 501 493 509 491 517 c 0
 482 548 475 576 455 594 c 0
 440 608 419 617 385 617 c 2
 261 617 l 2
 230 617 217 598 217 553 c 2
 217 98 l 2
 217 52 244 35 294 25 c 0
 316 21 326 16 326 7 c 0
 326 -1 314 -5 298 -5 c 0
 245 -5 222 0 177 0 c 0
 128 0 100 -5 47 -5 c 0
EndSplineSet
EndChar

StartChar: Delta
Encoding: 916 916 55
Width: 676
GlyphClass: 2
Flags: HW
TeX: 670 0
TopAccentHorizontal: 331
HStem: 0 56<116.012 494.996>
LayerCount: 2
Fore
SplineSet
50 0 m 2
 38 0 33 9 33 19 c 0
 33 24 34 27 35 31 c 2
 286 564 l 2
 292 579 295 589 298 600 c 1
 304 610 305 626 310 628 c 0
 323 633 331 636 342 642 c 0
 356 648 366 671 371 670 c 0
 376 669 378 663 381 654 c 2
 615 30 l 2
 616 27 616 25 616 22 c 0
 616 11 610 0 600 0 c 2
 50 0 l 2
152 56 m 2
 478 56 l 2
 490 56 495 60 495 68 c 0
 495 78 488 94 479 120 c 2
 335 537 l 2
 331 549 330 554 327 554 c 0
 325 554 322 549 317 538 c 2
 125 104 l 2
 119 90 116 82 116 75 c 0
 116 57 133 56 152 56 c 2
EndSplineSet
EndChar

StartChar: Epsilon
Encoding: 917 917 56
Width: 569
GlyphClass: 2
Flags: HW
TeX: 653 5
TopAccentHorizontal: 288
HStem: -5 30<37.5875 111.847> 1 35<243.845 458.82> 319 34<231.828 390.611> 622 32<44.0505 118.951 242.994 439.954>
VStem: 141 90<45.911 318.122 352.4 605.444> 405 31<241.444 303.134 367.184 424.071> 484 26<521.444 569.399>
LayerCount: 2
Fore
SplineSet
65 -5 m 0xbe
 49 -5 37 -1 37 7 c 0
 37 16 47 21 69 25 c 0xbe
 118 35 141 52 141 99 c 2
 141 549 l 2
 141 596 125 613 75 622 c 0
 53 626 43 633 43 642 c 0
 43 650 55 654 71 654 c 0
 143 654 178 650 245 650 c 0
 292 650 347 651 392 651 c 1
 401 651 475 654 476 654 c 1
 483 654 494 652 495 644 c 0
 502 605 510 565 510 537 c 0
 510 525 502 521 496 521 c 0
 489 521 486 525 484 532 c 0
 476 556 471 579 461 589 c 0
 442 609 419 617 393 617 c 2
 269 617 l 2
 256 617 231 603 231 583 c 2
 231 375 l 2
 231 362 239 352 250 352 c 2
 347 352 l 2
 386 352 395 367 405 403 c 0
 409 418 416 424 424 424 c 0
 429 424 436 419 436 408 c 0
 436 397 433 353 433 336 c 0
 433 315 436 268 436 258 c 0
 436 248 434 240 426 240 c 0
 416 240 408 251 403 271 c 0
 395 303 383 319 357 319 c 2
 264 319 l 2
 242 319 231 315 231 293 c 2
 231 101 l 2
 231 51 251 36 295 36 c 2
 371 36 l 2
 412 36 439 41 460 54 c 0
 481 69 497 92 517 131 c 0
 521 139 526 145 533 144 c 0
 540 143 544 137 544 129 c 0
 544 109 525 41 513 12 c 0
 509 3 506 -5 498 -5 c 0
 383 -5 285 1 183 1 c 0x7e
 139 1 117 -5 65 -5 c 0xbe
EndSplineSet
EndChar

StartChar: Zeta
Encoding: 918 918 57
Width: 603
GlyphClass: 2
Flags: HW
TeX: 676 5
TopAccentHorizontal: 308
HStem: -5 42<192.156 485.486> 608 38<123.61 430.259>
LayerCount: 2
Fore
SplineSet
532 -5 m 0
 429 -5 327 -2 235 -2 c 0
 194 -2 152 -3 113 -3 c 2
 36 -3 l 2
 29 -3 28 12 28 13 c 1
 30 25 64 75 86 106 c 0
 217 288 302 404 426 591 c 0
 428 594 430 597 430 600 c 0
 430 604 427 607 412 608 c 0
 378 609 325 610 275 610 c 0
 238 610 202 610 177 608 c 0
 142 605 95 582 75 533 c 0
 69 520 61 501 45 501 c 0
 38 501 35 506 35 512 c 0
 35 520 39 531 42 539 c 0
 51 563 67 615 70 659 c 0
 71 675 79 677 85 677 c 0
 91 677 107 667 119 662 c 0
 133 656 171 646 205 646 c 2
 330 646 l 2
 408 646 490 648 561 650 c 0
 567 650 576 636 572 631 c 2
 510 546 l 2
 378 366 301 257 182 73 c 0
 179 69 178 63 178 59 c 0
 178 51 183 43 191 42 c 0
 218 39 258 37 299 37 c 0
 345 37 393 40 438 44 c 0
 494 50 532 84 557 151 c 0
 560 159 568 171 578 171 c 0
 584 171 588 167 588 158 c 0
 588 144 562 39 551 12 c 0
 547 3 543 -5 532 -5 c 0
EndSplineSet
EndChar

StartChar: Eta
Encoding: 919 919 58
Width: 814
GlyphClass: 2
Flags: HW
TeX: 653 5
TopAccentHorizontal: 404
HStem: -5 30<37.1631 108.547 256.16 327.07 498.13 567.726 703.846 773.837> 306 40<218.4 596.998> 622 32<43.5481 114.485 243.695 317.09 499.876 571.564 702.915 771.844>
VStem: 128 90<53.4286 306.4 346.4 603.353> 597 90<45.7593 306.4 346.4 603.709>
LayerCount: 2
Fore
SplineSet
65 -5 m 0
 49 -5 37 0 37 8 c 0
 37 17 46 21 68 25 c 0
 117 34 128 52 128 99 c 2
 128 551 l 2
 128 597 125 613 75 622 c 0
 53 626 43 631 43 640 c 0
 43 648 52 654 71 654 c 0
 124 654 139 650 179 650 c 0
 220 650 237 654 290 654 c 0
 309 654 317 648 317 640 c 0
 317 631 308 626 286 622 c 0
 235 612 218 590 218 551 c 2
 218 356 l 2
 218 348 227 346 233 346 c 2
 589 346 l 2
 595 346 597 350 597 359 c 2
 597 552 l 2
 597 588 581 612 531 622 c 0
 509 626 500 631 500 640 c 0
 500 648 510 654 527 654 c 0
 580 654 604 650 648 650 c 0
 684 650 691 654 744 654 c 0
 762 654 772 648 772 640 c 0
 772 631 763 626 741 622 c 0
 691 613 687 591 687 552 c 2
 687 100 l 2
 687 52 694 34 743 25 c 0
 765 21 774 17 774 8 c 0
 774 0 762 -5 746 -5 c 0
 694 -5 679 0 638 0 c 0
 596 0 578 -5 525 -5 c 0
 509 -5 498 1 498 9 c 0
 498 18 506 21 528 25 c 0
 571 34 597 55 597 97 c 2
 597 291 l 2
 597 298 597 306 591 306 c 2
 225 306 l 2
 219 306 218 303 218 295 c 2
 218 105 l 2
 218 63 250 34 297 25 c 0
 319 21 327 18 327 9 c 0
 327 1 316 -5 300 -5 c 0
 247 -5 224 0 179 0 c 0
 136 0 117 -5 65 -5 c 0
EndSplineSet
EndChar

StartChar: Theta
Encoding: 920 920 59
Width: 777
GlyphClass: 2
Flags: HW
TeX: 664 14
TopAccentHorizontal: 382
HStem: -14 41<313.929 495.166> 298 76<298.714 482.714> 623 41<292.228 477.543>
VStem: 50 106<218.535 443.5> 621 106<207.077 453.502>
LayerCount: 2
Fore
SplineSet
388 -14 m 0
 210 -14 50 128 50 319 c 0
 50 499 168 660 389 664 c 1
 581 664 727 525 727 335 c 0
 727 155 609 -14 388 -14 c 0
401 27 m 0
 547 27 621 135 621 305 c 0
 621 494 538 623 382 623 c 0
 238 623 156 491 156 349 c 0
 156 177 256 27 401 27 c 0
504 243 m 0
 497 243 491 255 486 269 c 0
 480 285 465 298 444 298 c 2
 327 298 l 2
 297 298 273 296 264 281 c 0
 258 271 244 245 229 245 c 0
 223 245 222 251 222 258 c 0
 222 264 224 273 227 279 c 0
 244 315 264 362 267 410 c 0
 268 425 276 428 282 428 c 0
 287 428 292 421 295 409 c 0
 300 388 308 374 325 374 c 2
 469 374 l 2
 490 374 510 384 519 396 c 0
 530 411 538 419 545 419 c 0
 550 419 560 412 551 392 c 0
 537 358 524 315 519 267 c 0
 518 256 516 243 504 243 c 0
EndSplineSet
EndChar

StartChar: Iota
Encoding: 921 921 60
Width: 344
GlyphClass: 2
Flags: HW
TeX: 653 5
TopAccentHorizontal: 176
HStem: -5 30<19.5767 96.7605 249.385 325.412> 622 32<29.6638 104.815 241.547 317.99>
VStem: 127 90<46.9812 603.642>
LayerCount: 2
Fore
SplineSet
47 -5 m 0
 31 -5 19 -1 19 7 c 0
 19 16 28 21 50 25 c 0
 100 34 127 52 127 98 c 2
 127 550 l 2
 127 596 110 613 60 622 c 0
 38 626 29 633 29 642 c 0
 29 650 41 654 57 654 c 0
 110 654 132 650 177 650 c 0
 220 650 238 654 291 654 c 0
 307 654 319 650 319 642 c 0
 319 633 309 626 287 622 c 0
 236 612 217 596 217 550 c 2
 217 98 l 2
 217 52 244 35 294 25 c 0
 316 21 326 16 326 7 c 0
 326 -1 314 -5 298 -5 c 0
 245 -5 222 0 177 0 c 0
 128 0 100 -5 47 -5 c 0
EndSplineSet
EndChar

StartChar: Kappa
Encoding: 922 922 61
Width: 694
GlyphClass: 2
Flags: HW
TeX: 655 5
TopAccentHorizontal: 360
HStem: -5 30<31.5994 106.119 251.441 318.835 411.808 464.091 621.458 700.64> 320 23<219.512 241.327> 622 32<31.8797 107.061 235.889 305.19 414.616 463.3 588.301 685.817>
VStem: 129 90<50.7407 319.79 343.209 605.228>
LayerCount: 2
Fore
SplineSet
60 -5 m 0
 43 -5 31 -1 31 7 c 0
 31 16 41 21 63 25 c 0
 113 34 129 52 129 101 c 2
 129 551 l 2
 129 597 113 613 63 622 c 0
 41 626 31 633 31 642 c 0
 31 650 43 654 59 654 c 0
 112 654 131 651 175 651 c 0
 213 651 225 654 278 654 c 0
 294 654 306 650 306 642 c 0
 306 633 297 626 275 622 c 0
 224 612 219 590 219 551 c 2
 219 362 l 2
 219 356 220 343 225 343 c 0
 232 343 245 353 252 361 c 2
 451 565 l 2
 461 575 466 586 466 595 c 0
 466 606 458 616 444 619 c 0
 422 625 414 631 414 640 c 0
 414 648 426 651 442 651 c 2
 498 651 l 2
 556 651 644 655 665 655 c 0
 678 655 688 650 688 643 c 0
 688 634 677 627 655 623 c 0
 603 614 548 596 503 558 c 0
 433 499 382 448 313 374 c 0
 307 369 311 362 318 355 c 2
 559 95 l 2
 600 49 612 37 668 25 c 0
 690 20 701 16 701 7 c 0
 701 -1 689 -5 671 -5 c 0
 612 -5 583 0 527 0 c 0
 499 0 485 -1 440 -1 c 0
 424 -1 412 2 412 10 c 0
 412 19 420 24 438 28 c 0
 459 33 468 40 468 49 c 0
 468 57 460 66 452 75 c 2
 247 303 l 2
 239 311 229 320 224 320 c 0
 219 320 219 306 219 299 c 0
 219 236 221 187 224 109 c 0
 226 67 237 35 287 25 c 0
 309 21 319 16 319 7 c 0
 319 -1 307 -5 290 -5 c 0
 235 -5 225 2 187 2 c 0
 139 2 116 -5 60 -5 c 0
EndSplineSet
EndChar

StartChar: Lambda
Encoding: 923 923 62
Width: 694
GlyphClass: 2
Flags: HW
TeX: 670 5
TopAccentHorizontal: 348
HStem: -5 36<-0.781837 70.0563 194.859 266.737 395.905 468.428 615.545 696.676> 652 20G<380.3 385.9>
LayerCount: 2
Fore
SplineSet
27 -5 m 0
 10 -5 -2 -1 -2 8 c 0
 -2 17 9 24 30 31 c 0
 65 41 97 58 116 107 c 2
 300 573 l 2
 303 583 308 592 311 605 c 0
 314 617 313 634 315 635 c 0
 329 639 339 646 352 651 c 0
 369 659 377 672 383 672 c 0
 388 672 391 667 394 657 c 2
 569 125 l 2
 594 50 627 37 667 29 c 0
 689 25 699 16 699 6 c 0
 699 -2 687 -5 671 -5 c 0
 641 -5 574 1 529 1 c 0
 490 1 450 0 424 -0 c 0
 408 0 396 3 396 11 c 0
 396 20 410 26 427 31 c 0
 478 44 488 61 476 104 c 2
 348 540 l 2
 344 551 342 557 339 557 c 0
 337 557 336 551 332 541 c 2
 179 103 l 2
 166 65 198 40 236 30 c 0
 258 24 267 19 267 10 c 0
 267 2 256 -1 239 -1 c 0
 218 -1 183 1 146 1 c 0
 102 1 61 -5 27 -5 c 0
EndSplineSet
EndChar

StartChar: Mu
Encoding: 924 924 63
Width: 904
GlyphClass: 2
Flags: HW
TeX: 656 10
TopAccentHorizontal: 442
HStem: -5 30<19.7656 82.2918 197.458 263.18 581.48 649.065 793.837 868.202> 624 32<42.7889 114.434 778.941 846.425>
VStem: 653 87<310.064 455.7> 665 97<47.6202 352.232>
LayerCount: 2
Fore
SplineSet
47 -5 m 0xe0
 30 -5 19 -1 19 7 c 0
 19 16 29 21 51 25 c 0
 84 32 106 57 113 103 c 0
 136 271 152 434 154 527 c 1
 154 535 154 552 153 560 c 1
 152 573 150 584 137 595 c 0
 114 614 93 618 64 624 c 0
 51 627 42 635 42 644 c 0
 42 654 56 656 75 656 c 0
 103 656 199 648 230 648 c 0
 239 648 247 641 250 631 c 0
 257 607 263 580 273 555 c 2
 429 161 l 2
 433 151 445 148 450 158 c 2
 640 558 l 1
 646 583 655 615 659 635 c 0
 661 643 664 648 669 648 c 2
 706 648 l 2
 748 648 801 656 826 656 c 0
 833 656 848 655 848 646 c 0
 848 637 841 633 822 625 c 0
 805 619 784 610 767 603 c 0
 750 596 740 582 740 563 c 0xe0
 741 376 753 249 762 95 c 0
 764 55 788 34 837 25 c 0
 859 21 869 16 869 7 c 0
 869 -1 857 -5 841 -5 c 0
 788 -5 764 0 719 0 c 0
 678 0 662 -5 609 -5 c 0
 593 -5 581 -1 581 7 c 0
 581 16 591 22 613 25 c 0
 653 31 665 50 665 96 c 0xd0
 664 237 659 331 653 463 c 0
 651 476 645 475 638 463 c 2
 413 -4 l 2
 409 -12 397 -12 394 -3 c 0
 340 153 280 298 207 469 c 0
 204 477 195 476 194 468 c 0
 176 333 165 234 165 102 c 0
 165 66 190 33 232 25 c 0
 254 21 264 16 264 7 c 0
 264 -1 251 -5 235 -5 c 0
 181 -5 177 0 140 0 c 0
 103 0 95 -5 47 -5 c 0xe0
EndSplineSet
EndChar

StartChar: Nu
Encoding: 925 925 64
Width: 794
GlyphClass: 2
Flags: HW
TeX: 658 17
TopAccentHorizontal: 397
HStem: -5 31<33.8747 93.945 207.313 276.622> 619 32<542.655 616.854 702.775 782.178> 620 38<13.2985 86.6509>
VStem: 140 38<307.279 497.191> 642 44<145.405 600.954>
LayerCount: 2
Fore
SplineSet
670 -17 m 0xd8
 657 -17 615 2 582 47 c 1
 552 84 246 442 211 482 c 0
 202 493 196 497 191 497 c 0
 184 497 183 484 183 476 c 0
 181 378 179 225 179 105 c 0
 179 68 195 34 245 25 c 0
 267 21 277 16 277 7 c 0
 277 -1 265 -5 249 -5 c 0
 195 -5 190 0 153 0 c 0
 116 0 109 -5 61 -5 c 0
 45 -5 33 -1 33 7 c 0
 33 16 43 20 65 26 c 0
 102 36 118 67 122 108 c 0
 130 183 140 342 140 507 c 0
 140 578 101 601 43 620 c 0
 36 622 12 632 12 644 c 0
 12 656 27 658 35 658 c 0xb8
 109 656 123 653 195 653 c 0
 207 653 211 646 218 637 c 0
 249 598 578 201 609 165 c 0
 614 159 624 145 632 145 c 0
 637 145 641 152 642 166 c 0
 643 210 644 391 644 563 c 0
 643 590 608 614 583 619 c 0
 561 623 541 630 541 639 c 0
 541 647 564 651 580 651 c 1
 588 651 636 650 642 650 c 1
 689 650 696 653 756 653 c 0
 773 653 785 650 785 642 c 0
 785 633 774 626 752 622 c 0
 702 613 691 601 689 567 c 0
 688 535 686 263 686 112 c 0
 686 64 692 23 692 10 c 0
 692 -13 681 -17 670 -17 c 0xd8
EndSplineSet
EndChar

StartChar: Xi
Encoding: 926 926 65
Width: 646
GlyphClass: 2
Flags: HW
TeX: 675 8
TopAccentHorizontal: 327
HStem: -8 21G<40.3003 131.6> 0 72<104.212 543.975> 303 73<193.418 439.73> 580 70<134.549 517.751> 654 20G<583.6 590.2>
VStem: 72 27<91.3695 163.927> 444 29<243.93 294.391> 465 28<388.607 417.609> 531 34<503.811 560.934>
LayerCount: 2
Fore
SplineSet
548 504 m 0x3d80
 538 504 533 518 531 529 c 0
 526 555 508 580 456 580 c 2
 186 580 l 2
 132 580 112 572 90 539 c 0
 83 528 67 512 56 512 c 0
 50 512 47 516 47 522 c 0
 47 526 49 532 52 537 c 0
 71 577 85 614 96 657 c 0
 100 670 110 676 116 676 c 0
 122 676 128 669 134 664 c 0
 145 653 177 650 205 650 c 2
 493 650 l 2
 523 650 554 656 566 664 c 0
 573 669 580 674 588 674 c 0
 593 674 597 669 597 662 c 0
 597 660 596 657 595 654 c 0
 580 617 571 569 565 531 c 0
 563 519 558 504 548 504 c 0x3d80
463 242 m 0
 457 242 447 255 444 266 c 0x3e80
 439 288 432 303 405 303 c 2
 221 303 l 2
 188 303 180 290 168 266 c 0
 165 259 155 243 147 243 c 0
 141 243 138 249 138 258 c 0
 138 263 139 269 140 274 c 0
 146 298 161 385 163 403 c 0
 165 422 171 426 176 426 c 0
 181 426 188 419 190 407 c 0
 192 392 211 376 226 376 c 2
 426 376 l 2
 440 376 457 390 465 403 c 0
 472 414 476 419 484 419 c 0
 489 419 495 414 493 404 c 0x3d80
 480 350 473 299 473 267 c 0x3e80
 473 256 471 242 463 242 c 0
44 -8 m 2xbc80
 36 -8 29 0 29 7 c 0
 29 20 39 44 49 68 c 0
 58 89 69 122 72 140 c 0
 75 156 80 164 87 164 c 0
 95 164 99 153 99 145 c 0
 102 93 95 72 159 72 c 2
 477 72 l 2x7c80
 530 72 565 104 580 140 c 0
 584 148 595 169 608 169 c 0
 615 169 617 162 617 156 c 2
 617 147 l 2
 617 126 586 55 581 13 c 0xbc80
 580 4 577 -8 566 -8 c 1
 565 -8 544 0 458 0 c 2
 132 0 l 2x7c80
 81 0 44 -8 44 -8 c 2xbc80
EndSplineSet
EndChar

StartChar: Omicron
Encoding: 927 927 66
Width: 767
GlyphClass: 2
Flags: HW
TeX: 664 14
TopAccentHorizontal: 382
HStem: -14 41<305.485 492.541> 621 43<271.857 464.017>
VStem: 45 105<212.171 438.915> 617 105<211.242 433.802>
LayerCount: 2
Fore
SplineSet
379 -14 m 0
 202 -14 45 118 45 315 c 0
 45 495 165 664 388 664 c 0
 565 664 722 532 722 335 c 0
 722 155 602 -14 379 -14 c 0
394 27 m 0
 542 27 617 130 617 286 c 0
 617 468 535 621 372 621 c 0
 226 621 150 520 150 365 c 0
 150 182 231 27 394 27 c 0
EndSplineSet
EndChar

StartChar: Pi
Encoding: 928 928 67
Width: 828
GlyphClass: 2
Flags: HW
TeX: 653 5
TopAccentHorizontal: 408
HStem: -5 30<37.5767 114.156 268.588 342.623 482.377 555.975 710.591 787.332> 610 39<234.4 589.048> 622 32<47.6638 122.284 704.298 780.136>
VStem: 144 90<48.9594 605.425> 589 91<48.691 604.527>
LayerCount: 2
Fore
SplineSet
65 -5 m 0xd8
 49 -5 37 -1 37 7 c 0
 37 16 46 21 68 25 c 0
 117 34 144 52 144 98 c 2
 144 550 l 2
 144 596 128 613 78 622 c 0
 56 626 47 633 47 642 c 0
 47 650 59 654 75 654 c 0xb8
 128 654 144 649 185 649 c 0
 277 649 339 649 413 649 c 0xd8
 486 649 549 650 640 650 c 0
 683 650 700 654 753 654 c 0
 769 654 781 650 781 642 c 0
 781 633 772 626 750 622 c 0xb8
 700 613 680 596 680 550 c 2
 680 98 l 2
 680 52 708 34 757 25 c 0
 779 21 788 16 788 7 c 0
 788 -1 776 -5 760 -5 c 0
 708 -5 685 0 640 0 c 0
 591 0 562 -5 509 -5 c 0
 493 -5 482 -1 482 7 c 0
 482 16 491 21 513 25 c 0
 563 35 588 58 589 99 c 0
 593 265 590 432 589 598 c 0
 589 605 585 606 580 606 c 0
 502 606 459 610 397 610 c 0
 346 610 305 608 241 606 c 0
 235 606 234 603 234 595 c 0
 228 430 228 264 234 99 c 0
 235 58 262 35 312 25 c 0
 334 21 343 16 343 7 c 0
 343 -1 332 -5 316 -5 c 0
 263 -5 240 0 195 0 c 0
 146 0 117 -5 65 -5 c 0xd8
EndSplineSet
EndChar

StartChar: Rho
Encoding: 929 929 68
Width: 560
GlyphClass: 2
Flags: HW
TeX: 658 5
TopAccentHorizontal: 276
HStem: -5 30<24.5767 100.368 247.472 316.623> 251 32<263.99 375.313> 628 30<35.406 92.5213 229.373 355.022>
VStem: 128 90<45.7593 603.574> 441 95<370.689 559.308>
LayerCount: 2
Fore
SplineSet
52 -5 m 0
 36 -5 24 -1 24 7 c 0
 24 16 33 21 55 25 c 0
 105 34 128 52 128 100 c 2
 128 525 l 2
 128 583 117 613 67 622 c 0
 45 626 35 633 35 642 c 0
 35 650 46 653 63 653 c 0
 116 653 125 652 166 652 c 0
 207 652 248 658 281 658 c 0
 434 658 536 591 536 478 c 0
 536 355 463 251 309 251 c 0
 279 251 263 262 263 271 c 0
 263 277 272 285 279 285 c 0
 286 285 299 283 325 283 c 0
 402 283 441 353 441 469 c 0
 441 577 375 628 281 628 c 0
 243 628 218 616 218 585 c 2
 218 110 l 2
 218 63 235 34 286 25 c 0
 308 21 317 16 317 7 c 0
 317 -1 306 -5 290 -5 c 0
 237 -5 222 2 184 2 c 0
 134 2 105 -5 52 -5 c 0
EndSplineSet
EndChar

StartChar: Sigma
Encoding: 931 931 69
Width: 604
GlyphClass: 2
Flags: HW
TeX: 678 6
TopAccentHorizontal: 300
HStem: -6 21G<42.6001 71.1001> 0 77<158.105 525.23> 614 32<171.403 387.98>
LayerCount: 2
Fore
SplineSet
48 -6 m 0xa0
 37 -6 25 0 25 11 c 0
 25 22 260 242 322 311 c 0
 326 316 325 319 321 324 c 0
 225 414 27 618 27 630 c 0
 27 644 37 649 44 649 c 0
 118 647 193 646 282 646 c 0
 331 646 383 646 438 647 c 0
 468 647 490 654 505 664 c 0
 515 671 530 678 536 678 c 0
 542 678 551 675 552 660 c 0
 556 613 566 559 569 534 c 0
 570 526 571 519 570 513 c 0
 569 505 566 499 558 500 c 0
 543 504 540 525 533 538 c 1
 512 584 493 601 444 604 c 0
 392 608 257 614 190 614 c 0
 175 614 171 611 171 607 c 0
 171 604 173 601 175 598 c 0
 207 557 325 438 410 370 c 0
 422 360 415 352 409 346 c 1
 394 332 174 115 159 100 c 1
 151 92 156 84 167 83 c 0
 227 78 360 77 447 77 c 0
 495 77 527 86 554 136 c 0
 564 153 573 169 586 169 c 0
 592 169 596 163 596 158 c 1
 594 154 l 1
 576 103 557 38 552 12 c 0
 550 3 548 -5 538 -5 c 0
 508 -5 486 0 458 0 c 0
 394 1 332 1 275 1 c 0
 233 1 194 1 158 0 c 0x60
 108 -1 94 -6 48 -6 c 0xa0
EndSplineSet
EndChar

StartChar: Tau
Encoding: 932 932 70
Width: 675
GlyphClass: 2
Flags: HW
TeX: 694 5
TopAccentHorizontal: 348
HStem: -5 30<186.49 262.468 419.102 494.001> 610 33<110.879 286.725 393.84 601.558>
VStem: 295 90<48.3337 605.594> 622 36<520.062 591.468>
LayerCount: 2
Fore
SplineSet
214 -5 m 0
 198 -5 186 -1 186 7 c 0
 186 16 196 21 218 25 c 0
 268 34 295 54 295 101 c 2
 295 493 l 2
 295 582 289 602 274 605 c 0
 256 609 238 610 207 610 c 2
 163 610 l 2
 130 610 93 596 78 569 c 0
 72 558 51 529 35 529 c 0
 29 529 27 536 27 543 c 0
 27 549 29 557 32 563 c 0
 52 603 58 628 64 671 c 0
 67 692 76 695 82 695 c 0
 88 695 101 673 108 662 c 0
 117 648 152 643 179 643 c 2
 534 643 l 2
 578 643 604 649 625 658 c 0
 642 667 650 679 666 679 c 0
 671 679 673 667 673 657 c 0
 673 650 670 636 669 630 c 0
 662 593 658 592 658 565 c 2
 658 552 l 2
 658 539 652 520 642 520 c 0
 632 520 627 534 622 560 c 0
 616 591 592 610 529 610 c 2
 434 610 l 2
 390 610 385 604 385 496 c 2
 385 102 l 2
 385 55 413 35 463 25 c 0
 485 21 495 16 495 7 c 0
 495 -1 483 -5 467 -5 c 0
 414 -5 390 0 345 0 c 0
 296 0 267 -5 214 -5 c 0
EndSplineSet
EndChar

StartChar: Upsilon
Encoding: 933 933 71
Width: 740
GlyphClass: 2
Flags: HW
TeX: 650 5
TopAccentHorizontal: 371
HStem: -5 30<213.977 286.436 448.604 519.813> 598 54<94.9195 213.705 529.919 672.598>
VStem: 321 90<51.8508 437.082>
LayerCount: 2
Fore
SplineSet
241 -5 m 0
 225 -5 213 -1 213 7 c 0
 213 16 223 21 245 25 c 0
 295 34 321 60 321 107 c 2
 322 289 l 2
 322 406 273 598 149 598 c 0
 97 598 54 576 34 552 c 0
 32 550 30 548 27 548 c 0
 23 548 20 551 20 554 c 0
 20 560 25 566 33 578 c 0
 55 607 110 652 172 652 c 0
 301 652 352 515 367 477 c 0
 369 472 370 467 372 467 c 0
 375 467 376 473 378 477 c 0
 395 515 464 652 591 652 c 0
 650 652 692 622 719 592 c 0
 724 587 729 577 729 572 c 0
 729 568 725 565 721 565 c 0
 719 565 716 567 713 569 c 0
 688 588 647 598 606 598 c 0
 475 598 411 446 411 290 c 2
 411 107 l 2
 411 63 439 35 489 25 c 0
 511 21 520 16 520 7 c 0
 520 -1 509 -5 493 -5 c 0
 440 -5 417 0 372 0 c 0
 323 0 294 -5 241 -5 c 0
EndSplineSet
EndChar

StartChar: Phi
Encoding: 934 934 72
Width: 749
GlyphClass: 2
Flags: HW
TeX: 672 5
TopAccentHorizontal: 387
HStem: -5 30<239.479 317.734 439.265 518.613> 94 36<273.841 333.6 423 491.779> 549 33<258.139 333.6 423 490.657> 641 32<249.479 320.793 435.15 511.19>
VStem: 40 98<257.094 427.893> 334 89<37.1374 94 129.6 548.2 581.6 630.359> 611 98<244.367 444.608>
LayerCount: 2
Fore
SplineSet
267 -5 m 0
 251 -5 239 -1 239 7 c 0
 239 16 248 21 270 25 c 0
 320 34 334 42 334 77 c 2
 334 94 l 1
 170 101 40 179 40 328 c 0
 40 482 166 575 334 582 c 1
 334 599 l 2
 334 620 319 633 280 641 c 0
 258 645 249 652 249 661 c 0
 249 669 260 673 276 673 c 0
 316 673 339 669 384 669 c 0
 427 669 455 673 484 673 c 0
 500 673 512 669 512 661 c 0
 512 652 503 644 481 641 c 0
 437 634 423 620 423 599 c 2
 423 582 l 1
 591 579 709 495 709 348 c 0
 709 196 594 105 423 94 c 1
 423 77 l 2
 423 43 440 33 488 25 c 0
 510 21 519 16 519 7 c 0
 519 -1 508 -5 492 -5 c 0
 439 -5 429 0 384 0 c 0
 339 0 307 -5 267 -5 c 0
334 130 m 1
 334 549 l 1
 215 540 138 469 138 360 c 0
 138 239 210 148 334 130 c 1
423 127 m 1
 533 139 611 224 611 332 c 0
 611 465 549 536 423 548 c 1
 423 127 l 1
EndSplineSet
EndChar

StartChar: Chi
Encoding: 935 935 73
Width: 713
GlyphClass: 2
Flags: HW
TeX: 656 5
TopAccentHorizontal: 347
HStem: -5 33<-3.53218 66.5552 203.223 267.657 392.614 452.267 634.353 703.776> 622 33<19.3788 88.0289 252.368 326.219 447.333 516.633 632.832 698.169>
LayerCount: 2
Fore
SplineSet
24 -5 m 0
 7 -5 -5 -3 -5 6 c 0
 -5 15 6 21 27 28 c 0
 62 38 126 71 168 124 c 2
 292 280 l 2
 306 299 315 315 296 342 c 2
 161 532 l 2
 114 597 85 612 50 622 c 0
 29 629 18 634 18 643 c 0
 18 651 30 655 46 655 c 0
 83 655 143 650 195 650 c 0
 236 650 277 652 298 652 c 0
 314 652 327 649 327 641 c 0
 327 632 316 628 294 621 c 0
 260 611 242 606 242 589 c 0
 242 578 252 559 273 530 c 2
 364 402 l 2
 378 382 384 384 395 399 c 2
 499 536 l 2
 515 557 525 575 525 588 c 0
 525 603 512 614 480 620 c 0
 466 623 447 631 447 640 c 0
 447 648 459 651 476 651 c 0
 502 651 528 650 559 650 c 0
 598 650 642 656 671 656 c 0
 688 656 700 653 700 644 c 0
 700 635 690 630 668 624 c 0
 631 614 584 565 543 516 c 2
 425 375 l 2
 407 354 405 350 413 334 c 2
 569 109 l 2
 598 67 636 36 672 27 c 0
 694 21 705 15 705 6 c 0
 705 -2 694 -5 677 -5 c 0
 643 -5 575 1 526 1 c 0
 485 1 447 0 421 -0 c 0
 405 0 393 3 393 11 c 0
 393 20 411 27 425 31 c 0
 446 37 471 52 471 77 c 0
 471 87 468 97 459 109 c 2
 355 260 l 2
 344 275 338 276 330 265 c 2
 200 97 l 2
 192 87 190 77 190 70 c 0
 190 51 208 36 235 30 c 0
 257 24 268 19 268 10 c 0
 268 2 256 -1 239 -1 c 0
 218 -1 182 1 148 1 c 0
 104 1 58 -5 24 -5 c 0
EndSplineSet
EndChar

StartChar: Psi
Encoding: 936 936 74
Width: 760
GlyphClass: 2
Flags: HW
TeX: 653 5
TopAccentHorizontal: 376
HStem: -5 30<225.577 302.697 455.384 531.412> 561 61<14.1717 72.4629 688.938 747.914> 622 32<235.664 310.748 447.547 523.99>
VStem: 333 90<47.0721 288.154 318.282 603.709>
LayerCount: 2
Fore
SplineSet
253 -5 m 0xd0
 237 -5 225 -1 225 7 c 0
 225 16 234 21 256 25 c 0
 306 34 333 52 333 99 c 2
 333 268 l 2
 333 293 327 287 319 288 c 0
 200 301 159 381 126 451 c 0
 99 509 77 561 18 561 c 0xd0
 5 561 0 566 0 573 c 0
 0 596 30 621 77 622 c 0
 155 624 180 549 204 474 c 0
 227 401 253 324 327 317 c 0
 332 316 333 321 333 336 c 2
 333 551 l 2
 333 597 316 613 266 622 c 0
 244 626 235 633 235 642 c 0
 235 650 247 654 263 654 c 0
 316 654 338 650 383 650 c 0
 426 650 444 654 497 654 c 0
 513 654 525 650 525 642 c 0
 525 633 515 626 493 622 c 0xb0
 442 612 423 596 423 551 c 2
 423 334 l 2
 423 319 423 316 433 317 c 0
 502 323 527 392 551 462 c 0
 579 540 605 622 693 622 c 0
 732 622 758 600 760 573 c 0
 760 566 755 561 742 561 c 0
 687 561 657 509 642 474 c 0
 595 361 557 302 434 288 c 0
 423 287 423 276 423 263 c 2
 423 99 l 2
 423 52 450 35 500 25 c 0
 522 21 532 16 532 7 c 0
 532 -1 520 -5 504 -5 c 0
 451 -5 428 0 383 0 c 0
 334 0 306 -5 253 -5 c 0xd0
EndSplineSet
EndChar

StartChar: Omega
Encoding: 937 937 75
Width: 836
GlyphClass: 2
Flags: HW
TeX: 664 5
TopAccentHorizontal: 421
HStem: 1 77<97.7247 275.427 556 733.181> 630 34<342.506 483.13>
VStem: 100 109<244.612 460.612> 628 109<258.189 457.65>
LayerCount: 2
Fore
SplineSet
98 -5 m 0
 88 -5 85 3 82 12 c 0
 73 41 39 116 39 140 c 0
 39 146 44 150 49 150 c 0
 61 150 70 137 79 122 c 0
 100 83 138 78 188 78 c 2
 267 79 l 2
 275 79 276 83 275 89 c 1
 171 138 100 233 100 351 c 0
 100 528 247 664 424 664 c 0
 587 664 737 536 737 369 c 0
 737 248 667 147 563 93 c 0
 558 90 550 79 556 78 c 2
 652 78 l 2
 705 77 741 94 761 131 c 0
 770 147 778 159 791 159 c 0
 796 159 801 155 801 149 c 0
 801 126 762 45 755 12 c 0
 753 3 749 -5 739 -5 c 0
 712 -5 689 -0 659 -0 c 0
 623 0 601 1 582 1 c 1
 556 1 526 0 481 0 c 1
 475 0 474 4 474 11 c 0
 474 30 486 63 504 77 c 0
 566 124 628 227 628 333 c 0
 628 473 547 630 412 630 c 0
 285 630 209 498 209 373 c 0
 209 249 255 133 338 71 c 0
 353 60 360 36 363 11 c 0
 364 6 362 0 355 0 c 1
 310 0 281 1 254 1 c 1
 237 1 214 0 178 -0 c 0
 148 -0 125 -5 98 -5 c 0
EndSplineSet
EndChar

StartChar: alpha
Encoding: 945 945 76
Width: 458
GlyphClass: 2
Flags: HW
TeX: 419 15
TopAccentHorizontal: 261
HStem: -15 87<332.922 420.309> -15 47<90.0361 172.136> 320 85<157.287 237.111>
VStem: 35 43<40.5604 210.601> 332 67<314.445 411.141>
LayerCount: 2
Fore
SplineSet
126 -15 m 0x78
 74 -15 35 51 35 128 c 0
 35 250 107 405 192 405 c 0
 239 405 265 352 289 259 c 0
 290 255 292 255 293 259 c 0
 308 304 322 353 332 399 c 0
 336 415 340 423 356 423 c 0
 380 423 399 377 399 361 c 0
 399 330 361 231 307 142 c 1
 324 91 351 72 376 72 c 0
 406 72 432 94 444 107 c 0
 449 112 452 115 456 114 c 0
 465 113 464 105 464 96 c 0
 464 25 405 -15 365 -15 c 0xb8
 333 -15 295 26 285 110 c 1
 238 42 181 -15 126 -15 c 0x78
117 32 m 0x78
 167 32 214 85 253 162 c 0
 261 178 270 197 277 216 c 1
 249 292 235 320 203 320 c 0
 148 320 78 207 78 111 c 0
 78 67 95 32 117 32 c 0x78
EndSplineSet
EndChar

StartChar: beta
Encoding: 946 946 77
Width: 512
GlyphClass: 2
Flags: HW
TeX: 705 285
TopAccentHorizontal: 246
HStem: -14 69<199.889 344.561> 632 73<186.822 313.366>
VStem: 60 45<-149.519 70.5933 110.638 531.903> 355 34<428.597 583.639> 422 54<126.68 254.416>
LayerCount: 2
Fore
SplineSet
114 -285 m 0
 80 -285 61 -244 61 -150 c 1
 61 -104 60 363 60 388 c 1
 60 562 101 705 241 705 c 0
 334 705 389 621 389 521 c 0
 389 439 364 375 349 354 c 0
 347 352 345 347 345 343 c 0
 345 340 353 336 363 331 c 0
 439 295 476 246 476 165 c 0
 476 58 383 -14 276 -14 c 0
 214 -14 161 28 134 60 c 0
 128 67 123 71 120 71 c 0
 114 71 105 62 105 54 c 2
 105 -74 l 2
 105 -155 175 -205 175 -231 c 0
 175 -260 134 -285 114 -285 c 0
263 55 m 0
 344 55 422 115 422 194 c 0
 422 243 384 292 340 292 c 0
 324 292 304 271 289 254 c 0
 274 238 258 222 246 225 c 0
 234 228 200 260 201 281 c 0
 202 304 247 318 270 337 c 0
 328 385 355 446 355 528 c 0
 355 571 319 632 258 632 c 0
 160 632 106 540 106 416 c 2
 105 164 l 2
 105 94 197 55 263 55 c 0
EndSplineSet
EndChar

StartChar: gamma
Encoding: 947 947 78
Width: 434
GlyphClass: 2
Flags: HW
TeX: 426 285
TopAccentHorizontal: 237
HStem: 326 91<24.4176 109.196>
VStem: 197 37<-37.7902 41.1042> 352 67<329.303 413.799>
LayerCount: 2
Fore
SplineSet
186 -285 m 0
 160 -285 128 -253 128 -225 c 0
 128 -157 175 -49 187 -21 c 0
 201 11 199 55 197 85 c 0
 187 225 134 323 53 326 c 0
 12 327 -12 303 -20 303 c 0
 -27 303 -30 305 -30 316 c 0
 -30 348 21 417 89 417 c 0
 180 417 224 263 224 112 c 0
 224 107 224 99 229 99 c 0
 233 99 236 101 239 106 c 0
 291 197 337 336 352 409 c 0
 354 417 360 428 368 428 c 0
 392 428 419 397 419 362 c 0
 419 326 315 166 241 21 c 0
 236 10 234 -6 234 -10 c 0
 233 -39 220 -231 216 -253 c 0
 213 -273 198 -285 186 -285 c 0
EndSplineSet
EndChar

StartChar: delta
Encoding: 948 948 79
Width: 424
GlyphClass: 2
Flags: HW
TeX: 701 14
TopAccentHorizontal: 225
HStem: -14 57<127.434 226.646> 336 60<189.345 286.5> 623 78<136.2 240.103>
VStem: 35 48<79.8741 226.376> 80 73<601.678 664.2> 311 73<141.193 323.89>
LayerCount: 2
Fore
SplineSet
196 -14 m 0xec
 127 -14 35 60 35 162 c 0xf4
 35 254 102 396 193 396 c 0
 214 396 252 372 266 364 c 0
 275 359 282 363 279 367 c 0
 244 423 174 519 129 566 c 0
 118 578 80 624 80 656 c 0
 80 672 122 701 151 701 c 0
 260 701 414 586 414 480 c 0
 414 474 410 469 404 469 c 0
 386 469 343 549 267 593 c 0
 236 611 204 623 166 623 c 0
 162 623 153 621 153 615 c 0
 153 604 166 580 176 567 c 0
 207 530 264 462 309 410 c 0
 343 372 388 315 385 232 c 0
 381 81 279 -14 196 -14 c 0xec
169 43 m 0
 228 43 311 125 311 231 c 0
 311 265 303 336 269 336 c 0
 170 336 83 247 83 132 c 0
 83 79 130 43 169 43 c 0
EndSplineSet
EndChar

StartChar: epsilon
Encoding: 949 949 80
Width: 340
GlyphClass: 2
Flags: HW
TeX: 412 14
TopAccentHorizontal: 170
HStem: -14 71<101.479 240.142> 178 86<178.906 261.736> 345 69<136.355 270.393>
VStem: 45 52<219.785 309.552> 45 43<72.8488 148.43>
LayerCount: 2
Fore
SplineSet
161 -14 m 0xe8
 100 -14 45 27 45 84 c 0xe8
 45 137 82 171 93 179 c 0
 102 186 105 192 95 197 c 0
 68 210 45 223 45 270 c 0
 45 349 132 415 228 415 c 0
 251 415 275 400 275 381 c 0
 275 364 252 345 227 345 c 0
 148 345 97 312 97 253 c 0xf0
 97 232 111 218 128 218 c 0
 148 218 204 264 234 264 c 0
 257 264 276 248 276 232 c 0
 276 202 243 178 218 178 c 0
 199 178 170 178 143 169 c 0
 111 158 88 131 88 104 c 0
 88 83 118 57 157 57 c 0
 202 57 260 85 284 105 c 0
 296 114 304 120 306 120 c 0
 314 120 317 116 317 103 c 0
 317 40 240 -14 161 -14 c 0xe8
EndSplineSet
EndChar

StartChar: zeta
Encoding: 950 950 81
Width: 335
GlyphClass: 2
Flags: HW
TeX: 721 199
TopAccentHorizontal: 194
HStem: -198 76<130.654 203.669> -5 85<99.8908 250.942> 3 83<148.142 284.737> 550 28<143.875 168.996>
VStem: 35 41<105.344 298.839> 54 73<587.337 687.68> 285 36<-55.563 23.8999>
LayerCount: 2
Fore
SplineSet
170 -198 m 0xba
 148 -198 116 -168 116 -147 c 0
 116 -128 125 -125 139 -122 c 0
 215 -108 285 -59 285 -22 c 0
 285 -5 272 3 249 3 c 0xba
 232 3 159 -5 138 -5 c 0
 62 -5 35 95 35 178 c 0xda
 35 262 75 390 158 519 c 0
 169 536 169 539 169 544 c 0
 169 550 164 550 155 550 c 0
 105 551 54 578 54 636 c 0
 54 683 105 723 153 723 c 0
 160 723 161 723 161 713 c 0
 161 710 158 706 153 702 c 0
 143 690 128 672 127 641 c 0xd6
 126 604 144 578 177 578 c 0
 186 578 189 578 196 586 c 0
 252 656 294 689 307 689 c 0
 330 689 340 674 340 636 c 0
 340 615 325 599 273 566 c 1
 186 507 76 350 76 167 c 0
 76 117 103 80 156 80 c 0xda
 169 80 240 86 254 86 c 0
 280 86 321 43 321 5 c 0
 321 -92 233 -198 170 -198 c 0xba
EndSplineSet
EndChar

StartChar: eta
Encoding: 951 951 82
Width: 469
GlyphClass: 2
Flags: HW
TeX: 414 285
TopAccentHorizontal: 225
HStem: -14 21G<119.6 134> 326 91<54.5724 117.166> 336 81<284.442 353.942>
VStem: 124 37<194.317 316.723> 303 98<-268.837 -125.559> 362 39<-75.7436 328.105>
LayerCount: 2
Fore
SplineSet
374 -285 m 0xb8
 339 -285 302 -263 303 -229 c 0xb8
 303 -215 311 -188 318 -157 c 0
 332 -99 362 184 362 279 c 0
 362 312 345 336 321 336 c 0xb4
 274 336 207 209 155 32 c 0
 148 10 142 -14 127 -14 c 0
 113 -14 86 2 86 22 c 0
 86 44 97 83 107 121 c 0
 116 157 124 203 124 253 c 0
 124 309 115 326 76 326 c 0
 44 326 34 313 27 313 c 0
 20 313 17 315 17 325 c 0
 17 360 62 417 98 417 c 0xd4
 148 417 161 378 161 310 c 0
 161 260 158 241 152 202 c 0
 151 198 154 194 157 194 c 0
 160 194 162 193 167 205 c 0
 222 339 282 417 321 417 c 0
 360 417 401 344 401 287 c 1xb4
 401 252 400 -200 400 -234 c 1
 400 -265 391 -285 374 -285 c 0xb8
EndSplineSet
EndChar

StartChar: theta
Encoding: 952 952 83
Width: 434
GlyphClass: 2
Flags: HW
TeX: 697 14
TopAccentHorizontal: 225
HStem: -14 80<156.731 249.342> 334 55<105.747 325.867> 615 83<175.921 277.65>
VStem: 45 46<182.541 386.456> 337 52<303.132 513.764>
LayerCount: 2
Fore
SplineSet
207 -14 m 0
 115 -14 45 192 45 332 c 0
 45 508 136 698 226 698 c 0
 315 698 389 510 389 370 c 0
 389 214 325 -14 207 -14 c 0
116 389 m 2
 325 389 l 2
 333 389 337 396 337 405 c 0
 337 538 310 615 234 615 c 0
 175 615 138 578 106 401 c 0
 105 395 109 389 116 389 c 2
202 66 m 0
 281 66 315 196 326 318 c 0
 327 329 326 333 314 333 c 2
 103 334 l 2
 95 334 91 326 91 319 c 0
 91 168 121 66 202 66 c 0
EndSplineSet
EndChar

StartChar: iota
Encoding: 953 953 84
Width: 245
GlyphClass: 2
Flags: HW
TeX: 411 14
TopAccentHorizontal: 111
HStem: -14 84<106.719 182.891>
VStem: 64 65<70.8963 322.112> 67 90<187.913 411.85>
LayerCount: 2
Fore
SplineSet
125 -14 m 0xc0
 88 -14 63 20 64 89 c 2xc0
 67 396 l 2
 67 409 76 414 128 414 c 0
 154 414 157 407 157 395 c 0xa0
 157 358 129 160 129 100 c 0
 129 76 144 70 159 70 c 0
 180 70 206 83 210 83 c 0
 219 83 220 78 220 67 c 0
 220 38 179 -14 125 -14 c 0xc0
EndSplineSet
EndChar

StartChar: kappa
Encoding: 954 954 85
Width: 474
GlyphClass: 2
Flags: HW
TeX: 414 15
TopAccentHorizontal: 244
HStem: -15 21G<354.4 393.5> 323 94<56.57 127.193> 336 80<337.3 436.952>
VStem: 90 70<-9.83483 98.1628> 130 38<195.445 318.29>
LayerCount: 2
Fore
SplineSet
371 -15 m 0xb0
 338 -15 296 25 272 71 c 0
 253 107 236 161 229 197 c 0
 228 202 225 200 221 193 c 0
 198 146 178 91 160 29 c 0
 154 9 148 -14 133 -14 c 0
 122 -14 90 -7 90 13 c 0xb0
 90 34 101 80 112 119 c 0
 122 157 130 221 130 271 c 0
 130 312 121 323 83 323 c 0
 51 323 35 320 28 320 c 0
 21 320 18 322 18 332 c 0
 18 367 68 416 106 416 c 0
 156 416 169 376 169 304 c 0xc8
 169 255 165 238 160 202 c 0
 159 198 163 195 166 195 c 0
 169 195 169 195 176 206 c 0
 252 330 339 417 391 417 c 0
 443 417 446 376 446 349 c 0
 446 340 441 332 433 332 c 0
 423 332 430 336 393 336 c 0
 337 336 293 300 253 239 c 0
 248 232 247 228 249 222 c 0
 273 144 309 69 395 64 c 0
 439 61 466 101 471 101 c 0
 477 101 479 96 479 92 c 0
 479 25 416 -15 371 -15 c 0xb0
EndSplineSet
EndChar

StartChar: lambda
Encoding: 955 955 86
Width: 479
GlyphClass: 2
Flags: HW
TeX: 699 18
TopAccentHorizontal: 144
HStem: -15 93<347.954 441.537> 625 75<49.5884 149.779>
LayerCount: 2
Fore
SplineSet
91 -18 m 0
 76 -18 30 0 30 20 c 0
 30 34 31 34 41 48 c 0
 92 124 197 281 231 382 c 0
 237 400 237 403 235 419 c 0
 219 532 178 625 82 625 c 0
 63 625 42 617 22 603 c 0
 12 596 4 593 -1 593 c 0
 -8 593 -10 595 -10 605 c 0
 -10 633 54 700 111 700 c 0
 210 700 244 572 280 368 c 0
 295 284 312 203 332 132 c 0
 345 88 375 78 395 78 c 0
 432 77 456 94 464 94 c 0
 469 94 475 90 475 84 c 0
 475 32 436 -15 387 -15 c 0
 354 -15 324 0 309 50 c 0
 289 116 268 219 258 290 c 0
 257 295 254 296 252 291 c 0
 228 230 160 97 116 18 c 0
 111 9 100 -18 91 -18 c 0
EndSplineSet
EndChar

StartChar: mu
Encoding: 956 956 87
Width: 542
GlyphClass: 2
Flags: HW
TeX: 415 285
TopAccentHorizontal: 252
HStem: -15 94<409.927 497.996> -15 73<181.339 267.745>
VStem: 85 97<228.26 405.79> 87 33<-171.08 64.3913> 344 94<259.426 401.69>
LayerCount: 2
Fore
SplineSet
154 -285 m 0x58
 121 -285 110 -262 99 -231 c 0
 91 -207 87 -75 87 0 c 1x58
 87 35 85 378 85 394 c 1
 85 410 91 416 116 416 c 0
 148 416 182 398 182 386 c 0
 182 340 149 173 149 134 c 0
 149 107 165 58 207 58 c 0x68
 258 58 285 85 324 165 c 1
 338 219 343 327 344 401 c 0
 344 412 349 417 366 417 c 0
 402 417 438 391 438 377 c 0
 438 334 417 253 389 163 c 1
 389 126 408 79 453 79 c 0
 490 79 518 112 526 112 c 0
 531 112 537 108 537 103 c 0
 537 26 488 -15 444 -15 c 0xa8
 412 -15 383 22 373 81 c 0
 371 93 370 105 369 119 c 1
 367 120 l 1
 360 104 289 -15 241 -15 c 0
 204 -15 176 9 157 29 c 0
 141 46 130 64 127 64 c 0
 122 64 120 52 120 31 c 0
 120 3 122 -90 123 -127 c 0
 125 -208 207 -229 207 -248 c 0
 207 -269 175 -285 154 -285 c 0x58
EndSplineSet
EndChar

StartChar: nu
Encoding: 957 957 88
Width: 412
GlyphClass: 2
Flags: HW
TeX: 418 14
TopAccentHorizontal: 228
HStem: -14 21G<156.1 167.3> 325 91<35.3069 117.311>
VStem: 155 34<102.006 258.79> 321 57<231.814 398.544>
LayerCount: 2
Fore
SplineSet
161 -14 m 0
 151 -14 150 1 150 20 c 0
 150 23 155 50 155 89 c 0
 155 284 124 325 64 325 c 0
 34 325 14 317 5 316 c 0
 -2 316 -5 317 -5 328 c 0
 -5 362 37 416 99 416 c 0
 180 416 189 240 189 115 c 0
 189 110 189 102 194 102 c 0
 198 102 200 102 210 111 c 0
 246 143 321 233 321 319 c 0
 321 380 301 394 301 400 c 0
 301 414 313 420 324 420 c 0
 347 420 378 382 378 322 c 0
 378 199 281 87 215 23 c 0
 189 -2 173 -14 161 -14 c 0
EndSplineSet
EndChar

StartChar: xi
Encoding: 958 958 89
Width: 379
GlyphClass: 2
Flags: HW
TeX: 742 210
TopAccentHorizontal: 200
HStem: -208 76<145.412 238.844> -17 80<83.2677 272.898> -0 85<141.362 321.473> 328 81<256.642 331.406> 604 81<254.267 331.908>
VStem: 35 35<80.8699 187.919> 43 72<618.507 707.611> 60 53<377.083 485.153> 324 36<-63.3649 32.7998>
LayerCount: 2
Fore
SplineSet
186 -208 m 0xbc80
 164 -208 130 -178 130 -156 c 0
 130 -138 139 -132 153 -132 c 0
 225 -132 324 -70 324 -34 c 0
 324 -16 311 0 288 -0 c 0xbc80
 280 0 247 -5 218 -9 c 0
 187 -13 154 -17 142 -17 c 0
 71 -17 35 51 35 113 c 0xdc80
 35 201 93 275 145 318 c 0
 153 324 161 328 145 334 c 0
 100 352 60 373 60 438 c 0xd980
 60 477 99 543 138 577 c 0
 148 586 149 589 142 589 c 0
 87 590 43 613 43 660 c 0
 43 706 101 746 148 746 c 0
 155 746 156 746 156 736 c 0
 156 731 143 721 135 712 c 0
 124 702 115 687 115 666 c 0xda80
 115 629 134 611 165 611 c 0
 169 611 181 617 185 620 c 0
 222 648 283 685 317 685 c 0
 334 685 342 677 342 662 c 0
 342 647 339 616 300 604 c 1
 209 573 113 498 113 422 c 0xd980
 113 388 140 362 179 362 c 0
 205 362 232 376 257 389 c 0
 278 399 296 409 307 409 c 0
 327 409 343 390 343 378 c 0
 343 357 323 335 303 328 c 0
 178 284 70 225 70 124 c 0
 70 85 98 63 130 63 c 0xdc80
 150 63 179 69 205 75 c 0
 231 80 266 85 283 85 c 0
 312 85 359 63 359 3 c 0
 359 -95 249 -208 186 -208 c 0xbc80
EndSplineSet
EndChar

StartChar: omicron
Encoding: 959 959 90
Width: 405
GlyphClass: 2
Flags: HW
TeX: 414 14
TopAccentHorizontal: 200
HStem: -14 77<109.325 240.145> 336 80<160.441 288.262>
VStem: 35 41<98.7536 247.288> 329 41<154.081 295.826>
LayerCount: 2
Fore
SplineSet
177 -14 m 0
 77 -14 35 97 35 196 c 0
 35 308 105 416 218 416 c 0
 323 416 370 303 370 196 c 0
 370 86 291 -14 177 -14 c 0
157 63 m 0
 255 64 329 138 329 237 c 1
 328 285 292 336 243 336 c 0
 144 336 76 261 76 162 c 0
 76 114 108 63 157 63 c 0
EndSplineSet
EndChar

StartChar: pi
Encoding: 960 960 91
Width: 528
GlyphClass: 2
Flags: HW
TeX: 430 17
TopAccentHorizontal: 268
HStem: -14 95<360.413 429.61> 332 71<263.072 340.73 381.458 496.659> 341 72<89.1186 189.046 225.013 318.603>
VStem: 15 26<235.701 280.252> 112 75<-1.36406 118.681> 315 42<52.5 260.304>
LayerCount: 2
Fore
SplineSet
176 -17 m 0xdc
 157 -17 112 5 112 21 c 0
 112 47 119 71 127 99 c 2
 188 313 l 2
 193 331 191 341 168 341 c 0
 98 341 66 322 41 250 c 0
 39 245 39 235 31 235 c 0
 23 235 15 249 15 276 c 0
 15 333 55 413 188 413 c 0xbc
 234 413 283 410 327 407 c 0
 362 405 394 403 422 403 c 0
 453 403 474 412 488 420 c 0
 501 427 507 434 513 434 c 0
 524 434 528 425 528 400 c 0
 528 366 502 328 483 328 c 0
 457 328 428 332 414 332 c 0
 392 332 384 328 380 301 c 0
 376 272 357 159 357 119 c 0
 357 93 377 82 397 81 c 0
 408 80 422 83 432 87 c 0
 440 90 446 93 448 93 c 0
 457 93 458 88 458 76 c 0
 458 41 433 -14 381 -14 c 0
 346 -14 315 20 315 85 c 0
 315 138 341 276 341 308 c 0
 341 320 335 333 325 333 c 2
 249 336 l 2
 235 337 227 331 223 313 c 0
 193 198 184 125 182 76 c 0
 181 44 184 22 186 9 c 0
 189 -9 190 -17 176 -17 c 0xdc
EndSplineSet
EndChar

StartChar: rho
Encoding: 961 961 92
Width: 428
GlyphClass: 2
Flags: HW
TeX: 414 285
TopAccentHorizontal: 226
HStem: -14 80<153.5 268.197> 344 73<193.776 313.433>
VStem: 60 90<-272.372 -120.339> 62 55<-184.58 35.2583 74.9491 248.259> 353 41<154.284 311.722>
LayerCount: 2
Fore
SplineSet
123 -285 m 0xe8
 92 -285 60 -267 60 -232 c 0xe8
 60 -191 62 118 62 204 c 0
 62 325 130 417 243 417 c 0
 345 417 394 311 394 207 c 0
 394 78 314 -14 216 -14 c 0
 195 -14 149 21 127 46 c 0
 120 54 117 41 117 24 c 0xd8
 117 -5 119 -42 123 -77 c 0
 132 -163 150 -242 150 -260 c 0
 150 -280 144 -285 123 -285 c 0xe8
165 66 m 0
 290 66 353 136 353 250 c 0
 353 300 321 344 269 344 c 0
 187 344 115 286 115 108 c 0
 115 87 141 66 165 66 c 0
EndSplineSet
EndChar

StartChar: uni03C2
Encoding: 962 962 93
Width: 349
GlyphClass: 2
Flags: HW
TeX: 413 190
TopAccentHorizontal: 179
HStem: -191 76<151.716 234.771> -1 84<102.823 280.877> 323 93<190.166 309.868>
VStem: 35 42<112.161 247.95> 282 37<-68.0195 34.2998>
LayerCount: 2
Fore
SplineSet
191 -191 m 0
 170 -191 136 -161 136 -140 c 0
 136 -121 145 -115 159 -115 c 0
 232 -115 282 -62 282 -25 c 0
 282 -8 268 -1 245 -1 c 0
 228 -1 155 -5 134 -5 c 0
 61 -5 35 81 35 163 c 0
 35 297 171 416 268 416 c 0
 287 416 318 403 318 372 c 0
 318 346 299 323 269 323 c 0
 169 323 77 273 77 179 c 0
 77 129 105 80 156 80 c 0
 170 80 253 83 268 83 c 0
 295 83 319 65 319 4 c 0
 319 -94 253 -191 191 -191 c 0
EndSplineSet
EndChar

StartChar: sigma
Encoding: 963 963 94
Width: 482
GlyphClass: 2
Flags: HW
TeX: 433 14
TopAccentHorizontal: 260
HStem: -14 82<117.772 238.863> 346 72<158.84 300.272 325.232 471.685>
VStem: 35 43<99.7177 251.788> 320 49<152.288 295.271>
LayerCount: 2
Fore
SplineSet
184 -14 m 0
 82 -14 35 102 35 196 c 0
 35 317 136 418 218 418 c 0
 259 418 373 412 423 412 c 0
 450 412 477 434 483 435 c 0
 490 436 491 433 492 429 c 0
 494 385 467 354 441 349 c 1
 428 342 352 339 339 339 c 0
 331 339 321 334 325 327 c 1
 339 309 369 273 369 221 c 0
 369 120 291 -14 184 -14 c 0
161 68 m 0
 261 68 320 152 320 239 c 0
 320 272 311 335 278 343 c 1
 265 345 240 346 227 346 c 0
 132 346 78 244 78 161 c 0
 78 109 113 68 161 68 c 0
EndSplineSet
EndChar

StartChar: tau
Encoding: 964 964 95
Width: 415
GlyphClass: 2
Flags: HW
TeX: 430 14
TopAccentHorizontal: 218
HStem: -14 95<232.232 292.268> 328 75<264.717 386.078> 341 70<69.787 294.834>
VStem: 15 21<264.517 297.02> 172 56<44.7998 243.551>
LayerCount: 2
Fore
SplineSet
236 -14 m 0xd8
 200 -14 172 12 172 78 c 0
 172 163 208 305 209 322 c 0
 209 334 203 338 192 339 c 0
 184 340 146 341 128 341 c 0
 88 341 56 327 36 276 c 0
 34 271 32 264 27 264 c 0
 18 264 15 273 15 294 c 0
 15 350 64 411 144 411 c 0xb8
 220 411 261 403 324 403 c 0
 357 403 376 408 387 414 c 0
 406 423 405 434 411 434 c 0
 422 434 426 426 425 401 c 0
 424 368 392 328 364 328 c 0
 338 328 279 336 264 336 c 0
 252 336 244 333 242 323 c 0
 235 280 228 196 228 123 c 0
 228 96 247 82 271 81 c 0
 282 80 293 83 307 87 c 0
 317 90 325 94 326 94 c 0
 336 94 336 89 336 77 c 0
 336 42 288 -14 236 -14 c 0xd8
EndSplineSet
EndChar

StartChar: upsilon
Encoding: 965 965 96
Width: 440
GlyphClass: 2
Flags: HW
TeX: 424 14
TopAccentHorizontal: 220
HStem: -14 82<143.632 261.862> 327 89<51.844 114.156>
VStem: 119 15<128.4 275.2> 335 61<156.551 366.18>
LayerCount: 2
Fore
SplineSet
201 -14 m 0
 132 -14 84 38 84 85 c 0
 84 126 119 230 119 275 c 0
 119 315 105 327 72 327 c 0
 41 327 30 319 23 319 c 0
 16 319 13 321 13 331 c 0
 13 364 58 416 108 416 c 0
 153 416 172 395 171 353 c 0
 170 309 134 172 134 128 c 0
 134 86 152 68 204 68 c 0
 273 68 335 159 335 252 c 0
 335 346 312 387 294 419 c 0
 291 424 298 427 302 427 c 0
 317 427 334 419 347 408 c 0
 378 380 396 315 396 229 c 0
 396 110 302 -14 201 -14 c 0
EndSplineSet
EndChar

StartChar: phi
Encoding: 966 966 97
Width: 544
GlyphClass: 2
Flags: HW
TeX: 469 285
TopAccentHorizontal: 269
HStem: -22 74<166.209 215.6 260.2 358.141> 340 129<322.472 389.05>
VStem: 35 40<117.49 258.469> 207 70<-277.655 -27.9726> 216 45<-228.623 -21.7998 54.4004 238.5> 468 41<150.66 293.764>
LayerCount: 2
Fore
SplineSet
259 -285 m 0xf4
 233 -285 207 -270 207 -247 c 0xf4
 207 -219 214 -113 216 -18 c 1
 116 2 35 96 35 204 c 0
 35 360 173 469 331 469 c 0
 375 469 409 441 401 411 c 1
 466 387 509 317 509 242 c 0
 509 99 403 -20 260 -22 c 1xec
 263 -154 277 -254 277 -258 c 0
 277 -271 277 -285 259 -285 c 0xf4
217 54 m 1
 217 173 223 317 276 382 c 1
 167 360 75 285 75 180 c 0
 75 111 135 65 217 54 c 1
259 52 m 1
 363 53 468 119 468 222 c 0
 468 280 431 340 370 340 c 0
 274 340 260 147 259 52 c 1
EndSplineSet
EndChar

StartChar: chi
Encoding: 967 967 98
Width: 439
GlyphClass: 2
Flags: HW
TeX: 414 290
TopAccentHorizontal: 219
HStem: -269 93<316.148 399.523> 325 90<28.8036 134.457>
VStem: 20 89<-205.722 -158.6>
LayerCount: 2
Fore
SplineSet
52 -289 m 0
 42 -289 20 -284 20 -224 c 0
 20 -208 27 -174 39 -153 c 2
 200 131 l 2
 199 135 199 142 198 146 c 0
 185 237 159 325 72 325 c 0
 37 325 8 305 -0 305 c 0
 -7 305 -10 307 -10 317 c 0
 -10 357 26 415 87 415 c 0
 159 415 196 317 209 246 c 1
 210 243 223 164 224 162 c 1
 328 378 l 2
 335 392 344 415 354 415 c 0
 368 415 435 410 435 382 c 0
 435 377 426 370 417 362 c 0
 402 349 389 326 375 304 c 2
 246 90 l 2
 243 85 241 77 242 68 c 0
 246 37 254 3 261 -25 c 0
 295 -157 328 -176 361 -176 c 0
 409 -176 429 -152 438 -152 c 0
 443 -152 449 -156 449 -162 c 0
 449 -198 403 -269 344 -269 c 0
 301 -269 273 -238 256 -177 c 0
 239 -115 226 -30 217 39 c 1
 214 39 l 1
 109 -159 l 2
 63 -245 72 -289 52 -289 c 0
EndSplineSet
EndChar

StartChar: psi
Encoding: 968 968 99
Width: 567
GlyphClass: 2
Flags: HW
TeX: 616 285
TopAccentHorizontal: 302
HStem: -17 90<227.353 279.2> 324 92<50.6836 122.816> 372 44<535.55 596.746>
VStem: 275 72<338.612 613.569> 279 41<-185.79 -16.5996 77.2002 281.961>
LayerCount: 2
Fore
SplineSet
329 -285 m 0xa8
 288 -285 279 -188 279 -94 c 2
 279 -17 l 1xa8
 207 -14 159 64 154 147 c 0
 144 316 117 324 74 324 c 0
 50 324 32 308 25 308 c 0
 18 308 15 309 15 320 c 0
 15 359 50 415 98 416 c 0
 151 418 175 338 190 165 c 0
 195 114 234 78 279 73 c 1
 278 428 275 546 275 576 c 0
 275 604 285 616 306 616 c 0
 336 616 347 605 347 569 c 0xd0
 347 542 325 445 321 77 c 1
 370 93 391 156 418 245 c 0
 448 345 483 416 555 416 c 0
 583 416 598 402 598 389 c 0
 598 380 592 373 585 372 c 0
 542 366 517 339 502 303 c 0
 482 255 454 164 436 105 c 0
 414 33 362 0 320 -11 c 1
 320 -64 l 2
 320 -188 372 -243 372 -253 c 0
 372 -264 346 -285 329 -285 c 0xa8
EndSplineSet
EndChar

StartChar: omega
Encoding: 969 969 100
Width: 569
GlyphClass: 2
Flags: HW
TeX: 414 15
TopAccentHorizontal: 281
HStem: -14 69<98.9751 211.161 324.489 418.492>
VStem: 35 38<77.1259 216.853> 250 55<93.0871 198.554> 461 73<108.74 309.677>
LayerCount: 2
Fore
SplineSet
160 -14 m 0
 75 -14 35 90 35 161 c 0
 35 313 148 417 176 417 c 0
 193 417 216 390 216 374 c 0
 216 368 192 348 163 321 c 0
 118 279 73 207 73 138 c 0
 73 99 91 55 131 55 c 0
 207 55 250 97 250 150 c 0
 250 173 235 209 235 231 c 0
 235 252 262 274 289 274 c 0
 309 274 332 258 332 231 c 0
 332 205 317 159 305 129 c 0
 303 123 306 109 308 102 c 0
 313 81 324 53 362 53 c 0
 438 53 461 144 461 222 c 0
 461 345 391 395 391 400 c 0
 391 408 398 417 404 417 c 0
 470 417 534 304 534 201 c 0
 534 96 473 -15 368 -15 c 0
 325 -15 292 51 285 69 c 0
 283 74 278 75 274 70 c 0
 260 51 227 -14 160 -14 c 0
EndSplineSet
EndChar

StartChar: uni03D1
Encoding: 977 977 101
Width: 466
GlyphClass: 2
Flags: HW
TeX: 703 14
TopAccentHorizontal: 244
HStem: -14 78<184.597 271.247> 157 76<74.1135 129.433> 318 66<237.984 355.4 401.4 450.602> 626 77<187.238 305.401>
VStem: 83 41<459.696 575.135> 362 40<386.383 539.13>
LayerCount: 2
Fore
SplineSet
228 -14 m 0
 197 -14 169 8 157 43 c 0
 141 91 127 157 118 157 c 0
 83 157 61 117 51 117 c 0
 46 117 28 134 28 166 c 0
 28 203 58 233 97 233 c 0
 121 233 141 204 151 169 c 0
 165 120 180 64 222 64 c 0
 299 64 345 196 355 318 c 1
 352 318 l 2
 215 318 83 407 83 513 c 0
 83 607 181 703 250 703 c 0
 339 703 399 566 401 386 c 1
 428 389 443 395 451 395 c 0
 459 395 467 388 467 376 c 0
 467 363 465 351 453 336 c 0
 446 327 422 323 397 321 c 1
 389 163 352 -14 228 -14 c 0
360 384 m 1
 361 401 362 417 362 432 c 0
 363 558 320 626 239 626 c 0
 185 626 124 582 124 511 c 0
 124 428 253 387 360 384 c 1
EndSplineSet
EndChar

StartChar: uni03D5
Encoding: 981 981 102
Width: 518
GlyphClass: 2
Flags: HW
TeX: 616 285
TopAccentHorizontal: 255
HStem: -24 76<282.6 366.119> 363 66<180.56 241 287.8 342.454>
VStem: 35 39<120.955 251.316> 225 68<-278.299 -30.4121> 235 60<432.368 613.725> 244 37<52 362.6 427.513 551.654> 445 39<119.578 258.679>
LayerCount: 2
Fore
SplineSet
269 -285 m 0xf2
 243 -285 225 -259 225 -236 c 0xf2
 225 -212 235 -140 242 -25 c 1
 210 -23 181 -13 154 1 c 0
 106 28 35 115 35 202 c 0
 35 319 123 418 241 429 c 1
 238 506 235 551 235 569 c 0
 235 598 235 616 259 616 c 0
 291 616 295 589 295 552 c 0xea
 295 536 291 501 288 429 c 1
 399 414 484 317 484 202 c 0
 484 139 434 37 377 3 c 0
 351 -13 315 -21 283 -24 c 1
 286 -157 294 -247 294 -248 c 0
 294 -268 290 -285 269 -285 c 0xf2
244 51 m 1xe6
 245 83 245 119 245 155 c 2
 244 277 l 1
 244 301 245 343 244 363 c 1
 148 348 74 268 74 175 c 0
 74 96 159 55 244 51 c 1xe6
281 52 m 1
 364 58 445 102 445 180 c 0
 445 269 375 347 285 363 c 1
 284 339 284 304 283 276 c 2
 281 155 l 2
 280 120 281 85 281 52 c 1
EndSplineSet
EndChar

StartChar: uni03D6
Encoding: 982 982 103
Width: 568
GlyphClass: 2
Flags: HW
TeX: 497 14
TopAccentHorizontal: 286
HStem: -14 69<93.627 215.137 321.183 421.332> 301 60<183.577 415.279> 444 56<171.457 358.421>
VStem: 35 39<78.0733 214.819> 108 51<374.383 427.226> 250 57<89.0821 213.89> 468 69<114.17 326.191>
LayerCount: 2
Fore
SplineSet
152 -14 m 0
 66 -14 35 86 35 171 c 0
 35 279 84 346 120 373 c 1
 112 386 108 401 108 416 c 0
 108 464 188 500 247 500 c 0
 336 500 419 461 472 398 c 1
 508 412 525 425 530 425 c 0
 540 425 545 415 545 406 c 0
 545 398 541 393 535 387 c 0
 524 377 511 368 498 360 c 1
 523 320 537 271 537 220 c 0
 537 115 479 -14 374 -14 c 0
 306 -14 292 48 284 68 c 0
 282 76 278 75 272 68 c 0
 256 49 224 -14 152 -14 c 0
255 361 m 0
 324 361 376 370 417 381 c 1
 379 424 330 444 268 444 c 0
 210 444 159 426 159 405 c 0
 159 371 210 361 255 361 c 0
362 53 m 0
 438 53 468 133 468 250 c 0
 468 281 461 310 448 335 c 1
 387 310 322 300 283 301 c 0
 244 301 203 311 171 329 c 1
 151 301 74 223 74 141 c 0
 74 100 94 55 135 55 c 0
 211 55 250 93 250 147 c 0
 250 170 238 207 238 229 c 0
 238 257 255 272 289 272 c 0
 308 272 331 265 331 231 c 0
 331 205 319 166 307 136 c 0
 305 130 308 116 310 109 c 0
 315 88 324 53 362 53 c 0
EndSplineSet
EndChar

StartChar: uni03F0
Encoding: 1008 1008 104
Width: 499
GlyphClass: 2
Flags: HW
TeX: 420 9
TopAccentHorizontal: 244
HStem: -10 79<353.555 444.836> 328 88<74.033 136.946>
VStem: 47 99<13.9943 80.0825> 155 37<196.959 349.6> 301 19<197.818 220.229>
LayerCount: 2
Fore
SplineSet
383 -10 m 0
 316 -10 274 45 274 113 c 0
 274 146 283 183 301 217 c 1
 301 219 l 1
 301 223 294 225 289 220 c 2
 174 113 l 1
 160 93 153 79 146 63 c 0
 136 34 117 -9 102 -9 c 0
 85 -9 47 28 47 47 c 0
 47 58 62 75 79 90 c 0
 95 107 134 145 141 165 c 0
 150 190 155 216 155 241 c 0
 155 288 136 328 95 328 c 0
 61 328 49 314 42 314 c 0
 34 314 30 316 31 326 c 0
 32 361 83 416 123 416 c 0
 174 416 191 377 191 323 c 0
 191 287 184 245 174 204 c 0
 173 200 176 197 179 197 c 0
 182 197 186 196 197 206 c 2
 316 317 l 1
 347 376 393 422 411 422 c 0
 432 422 456 401 456 378 c 0
 456 361 442 348 419 330 c 2
 345 267 l 1
 321 246 320 207 320 193 c 0
 316 119 357 69 404 69 c 0
 427 68 453 82 475 109 c 0
 479 114 485 118 486 118 c 0
 493 118 495 112 495 108 c 0
 495 31 429 -10 383 -10 c 0
EndSplineSet
EndChar

StartChar: uni03F1
Encoding: 1009 1009 105
Width: 431
GlyphClass: 2
Flags: HW
TeX: 414 291
TopAccentHorizontal: 226
HStem: -290 43<205.543 324.087> -14 80<160.549 270.196> 343 74<196.461 315.668>
VStem: 62 57<-135.656 38.9644 74.9491 248.259> 355 41<154.284 311.496>
LayerCount: 2
Fore
SplineSet
288 -290 m 0
 190 -290 62 -201 62 -12 c 0
 62 28 63 118 63 204 c 0
 63 325 133 417 246 417 c 0
 348 417 396 311 396 207 c 0
 396 78 316 -14 217 -14 c 0
 184 -14 148 14 129 39 c 0
 123 47 119 41 119 24 c 0
 119 -5 119 -39 120 -53 c 0
 130 -202 190 -248 290 -248 c 0
 300 -248 313 -236 326 -226 c 0
 340 -216 352 -206 367 -206 c 0
 379 -206 394 -234 394 -258 c 0
 394 -278 344 -290 288 -290 c 0
168 66 m 0
 293 66 355 136 355 250 c 0
 355 300 324 343 272 343 c 0
 190 343 117 284 117 108 c 0
 117 87 144 66 168 66 c 0
EndSplineSet
EndChar

StartChar: uni03F4
Encoding: 1012 1012 106
Width: 767
GlyphClass: 2
Flags: HW
TeX: 664 14
TopAccentHorizontal: 382
HStem: -14 41<303.676 492.541> 314 41<152.4 612.6> 621 43<271.857 463.811>
VStem: 45 105<214.617 314 354.8 437.716> 617 105<211.242 430.477>
LayerCount: 2
Fore
SplineSet
388 664 m 0
 565 664 722 532 722 335 c 0
 722 155 602 -14 379 -14 c 0
 202 -14 45 118 45 315 c 0
 45 495 165 664 388 664 c 0
372 621 m 0
 226 621 150 520 150 365 c 2
 150 355 l 1
 613 355 l 1
 594 506 514 621 372 621 c 0
394 27 m 0
 542 27 617 130 617 286 c 0
 617 296 617 304 616 314 c 1
 152 314 l 1
 166 154 246 27 394 27 c 0
EndSplineSet
EndChar

StartChar: uni03F5
Encoding: 1013 1013 107
Width: 340
GlyphClass: 2
Flags: HW
TeX: 412 14
TopAccentHorizontal: 170
HStem: -14 71<101.479 240.142> 178 86<178.906 261.736> 345 69<136.355 270.393>
VStem: 45 52<219.785 309.552> 45 43<72.8488 148.43>
LayerCount: 2
Fore
SplineSet
161 -14 m 0xe8
 100 -14 45 27 45 84 c 0xe8
 45 137 82 171 93 179 c 0
 102 186 105 192 95 197 c 0
 68 210 45 223 45 270 c 0
 45 349 132 415 228 415 c 0
 251 415 275 400 275 381 c 0
 275 364 252 345 227 345 c 0
 148 345 97 312 97 253 c 0xf0
 97 232 111 218 128 218 c 0
 148 218 204 264 234 264 c 0
 257 264 276 248 276 232 c 0
 276 202 243 178 218 178 c 0
 199 178 170 178 143 169 c 0
 111 158 88 131 88 104 c 0
 88 83 118 57 157 57 c 0
 202 57 260 85 284 105 c 0
 296 114 304 120 306 120 c 0
 314 120 317 116 317 103 c 0
 317 40 240 -14 161 -14 c 0xe8
EndSplineSet
EndChar

StartChar: u1D434
Encoding: 119860 119860 108
Width: 684
GlyphClass: 2
Flags: HW
TeX: 676 5
TopAccentHorizontal: 562
HStem: -5 35<-50.623 29.9617 306.977 387.688 527.23 590.813> 256 35<327.696 462.196> 656 20G<616.699 623.999>
LayerCount: 2
Fore
SplineSet
-27 -5 m 0
 -43 -5 -50 -1 -51 8 c 0
 -52 18 -39 24 -18 30 c 0
 36 44 80 70 113 107 c 0
 259 268 365 412 486 565 c 0
 511 596 525 622 534 622 c 0
 563 622 571 631 588 648 c 0
 607 668 612 676 620 676 c 0
 627 676 631 667 626 640 c 2
 523 121 l 2
 511 59 522 37 561 26 c 0
 581 20 592 18 592 8 c 0
 592 0 582 -5 561 -5 c 0
 533 -5 478 1 436 1 c 0
 400 1 354 0 330 -0 c 0
 314 0 309 4 307 12 c 0
 305 21 318 29 335 32 c 0
 399 43 417 56 431 110 c 2
 462 230 l 2
 467 249 452 256 434 256 c 2
 317 254 l 2
 297 254 286 249 276 236 c 2
 177 106 l 2
 138 55 159 43 186 34 c 0
 201 29 211 22 211 12 c 0
 211 3 198 -1 182 -1 c 0
 162 -1 134 1 99 1 c 0
 58 1 5 -5 -27 -5 c 0
345 289 m 2
 453 290 l 2
 467 290 474 296 479 316 c 2
 527 535 l 2
 531 550 531 558 524 558 c 0
 519 558 513 555 506 546 c 2
 328 311 l 2
 318 298 311 289 345 289 c 2
EndSplineSet
AlternateSubs2: "'ssty' Script Style in Mathematical Alphanumeric Symbols lookup 2 subtable" u1D434.s u1D434.ss
EndChar

StartChar: u1D435
Encoding: 119861 119861 109
Width: 623
GlyphClass: 2
Flags: HW
TeX: 655 5
ItalicCorrection: 5
TopAccentHorizontal: 382
HStem: -4 26<-7.54508 62.1661 231.092 324.732> 344 26<294.366 375.174> 625 30<357.233 457.578> 625 20<193.188 238.669 359.422 412.974>
VStem: 453 91<126.009 278.912> 512 88<455.993 586.105>
LayerCount: 2
Fore
SplineSet
15 -5 m 0xe8
 0 -5 -8 -3 -8 6 c 0
 -8 16 5 21 27 25 c 0
 76 35 106 52 121 99 c 2
 259 549 l 2
 274 597 263 613 219 621 c 0
 200 625 193 627 193 637 c 0
 193 646 209 651 225 651 c 0
 262 651 276 645 307 645 c 0xd8
 339 645 384 655 414 655 c 0
 548 655 600 596 600 525 c 0xe4
 600 432 499 377 421 366 c 0
 411 365 413 358 418 356 c 0
 495 327 544 285 544 193 c 0
 544 73 424 -4 268 -4 c 0
 213 -4 179 3 140 3 c 0
 93 3 67 -5 15 -5 c 0xe8
307 370 m 0
 338 370 367 376 398 383 c 1
 461 412 512 459 512 527 c 0
 512 581 469 625 395 625 c 0xe4
 369 625 359 621 355 607 c 2
 293 386 l 2
 290 373 295 370 307 370 c 0
267 22 m 0
 356 23 453 104 453 208 c 0xc8
 453 296 400 344 297 344 c 0
 285 344 276 337 273 324 c 2
 209 107 l 2
 202 84 203 60 218 46 c 0
 231 33 244 22 267 22 c 0
EndSplineSet
AlternateSubs2: "'ssty' Script Style in Mathematical Alphanumeric Symbols lookup 2 subtable" u1D435.s u1D435.ss
EndChar

StartChar: u1D436
Encoding: 119862 119862 110
Width: 679
GlyphClass: 2
Flags: HW
TeX: 665 14
ItalicCorrection: 50
TopAccentHorizontal: 453
HStem: 11 7<435.8 446.4> 633 32<403.001 538.905>
VStem: 66 97<142.683 361.866> 596 34<462.978 533.455>
LayerCount: 2
Fore
SplineSet
319 -14 m 0
 206 -14 66 86 66 241 c 0
 66 480 257 665 478 665 c 0
 516 665 553 659 589 646 c 0
 614 638 632 630 646 630 c 0
 652 630 659 634 667 638 c 0
 675 641 684 645 691 645 c 0
 703 645 703 634 698 628 c 0
 676 598 640 529 630 483 c 0
 628 473 620 463 612 463 c 0
 600 463 594 478 596 492 c 0
 602 522 603 554 581 583 c 0
 558 613 521 633 476 633 c 0
 328 633 163 448 163 226 c 0
 163 71 262 18 347 18 c 0
 446 18 487 73 530 143 c 0
 537 153 543 163 554 163 c 0
 561 163 562 155 562 142 c 0
 560 117 502 -9 488 -9 c 0
 482 -9 476 -3 469 2 c 0
 463 7 455 11 446 11 c 0
 436 11 422 6 403 -0 c 0
 383 -7 354 -14 319 -14 c 0
EndSplineSet
AlternateSubs2: "'ssty' Script Style in Mathematical Alphanumeric Symbols lookup 2 subtable" u1D436.s u1D436.ss
EndChar

StartChar: u1D437
Encoding: 119863 119863 111
Width: 768
GlyphClass: 2
Flags: HW
TeX: 655 7
ItalicCorrection: 6
TopAccentHorizontal: 403
HStem: -7 31<240.488 407.985> -5 30<-7.10135 82.9179> 621 28<161.826 240.448 370.655 527.08>
VStem: 651 96<266.843 492.872>
LayerCount: 2
Fore
SplineSet
318 -7 m 0xb0
 292 -7 192 0 124 0 c 0
 87 0 63 -5 15 -5 c 0
 0 -5 -8 -1 -8 7 c 0
 -8 16 5 24 27 25 c 0x70
 89 28 101 52 117 99 c 2
 266 559 l 2
 281 607 229 613 184 622 c 0
 165 626 161 633 161 642 c 0
 161 650 175 653 190 653 c 0
 242 653 286 649 328 649 c 0
 368 649 387 655 437 655 c 0
 624 655 747 557 747 378 c 0
 747 174 570 -7 318 -7 c 0xb0
322 24 m 0xb0
 514 24 651 209 651 396 c 0
 651 549 572 621 443 621 c 0
 364 621 362 605 351 571 c 2
 215 139 l 2
 188 53 236 24 322 24 c 0xb0
EndSplineSet
AlternateSubs2: "'ssty' Script Style in Mathematical Alphanumeric Symbols lookup 2 subtable" u1D437.s u1D437.ss
EndChar

StartChar: u1D438
Encoding: 119864 119864 112
Width: 633
GlyphClass: 2
Flags: HW
TeX: 660 5
ItalicCorrection: 51
TopAccentHorizontal: 449
HStem: 1 27<3.23711 88.4764 223.88 465.33> 321 29<303.667 463.718> 624 29<192.959 266.991 383.435 582.555>
VStem: 474 27<235.014 309.457> 599 58<571.756 613.632>
LayerCount: 2
Fore
SplineSet
22 -5 m 0
 6 -5 -1 -1 -1 7 c 0
 -1 16 12 21 34 25 c 0
 98 36 120 54 134 99 c 2
 272 549 l 2
 289 604 275 616 218 624 c 0
 198 627 193 633 193 642 c 0
 193 650 208 653 225 653 c 0
 241 653 305 650 347 650 c 2
 508 650 l 2
 614 650 639 660 645 660 c 0
 650 660 657 652 657 646 c 0
 657 632 634 588 627 532 c 0
 625 518 616 513 610 513 c 0
 603 513 598 522 599 537 c 0
 602 600 591 621 538 621 c 2
 422 621 l 2
 390 621 379 612 371 585 c 2
 306 380 l 2
 298 357 302 349 322 350 c 2
 442 352 l 2
 476 353 495 370 512 392 c 0
 521 403 533 422 545 422 c 0
 555 422 556 408 549 394 c 0
 537 370 528 351 521 331 c 0
 513 308 507 286 501 257 c 0
 499 247 494 235 487 235 c 0
 476 235 474 254 474 262 c 0
 474 303 460 319 437 319 c 2
 324 321 l 2
 302 321 286 318 278 291 c 2
 227 110 l 2
 209 44 220 28 263 28 c 2
 409 28 l 2
 441 28 468 39 489 54 c 0
 510 69 528 92 546 121 c 0
 551 129 556 139 564 139 c 0
 570 139 571 127 571 118 c 0
 571 100 546 40 530 15 c 0
 522 2 513 -5 498 -5 c 0
 375 -5 241 1 145 1 c 0
 97 1 71 -5 22 -5 c 0
EndSplineSet
AlternateSubs2: "'ssty' Script Style in Mathematical Alphanumeric Symbols lookup 2 subtable" u1D438.s u1D438.ss
EndChar

StartChar: u1D439
Encoding: 119865 119865 113
Width: 616
GlyphClass: 2
Flags: HW
TeX: 662 5
ItalicCorrection: 62
TopAccentHorizontal: 434
HStem: -5 30<8.89865 87.3501 227.159 296.874> 321 29<296.087 455.193> 618 32<197.761 263.152 372.914 580.646> 642 20G<637.514 644.514>
VStem: 466 29<244.244 311.343>
LayerCount: 2
Fore
SplineSet
31 -5 m 0xe8
 16 -5 8 -2 8 7 c 0
 8 17 21 21 43 25 c 0
 93 34 112 51 127 99 c 2
 264 549 l 2
 280 596 264 612 221 621 c 0
 201 625 196 633 196 642 c 0
 196 650 211 653 227 653 c 0
 244 653 297 650 339 650 c 2
 498 650 l 2xe8
 589 650 634 662 641 662 c 0xd8
 648 662 651 659 650 651 c 0
 650 646 648 639 645 629 c 0
 638 606 626 565 621 535 c 0
 620 527 616 518 604 518 c 0
 594 518 593 529 593 540 c 0
 593 565 594 589 581 603 c 0
 573 612 561 618 541 618 c 2
 407 618 l 2
 381 618 372 603 365 586 c 0
 360 575 311 421 297 375 c 0
 294 363 295 349 308 349 c 2
 431 352 l 2
 460 353 487 367 506 391 c 0
 515 402 527 412 532 412 c 0
 539 412 544 405 540 395 c 0
 517 343 508 313 495 262 c 0
 492 252 488 244 481 244 c 0
 470 244 466 259 466 267 c 0
 466 306 450 318 429 319 c 0
 407 321 335 321 317 321 c 0
 294 321 278 317 270 290 c 2
 219 111 l 2
 200 45 219 35 273 25 c 0
 292 21 297 17 297 7 c 0
 297 -2 283 -5 268 -5 c 0
 219 -5 192 2 153 2 c 0
 108 2 80 -5 31 -5 c 0xe8
EndSplineSet
AlternateSubs2: "'ssty' Script Style in Mathematical Alphanumeric Symbols lookup 2 subtable" u1D439.s u1D439.ss
EndChar

StartChar: u1D43A
Encoding: 119866 119866 114
Width: 691
GlyphClass: 2
Flags: HW
TeX: 663 14
ItalicCorrection: 28
TopAccentHorizontal: 453
HStem: -14 29<288.257 413.157> 261 31<404.079 487.125 600.654 664.51> 633 30<388.815 530.661>
VStem: 52 95<143.697 357.271> 587 34<461.204 534.104>
LayerCount: 2
Fore
SplineSet
355 -14 m 0
 180 -14 44 80 52 266 c 1
 58 490 243 663 487 663 c 0
 531 663 561 653 585 644 c 0
 606 636 621 629 637 629 c 0
 644 629 653 634 661 638 c 0
 668 642 675 645 682 645 c 0
 694 645 694 634 689 628 c 0
 667 598 631 530 621 484 c 0
 618 471 611 461 603 461 c 0
 590 461 584 473 587 492 c 0
 592 523 591 557 570 585 c 0
 553 609 520 633 469 633 c 0
 292 633 155 442 147 237 c 0
 142 101 255 15 358 15 c 0
 418 15 454 53 466 100 c 2
 495 210 l 2
 501 234 495 245 477 250 c 0
 460 255 441 259 430 261 c 0
 416 264 401 268 401 277 c 0
 401 286 415 292 432 292 c 0
 478 292 509 285 554 285 c 0
 588 285 609 292 645 292 c 0
 657 292 665 286 665 278 c 0
 665 270 654 262 634 258 c 0
 603 252 587 241 575 214 c 0
 557 176 539 110 539 95 c 0
 539 83 542 74 551 62 c 1
 535 23 417 -14 355 -14 c 0
EndSplineSet
AlternateSubs2: "'ssty' Script Style in Mathematical Alphanumeric Symbols lookup 2 subtable" u1D43A.s u1D43A.ss
EndChar

StartChar: u1D43B
Encoding: 119867 119867 115
Width: 820
GlyphClass: 2
Flags: HW
TeX: 653 5
ItalicCorrection: 73
TopAccentHorizontal: 517
HStem: -5 30<-7.03273 66.2743 202.84 264.194 413.9 489.072 616.899 671.987> 307 39<268.128 594.416> 622 32<192.453 247.766 369.481 448.306 610.005 665.869 789.898 863.881>
LayerCount: 2
Fore
SplineSet
14 -5 m 0
 -1 -5 -8 -1 -8 7 c 0
 -8 16 3 19 25 26 c 0
 68 38 87 45 96 75 c 2
 244 551 l 2
 258 597 259 613 215 622 c 0
 196 626 192 633 192 642 c 0
 192 650 206 654 221 654 c 0
 270 654 285 650 322 650 c 0
 360 650 378 654 427 654 c 0
 442 654 450 650 450 642 c 0
 449 633 436 626 414 622 c 0
 364 612 341 590 329 551 c 2
 268 356 l 2
 266 348 272 346 278 346 c 2
 602 346 l 2
 607 346 610 349 613 358 c 2
 673 552 l 2
 684 588 677 612 632 622 c 0
 613 626 609 633 610 642 c 0
 610 650 624 654 639 654 c 0
 688 654 709 650 751 650 c 0
 785 650 794 654 843 654 c 0
 858 654 865 650 865 642 c 0
 865 633 852 626 830 622 c 0
 781 613 770 591 758 552 c 2
 614 83 l 2
 604 50 611 32 649 25 c 0
 668 21 672 16 672 7 c 0
 672 -1 658 -5 643 -5 c 0
 594 -5 581 0 543 0 c 0
 504 0 485 -5 436 -5 c 0
 421 -5 413 -1 413 7 c 0
 413 16 426 21 448 25 c 0
 491 33 520 55 534 97 c 2
 595 292 l 2
 597 300 600 307 594 307 c 2
 262 307 l 2
 257 307 255 303 253 295 c 2
 194 103 l 2
 177 48 199 34 241 25 c 0
 260 21 264 16 264 7 c 0
 264 -1 250 -5 235 -5 c 0
 186 -5 164 0 122 0 c 0
 82 0 63 -5 14 -5 c 0
EndSplineSet
AlternateSubs2: "'ssty' Script Style in Mathematical Alphanumeric Symbols lookup 2 subtable" u1D43B.s u1D43B.ss
EndChar

StartChar: u1D43C
Encoding: 119868 119868 116
Width: 417
GlyphClass: 2
Flags: HW
TeX: 653 5
ItalicCorrection: 79
TopAccentHorizontal: 335
HStem: -5 30<-7.05476 74.9678 218.29 281.39> 622 32<196.008 255.756 384.494 466.817>
LayerCount: 2
Fore
SplineSet
15 -5 m 0
 0 -5 -8 -1 -8 7 c 0
 -8 16 5 21 27 25 c 0
 77 34 108 52 122 98 c 2
 260 550 l 2
 274 596 263 612 218 622 c 0
 199 626 195 633 196 642 c 0
 196 650 210 654 225 654 c 0
 274 654 294 650 337 650 c 0
 377 650 396 654 445 654 c 0
 460 654 468 650 468 642 c 0
 468 633 454 626 432 622 c 0
 382 612 358 596 344 550 c 2
 208 103 l 2
 193 52 212 35 256 26 c 0
 277 22 282 16 282 7 c 0
 282 -1 268 -5 253 -5 c 0
 204 -5 181 0 138 0 c 0
 93 0 64 -5 15 -5 c 0
EndSplineSet
AlternateSubs2: "'ssty' Script Style in Mathematical Alphanumeric Symbols lookup 2 subtable" u1D43C.s u1D43C.ss
EndChar

StartChar: u1D43D
Encoding: 119869 119869 117
Width: 427
GlyphClass: 2
Flags: HW
TeX: 653 200
ItalicCorrection: 75
TopAccentHorizontal: 343
HStem: -200 38<-41.8121 38.38> 622 32<214.63 274.532 395.63 472.931>
LayerCount: 2
Fore
SplineSet
-38 -200 m 0
 -103 -200 -132 -170 -132 -146 c 0
 -132 -117 -124 -98 -106 -98 c 0
 -94 -98 -77 -117 -56 -133 c 0
 -39 -146 -19 -162 3 -162 c 0
 41 -162 70 -131 109 -2 c 2
 278 551 l 2
 292 597 283 613 238 622 c 0
 219 626 213 633 214 642 c 0
 214 650 229 654 244 654 c 0
 293 654 313 650 356 650 c 0
 391 650 403 654 452 654 c 0
 467 654 474 650 474 642 c 0
 474 633 461 626 439 622 c 0
 389 612 378 596 363 551 c 2
 235 132 l 2
 176 -61 143 -92 102 -133 c 0
 63 -173 18 -200 -38 -200 c 0
EndSplineSet
AlternateSubs2: "'ssty' Script Style in Mathematical Alphanumeric Symbols lookup 2 subtable" u1D43D.s u1D43D.ss
EndChar

StartChar: u1D43E
Encoding: 119870 119870 118
Width: 774
GlyphClass: 2
Flags: HW
TeX: 655 5
ItalicCorrection: 83
TopAccentHorizontal: 487
HStem: -5 30<7.97225 87.393 226.104 284.739 401.426 461.017 619.733 688.653> 323 25<296.554 312.264> 622 32<201.59 262.133 379.739 458.949 565.56 609.883 724.997 826.609>
LayerCount: 2
Fore
SplineSet
31 -5 m 0
 15 -5 7 -1 7 7 c 0
 8 16 21 21 43 25 c 0
 93 34 113 52 128 101 c 2
 266 551 l 2
 280 597 270 613 225 622 c 0
 206 626 201 632 201 641 c 0
 201 649 216 654 232 654 c 0
 280 654 299 651 339 651 c 0
 375 651 388 654 437 654 c 0
 452 654 460 650 460 642 c 0
 460 632 446 626 424 622 c 0
 374 612 367 603 351 551 c 2
 295 361 l 2
 292 351 295 348 306 348 c 0
 327 348 348 363 376 387 c 2
 580 565 l 2
 597 580 610 591 610 602 c 0
 611 607 605 614 589 619 c 0
 574 624 565 630 565 639 c 0
 565 647 584 651 600 651 c 2
 653 651 l 2
 708 651 770 655 811 655 c 0
 823 655 829 650 829 643 c 0
 829 634 814 627 792 623 c 0
 740 614 685 597 631 558 c 0
 548 497 484 440 396 360 c 0
 390 354 390 347 394 340 c 0
 470 199 527 119 573 73 c 0
 604 43 630 35 663 26 c 0
 683 20 689 17 689 7 c 0
 689 -1 675 -5 658 -5 c 0
 602 -5 586 0 499 0 c 0
 473 0 466 -1 424 -1 c 0
 409 -1 401 2 401 10 c 0
 401 20 413 24 432 28 c 0
 470 37 470 44 452 75 c 2
 318 303 l 2
 310 317 290 323 285 323 c 0
 280 323 277 311 275 303 c 2
 220 109 l 2
 204 54 216 35 260 25 c 0
 279 21 285 16 285 7 c 0
 285 -2 270 -5 254 -5 c 0
 202 -5 191 2 153 2 c 0
 108 2 83 -5 31 -5 c 0
EndSplineSet
AlternateSubs2: "'ssty' Script Style in Mathematical Alphanumeric Symbols lookup 2 subtable" u1D43E.s u1D43E.ss
EndChar

StartChar: u1D43F
Encoding: 119871 119871 119
Width: 585
GlyphClass: 2
Flags: HW
TeX: 653 5
ItalicCorrection: 31
TopAccentHorizontal: 348
HStem: -5 36<-4.93046 93.7198 223.973 444.272> 622 32<210.809 274.038 391.953 494.979>
LayerCount: 2
Fore
SplineSet
15 -5 m 0
 0 -5 -8 -1 -8 7 c 0
 -8 16 5 21 27 25 c 0
 76 35 117 53 131 99 c 2
 272 559 l 2
 287 606 279 613 234 622 c 0
 215 626 210 633 210 642 c 0
 210 650 225 654 240 654 c 0
 289 654 308 648 349 648 c 0
 394 648 425 654 474 654 c 0
 489 654 496 650 496 642 c 0
 496 631 480 626 458 624 c 0
 405 618 371 604 359 565 c 2
 226 118 l 2
 210 62 217 31 266 31 c 2
 340 31 l 2
 411 31 453 46 480 72 c 0
 507 97 523 123 544 156 c 0
 550 164 552 167 560 167 c 0
 566 167 569 162 569 154 c 0
 569 133 535 40 517 11 c 0
 512 3 503 -5 494 -5 c 0
 355 -5 238 1 142 1 c 0
 94 1 64 -5 15 -5 c 0
EndSplineSet
AlternateSubs2: "'ssty' Script Style in Mathematical Alphanumeric Symbols lookup 2 subtable" u1D43F.s u1D43F.ss
EndChar

StartChar: u1D440
Encoding: 119872 119872 120
Width: 1041
GlyphClass: 2
Flags: HW
TeX: 658 14
ItalicCorrection: 68
TopAccentHorizontal: 646
HStem: -14 21G<412.115 417.015> -3 30<-14.5561 66.9729 183.996 235.141 635.595 702.643 869.446 924.672> 625 33<241.662 334.74 992.067 1081.09>
VStem: 399 80<281.263 512.914> 405 83<159.673 496.98>
LayerCount: 2
Fore
SplineSet
415 -14 m 0xa8
 410 -14 405 -4 405 11 c 0xa8
 409 176 406 340 399 505 c 0
 398 532 385 530 371 502 c 0
 311 384 257 266 207 148 c 0
 168 55 176 33 206 27 c 0
 225 24 235 18 235 9 c 0
 235 1 217 -3 202 -3 c 0
 151 -3 140 0 95 0 c 0
 60 0 49 -6 5 -6 c 0
 -11 -6 -18 -3 -18 5 c 0
 -18 14 -5 20 17 24 c 0
 73 35 103 57 149 146 c 2
 344 528 l 2
 372 581 363 613 279 625 c 0
 252 629 242 632 242 642 c 0
 242 653 258 658 283 658 c 0
 318 658 405 653 449 653 c 0
 477 653 481 632 479 581 c 2x70
 488 170 l 2
 489 142 501 150 517 167 c 0
 638 302 750 439 863 575 c 1
 878 603 884 618 895 636 c 0
 901 646 907 650 916 650 c 2
 955 650 l 2
 975 650 1029 658 1049 658 c 0
 1065 658 1081 652 1081 643 c 0
 1081 632 1071 624 1039 620 c 0
 980 611 968 603 948 534 c 0
 912 410 883 277 858 148 c 0
 842 65 857 35 900 27 c 0
 919 24 925 18 925 9 c 0
 925 3 910 -3 895 -3 c 0x68
 846 -3 815 7 770 7 c 0
 725 7 706 -3 657 -3 c 0
 642 -3 635 1 635 9 c 0
 635 17 648 24 669 29 c 0
 713 39 731 59 746 103 c 0
 793 251 823 360 856 494 c 0
 858 501 850 502 844 495 c 2
 555 159 l 1
 440 9 l 2
 428 -6 419 -14 415 -14 c 0xa8
EndSplineSet
AlternateSubs2: "'ssty' Script Style in Mathematical Alphanumeric Symbols lookup 2 subtable" u1D440.s u1D440.ss
EndChar

StartChar: u1D441
Encoding: 119873 119873 121
Width: 820
GlyphClass: 2
Flags: HW
TeX: 658 5
ItalicCorrection: 88
TopAccentHorizontal: 474
HStem: -5 30<-19.4074 51.3358 169.621 239.063> 620 31<602.112 680.34 791.949 878.097> 624 34<145.408 238.47>
LayerCount: 2
Fore
SplineSet
3 -5 m 0xc0
 -12 -5 -20 -1 -20 7 c 0
 -20 16 -13 20 9 25 c 0
 70 39 89 63 100 97 c 2
 241 524 l 2
 261 586 259 619 183 624 c 0
 161 626 145 633 145 644 c 0
 145 656 163 658 171 658 c 0xa0
 224 658 270 653 307 653 c 0
 319 653 330 645 335 635 c 2
 559 159 l 2
 562 153 571 141 578 141 c 0
 583 141 585 146 591 160 c 0
 607 201 696 496 705 538 c 0
 717 590 692 610 627 620 c 0
 608 623 602 630 602 639 c 0
 602 647 619 651 634 651 c 0
 672 651 705 647 742 647 c 0
 781 647 802 653 858 653 c 0
 874 653 880 649 880 641 c 0
 880 632 866 624 844 622 c 0
 793 617 782 606 759 550 c 0
 747 520 630 172 614 118 c 0
 607 95 610 83 618 66 c 0
 626 48 639 41 650 33 c 0
 661 25 669 19 669 7 c 0
 669 0 664 0 659 0 c 0
 620 0 597 -5 578 -5 c 0
 555 -5 544 1 533 24 c 0
 466 166 380 383 311 512 c 0
 304 526 295 534 288 534 c 0
 281 534 272 522 266 502 c 0
 238 404 183 237 150 98 c 0
 141 59 160 35 211 24 c 0
 230 20 240 16 239 7 c 0
 239 -1 225 -5 210 -5 c 0
 159 -5 145 0 111 0 c 0
 69 0 47 -5 3 -5 c 0xc0
EndSplineSet
AlternateSubs2: "'ssty' Script Style in Mathematical Alphanumeric Symbols lookup 2 subtable" u1D441.s u1D441.ss
EndChar

StartChar: u1D442
Encoding: 119874 119874 122
Width: 701
GlyphClass: 2
Flags: HW
TeX: 664 14
ItalicCorrection: 5
TopAccentHorizontal: 442
HStem: -14 32<226.59 362.125> 635 29<383.84 508.17>
VStem: 60 92<121.649 342.665> 587 92<302.875 528.634>
LayerCount: 2
Fore
SplineSet
287 -14 m 0
 133 -14 60 103 60 243 c 0
 60 438 205 664 453 664 c 0
 607 664 679 547 679 407 c 0
 679 212 535 -14 287 -14 c 0
289 18 m 0
 465 18 587 258 587 448 c 0
 587 541 548 635 450 635 c 0
 281 635 152 392 152 202 c 0
 152 109 191 18 289 18 c 0
EndSplineSet
AlternateSubs2: "'ssty' Script Style in Mathematical Alphanumeric Symbols lookup 2 subtable" u1D442.s u1D442.ss
EndChar

StartChar: u1D443
Encoding: 119875 119875 123
Width: 636
GlyphClass: 2
Flags: HW
TeX: 656 5
ItalicCorrection: 22
TopAccentHorizontal: 399
HStem: -5 30<0.855633 82.1508 224.286 287.826> 251 27<311.632 399.721> 626 27<177.862 250.727 369.618 463.395>
VStem: 538 92<387.284 560.963>
LayerCount: 2
Fore
SplineSet
23 -5 m 0
 8 -5 0 -1 0 7 c 0
 0 16 13 21 35 25 c 0
 85 34 112 52 127 100 c 2
 261 539 l 2
 278 596 265 619 202 626 c 0
 183 628 178 633 178 642 c 0
 178 650 193 653 209 653 c 0
 223 653 274 652 304 652 c 0
 326 652 389 656 418 656 c 0
 546 656 630 585 630 471 c 0
 629 341 498 251 354 251 c 0
 339 251 312 253 312 265 c 0
 312 273 323 277 335 278 c 0
 353 280 370 284 388 288 c 0
 474 310 538 377 538 479 c 0
 538 566 486 628 392 628 c 0
 375 628 370 618 359 582 c 2
 214 110 l 2
 197 58 212 36 264 25 c 0
 283 21 288 16 288 7 c 0
 288 -1 274 -5 258 -5 c 0
 209 -5 185 2 149 2 c 0
 102 2 72 -5 23 -5 c 0
EndSplineSet
AlternateSubs2: "'ssty' Script Style in Mathematical Alphanumeric Symbols lookup 2 subtable" u1D443.s u1D443.ss
EndChar

StartChar: u1D444
Encoding: 119876 119876 124
Width: 749
GlyphClass: 2
Flags: HW
TeX: 664 270
ItalicCorrection: 5
TopAccentHorizontal: 461
HStem: -272 59<528.029 642.588> -14 23<308.071 347.499> 633 31<404.864 537.002>
VStem: 91 92<125.611 347.557> 622 92<292.195 524.011>
LayerCount: 2
Fore
SplineSet
704 -162 m 0
 720 -140 733 -154 726 -169 c 0
 705 -216 634 -272 561 -272 c 0
 489 -272 425 -234 363 -199 c 0
 305 -166 244 -135 179 -135 c 0
 156 -135 135 -138 119 -144 c 0
 99 -152 84 -161 72 -161 c 0
 61 -161 59 -161 59 -151 c 0
 59 -114 252 -58 323 -25 c 0
 332 -21 340 -16 348 -12 c 1
 342 -13 334 -14 326 -14 c 1
 168 -14 91 103 91 243 c 0
 91 438 232 664 484 664 c 0
 637 664 714 547 714 407 c 0
 714 270 638 122 490 29 c 0
 416 -18 366 -49 271 -83 c 1
 325 -85 384 -111 433 -140 c 0
 496 -177 557 -214 605 -214 c 0
 648 -214 681 -193 704 -162 c 0
383 9 m 2
 385 9 l 1
 533 101 622 253 622 448 c 0
 622 542 578 633 472 633 c 0
 306 633 183 394 183 202 c 0
 183 110 232 9 383 9 c 2
EndSplineSet
AlternateSubs2: "'ssty' Script Style in Mathematical Alphanumeric Symbols lookup 2 subtable" u1D444.s u1D444.ss
EndChar

StartChar: u1D445
Encoding: 119877 119877 125
Width: 674
GlyphClass: 2
Flags: HW
TeX: 655 5
ItalicCorrection: 5
TopAccentHorizontal: 386
HStem: -5 30<-12.0328 68.6282 207.075 262.438 564.327 630.703> 298 21<285.805 328.795> 622 32<161.536 250.794> 629 22<364.541 443.477>
VStem: 511 91<423.861 579.744>
LayerCount: 2
Fore
SplineSet
10 -5 m 0xd8
 -5 -5 -13 -1 -13 7 c 0
 -13 16 0 21 22 25 c 0
 72 34 98 52 113 100 c 2
 248 540 l 2
 269 607 260 615 189 622 c 0
 169 624 161 629 161 639 c 0
 161 649 180 654 196 654 c 1xe8
 204 654 283 651 290 651 c 1
 328 651 374 655 405 655 c 0
 511 655 602 609 602 507 c 0
 602 400 516 340 429 314 c 0
 420 311 416 306 420 298 c 0
 436 257 491 141 510 102 c 0
 535 51 557 36 597 30 c 0
 614 27 632 25 632 15 c 0
 632 -1 606 -4 570 -4 c 0
 509 -4 465 6 447 39 c 0
 415 97 374 190 350 251 c 0
 335 288 326 298 292 298 c 0
 265 298 258 294 254 280 c 2
 200 110 l 2
 185 63 194 34 239 25 c 0
 258 21 263 16 263 7 c 0
 263 -1 249 -5 234 -5 c 0
 185 -5 171 2 136 2 c 0
 89 2 59 -5 10 -5 c 0xd8
328 319 m 0
 389 319 511 365 511 510 c 0
 511 576 462 629 395 629 c 0xd8
 367 629 355 618 337 552 c 2
 284 357 l 2
 276 326 286 319 328 319 c 0
EndSplineSet
AlternateSubs2: "'ssty' Script Style in Mathematical Alphanumeric Symbols lookup 2 subtable" u1D445.s u1D445.ss
EndChar

StartChar: u1D446
Encoding: 119878 119878 126
Width: 559
GlyphClass: 2
Flags: HW
TeX: 664 15
ItalicCorrection: 36
TopAccentHorizontal: 354
HStem: -15 31<151.571 284.354> 0 21G<33.5 39.1997> 634 30<323.082 436.233>
VStem: 17 77<19.5996 152.6> 175 78<433.785 563.421> 363 85<95.1701 227.769> 495 30<463.449 561.116>
LayerCount: 2
Fore
SplineSet
218 -15 m 0xbe
 182 -15 146 -9 112 4 c 0
 95 11 83 16 79 16 c 0
 72 16 64 13 57 10 c 0
 49 5 42 0 37 0 c 0x7e
 31 0 17 12 17 20 c 0
 17 32 53 94 64 173 c 0
 66 188 70 195 81 195 c 0
 93 195 94 182 94 153 c 0
 94 78 131 16 214 16 c 0
 298 16 363 68 363 153 c 0
 363 204 345 237 278 299 c 0
 220 352 175 403 175 480 c 0
 175 587 267 664 388 664 c 0
 412 664 439 657 463 651 c 0
 489 643 506 635 517 635 c 0
 526 635 532 637 537 640 c 0
 543 643 548 645 555 645 c 0
 565 645 568 634 567 628 c 0
 564 622 540 591 525 494 c 0
 522 475 513 463 508 463 c 0
 497 463 495 474 495 491 c 0
 495 583 448 634 378 634 c 0
 307 634 253 570 253 508 c 0
 253 456 276 416 346 352 c 0
 416 289 448 243 448 186 c 0
 448 77 366 -15 218 -15 c 0xbe
EndSplineSet
AlternateSubs2: "'ssty' Script Style in Mathematical Alphanumeric Symbols lookup 2 subtable" u1D446.s u1D446.ss
EndChar

StartChar: u1D447
Encoding: 119879 119879 127
Width: 618
GlyphClass: 2
Flags: HW
TeX: 666 5
ItalicCorrection: 105
TopAccentHorizontal: 376
HStem: -5 28<64.0741 142.686 294.269 353.523> 614 29<172.088 330.608 429.091 596.633> 650 20G<131.011 137.111 682.61 689.811>
VStem: 59 57<525.013 567.456> 620 27<496.428 565.099>
LayerCount: 2
Fore
SplineSet
87 -5 m 0
 72 -5 63 -1 63 7 c 0
 64 16 78 19 100 23 c 0
 150 32 181 54 195 101 c 2
 318 529 l 2
 338 598 333 614 315 614 c 2
 237 614 l 2
 174 614 141 583 116 553 c 0
 98 533 82 503 70 503 c 0
 61 503 59 506 59 517 c 0
 59 520 62 531 70 547 c 0
 86 577 105 613 116 649 c 0
 119 659 128 670 134 670 c 0
 140 670 148 662 155 656 c 0
 163 649 171 643 234 643 c 2
 580 643 l 2
 644 643 656 650 664 656 c 0
 673 662 680 670 686 670 c 0
 694 670 696 665 695 658 c 0
 695 650 690 638 686 631 c 0
 677 614 658 566 647 513 c 0
 644 501 641 496 635 496 c 0
 626 496 620 505 620 521 c 0
 620 581 603 614 552 614 c 2
 459 614 l 2
 432 614 423 603 402 527 c 2
 280 102 l 2
 266 55 286 33 330 23 c 0
 349 19 354 16 354 7 c 0
 354 -1 339 -5 324 -5 c 0
 275 -5 254 0 212 0 c 0
 166 0 136 -5 87 -5 c 0
EndSplineSet
AlternateSubs2: "'ssty' Script Style in Mathematical Alphanumeric Symbols lookup 2 subtable" u1D447.s u1D447.ss
EndChar

StartChar: u1D448
Encoding: 119880 119880 128
Width: 781
GlyphClass: 2
Flags: HW
TeX: 653 14
ItalicCorrection: 71
TopAccentHorizontal: 473
HStem: -14 45<244.971 416.931> 620 33<157.837 206.97 328.527 391.947 591.742 651.931 750.292 822.785>
LayerCount: 2
Fore
SplineSet
300 -14 m 0
 165 -14 62 69 118 252 c 2
 207 546 l 2
 222 592 207 614 186 620 c 0
 166 626 157 633 157 642 c 0
 157 650 178 653 194 653 c 0
 224 653 252 650 288 650 c 0
 318 650 349 652 371 652 c 0
 387 652 395 649 394 641 c 0
 392 631 377 627 354 620 c 0
 333 614 305 588 289 534 c 2
 200 238 l 2
 157 95 233 31 329 31 c 0
 470 31 543 144 580 268 c 0
 603 345 631 432 643 471 c 0
 681 590 664 607 618 621 c 0
 606 624 591 631 591 640 c 0
 591 648 607 651 623 651 c 1
 631 651 718 650 724 650 c 1
 755 650 779 653 802 653 c 0
 818 653 826 650 825 642 c 0
 824 633 811 627 788 622 c 0
 753 613 739 605 703 509 c 0
 675 433 647 346 614 254 c 0
 559 98 478 -14 300 -14 c 0
EndSplineSet
AlternateSubs2: "'ssty' Script Style in Mathematical Alphanumeric Symbols lookup 2 subtable" u1D448.s u1D448.ss
EndChar

StartChar: u1D449
Encoding: 119881 119881 129
Width: 651
GlyphClass: 2
Flags: HW
TeX: 656 14
ItalicCorrection: 105
TopAccentHorizontal: 396
HStem: -14 21G<93.7207 112.621> 621 31<79.8878 143.682 269.148 345.766 489.473 534.187 653.238 726.26>
LayerCount: 2
Fore
SplineSet
105 -14 m 0
 83 -14 68 6 80 69 c 0
 118 285 144 435 154 550 c 0
 157 592 154 614 104 622 c 0
 84 625 79 633 79 642 c 0
 79 651 92 656 109 656 c 0
 137 656 178 650 220 650 c 0
 256 650 299 652 323 652 c 0
 338 652 347 648 347 640 c 0
 347 631 329 623 312 621 c 0
 272 615 252 602 244 553 c 2
 176 147 l 2
 172 126 174 118 180 118 c 0
 185 118 191 130 207 149 c 2
 483 489 l 2
 557 579 543 616 513 621 c 0
 493 624 489 632 489 641 c 0
 489 649 504 652 520 652 c 0
 540 652 577 650 612 650 c 0
 653 650 673 656 705 656 c 0
 721 656 729 651 729 643 c 0
 729 633 714 627 692 620 c 0
 656 610 613 590 575 543 c 2
 206 100 l 2
 163 49 121 -14 105 -14 c 0
EndSplineSet
AlternateSubs2: "'ssty' Script Style in Mathematical Alphanumeric Symbols lookup 2 subtable" u1D449.s u1D449.ss
EndChar

StartChar: u1D44A
Encoding: 119882 119882 130
Width: 1032
GlyphClass: 2
Flags: HW
TeX: 656 14
ItalicCorrection: 101
TopAccentHorizontal: 580
HStem: -14 21G<99 121.2 460.3 487.5> 622 34<71.427 153.777 269.377 351.754 441.661 520.977 648.546 738.164 845.258 897.069 1025.15 1104.92>
VStem: 536 203<559.3 646.8>
LayerCount: 2
Fore
SplineSet
112 -14 m 0
 86 -14 83 39 91 83 c 0
 119 231 151 420 163 526 c 0
 172 604 165 611 103 622 c 0
 83 625 71 631 71 642 c 0
 71 653 88 656 108 656 c 0
 136 656 173 650 223 650 c 0
 259 650 301 651 325 651 c 0
 341 651 352 647 352 639 c 0
 351 630 330 622 312 620 c 0
 264 614 256 602 246 541 c 0
 227 418 206 296 186 171 c 0
 180 129 188 129 222 169 c 2
 489 484 l 2
 524 525 536 549 536 569 c 0
 536 601 520 615 472 622 c 0
 452 625 441 632 441 643 c 0
 441 652 460 656 477 656 c 0
 508 656 569 650 608 650 c 0
 646 650 683 656 716 656 c 0
 732 656 739 651 739 643 c 0
 739 634 724 626 702 622 c 0
 641 612 627 597 620 551 c 2
 563 171 l 2
 556 129 567 130 599 170 c 2
 852 487 l 2
 924 578 913 612 868 621 c 0
 848 625 842 629 843 639 c 0
 843 648 859 652 875 652 c 0
 895 652 954 650 989 650 c 0
 1030 650 1050 656 1082 656 c 0
 1098 656 1106 651 1106 643 c 0
 1106 633 1091 624 1069 620 c 0
 1027 612 990 591 951 543 c 2
 584 99 l 2
 545 52 496 -14 480 -14 c 0
 441 -14 459 60 468 112 c 1
 472 134 529 467 532 488 c 1
 210 102 l 2
 173 57 130 -14 112 -14 c 0
EndSplineSet
AlternateSubs2: "'ssty' Script Style in Mathematical Alphanumeric Symbols lookup 2 subtable" u1D44A.s u1D44A.ss
EndChar

StartChar: u1D44B
Encoding: 119883 119883 131
Width: 727
GlyphClass: 2
Flags: HW
TeX: 656 5
ItalicCorrection: 72
TopAccentHorizontal: 470
HStem: -5 33<-27.5173 63.1367 182.176 231.384 325.625 393.367 537.545 615.448> 622 33<162.95 240.966 364.323 440.725 531.625 580.866 693.653 768.984>
LayerCount: 2
Fore
SplineSet
-4 -5 m 0
 -20 -5 -29 -3 -29 6 c 0
 -29 15 -15 25 8 28 c 0
 53 34 94 54 161 125 c 2
 314 287 l 2
 333 307 345 322 335 354 c 2
 283 532 l 2
 261 608 231 616 193 622 c 0
 175 625 162 634 162 643 c 0
 162 651 183 655 198 655 c 0
 233 655 282 650 329 650 c 0
 367 650 397 652 417 652 c 0
 433 652 441 649 441 641 c 0
 441 632 428 623 405 621 c 0
 355 617 350 599 369 530 c 2
 405 397 l 2
 410 378 418 378 432 394 c 2
 537 518 l 2
 600 593 590 612 556 620 c 0
 544 623 531 631 531 640 c 0
 531 648 545 651 561 651 c 0
 584 651 611 650 639 650 c 0
 675 650 720 656 747 656 c 0
 763 656 772 653 772 644 c 0
 772 635 757 630 735 624 c 0
 698 614 632 571 584 519 c 2
 447 369 l 2
 429 349 425 341 429 327 c 2
 490 109 l 2
 504 56 522 44 590 27 c 0
 609 22 616 15 616 6 c 0
 616 -2 603 -5 587 -5 c 0
 555 -5 487 1 441 1 c 0
 403 1 374 0 350 -0 c 0
 335 0 326 3 326 11 c 0
 326 20 348 27 362 31 c 0
 409 43 419 66 407 109 c 2
 362 271 l 2
 358 285 350 286 342 276 c 2
 201 104 l 2
 166 62 174 39 207 30 c 0
 226 24 231 21 231 12 c 0
 231 4 217 -1 201 -1 c 0
 181 -1 148 1 114 1 c 0
 72 1 28 -5 -4 -5 c 0
EndSplineSet
AlternateSubs2: "'ssty' Script Style in Mathematical Alphanumeric Symbols lookup 2 subtable" u1D44B.s u1D44B.ss
EndChar

StartChar: u1D44C
Encoding: 119884 119884 132
Width: 642
GlyphClass: 2
Flags: HW
TeX: 653 5
ItalicCorrection: 105
TopAccentHorizontal: 405
HStem: -5 30<78.9422 157.505 310.333 368.459> 619 34<117.95 178.188 293.02 367.299 484.631 537.964 642.387 716.555>
LayerCount: 2
Fore
SplineSet
102 -5 m 0
 86 -5 78 -1 78 7 c 0
 78 16 92 21 114 25 c 0
 164 34 197 61 212 108 c 2
 262 266 l 2
 272 294 269 314 261 343 c 2
 205 549 l 2
 193 592 175 615 145 619 c 0
 125 622 117 633 117 642 c 0
 117 650 136 653 151 653 c 0
 183 653 219 650 265 650 c 0
 295 650 323 652 346 652 c 0
 361 652 369 649 369 641 c 0
 369 632 355 625 332 621 c 0
 291 614 283 604 295 558 c 2
 337 396 l 2
 344 371 349 360 356 360 c 0
 363 360 374 372 390 390 c 0
 434 440 464 480 509 536 c 0
 552 590 548 610 508 620 c 0
 495 623 484 631 484 640 c 0
 484 648 498 651 514 651 c 0
 542 651 564 650 595 650 c 0
 633 650 671 653 694 653 c 0
 710 653 719 651 719 642 c 0
 718 633 703 629 685 623 c 0
 645 611 588 568 560 537 c 0
 509 483 433 396 393 353 c 0
 364 322 354 294 342 256 c 2
 297 108 l 2
 283 62 300 35 344 25 c 0
 363 21 369 17 369 7 c 0
 369 -1 354 -5 338 -5 c 0
 289 -5 267 0 225 0 c 0
 179 0 151 -5 102 -5 c 0
EndSplineSet
AlternateSubs2: "'ssty' Script Style in Mathematical Alphanumeric Symbols lookup 2 subtable" u1D44C.s u1D44C.ss
EndChar

StartChar: u1D44D
Encoding: 119885 119885 133
Width: 641
GlyphClass: 2
Flags: HW
TeX: 653 5
ItalicCorrection: 78
TopAccentHorizontal: 434
HStem: -5 38<146.23 465.474> 617 30<346.342 547.915>
LayerCount: 2
Fore
SplineSet
518 -5 m 0
 430 -5 278 -1 188 -1 c 0
 145 -1 52 -3 -2 -3 c 0
 -9 -3 -5 12 -4 13 c 1
 2 25 47 75 78 106 c 0
 255 288 368 418 548 600 c 0
 553 605 561 616 539 617 c 0
 497 619 375 614 314 608 c 0
 281 604 226 579 189 519 c 0
 179 504 170 492 160 492 c 0
 151 492 148 501 148 511 c 0
 148 515 151 526 156 537 c 0
 169 566 189 606 199 629 c 0
 206 646 214 655 229 655 c 0
 248 655 285 648 322 647 c 0
 369 646 432 647 474 647 c 0
 549 647 610 648 676 650 c 0
 684 650 693 631 689 627 c 2
 610 546 l 2
 431 366 320 257 154 67 c 0
 140 51 142 41 160 39 c 0
 186 36 221 33 262 33 c 0
 306 33 390 37 433 45 c 0
 498 55 554 86 595 151 c 0
 600 159 606 170 616 170 c 0
 626 170 625 160 625 151 c 0
 624 128 565 39 549 12 c 0
 544 3 536 -5 518 -5 c 0
EndSplineSet
AlternateSubs2: "'ssty' Script Style in Mathematical Alphanumeric Symbols lookup 2 subtable" u1D44D.s u1D44D.ss
EndChar

StartChar: u1D44E
Encoding: 119886 119886 134
Width: 521
GlyphClass: 2
Flags: HW
TeX: 426 14
ItalicCorrection: 4
TopAccentHorizontal: 320
HStem: -14 69<74.3135 140.76 308.965 375.205> 354 58<298.152 367.397>
VStem: 17 86<19.7998 107.516> 372 96<310.6 409.9>
LayerCount: 2
Fore
SplineSet
69 -14 m 0
 44 -14 17 9 17 31 c 0
 17 101 90 209 207 316 c 0
 277 379 323 412 345 412 c 0
 356 412 368 405 377 396 c 0
 394 374 388 382 389 382 c 0
 391 382 393 384 395 388 c 0
 413 418 414 421 411 418 c 1
 415 425 420 428 425 428 c 0
 445 428 468 415 468 404 c 0
 468 400 467 393 462 381 c 2
 351 88 l 2
 343 68 349 55 364 55 c 0
 387 55 425 81 451 115 c 0
 453 118 457 120 460 120 c 0
 465 120 467 116 467 108 c 0
 467 98 444 63 421 41 c 0
 382 5 341 -14 309 -14 c 0
 287 -14 263 7 263 27 c 0
 263 33 265 42 269 50 c 1
 259 31 295 112 314 152 c 0
 320 165 320 174 312 166 c 0
 193 32 129 -14 69 -14 c 0
132 55 m 0
 160 55 221 105 291 189 c 0
 340 247 372 299 372 322 c 0
 372 327 366 335 358 342 c 0
 349 349 338 354 331 354 c 0
 307 354 260 326 226 293 c 0
 162 231 103 136 103 89 c 0
 103 69 115 55 132 55 c 0
EndSplineSet
AlternateSubs2: "'ssty' Script Style in Mathematical Alphanumeric Symbols lookup 2 subtable" u1D44E.s u1D44E.ss
EndChar

StartChar: u1D44F
Encoding: 119887 119887 135
Width: 451
GlyphClass: 2
Flags: HW
TeX: 707 8
TopAccentHorizontal: 218
HStem: -9 33<107.263 174.034> 373 43<287.258 370.1>
VStem: 23 65<37.2333 151.955> 350 74<250.396 371.665>
LayerCount: 2
Fore
SplineSet
113 -9 m 0
 58 -9 23 25 23 77 c 0
 23 109 30 151 45 194 c 2
 169 571 l 2
 177 592 179 609 179 626 c 0
 179 634 172 639 153 644 c 0
 134 649 123 656 123 660 c 0
 123 666 128 670 141 674 c 0
 174 686 249 707 262 707 c 0
 274 707 280 704 280 697 c 0
 280 684 277 676 272 662 c 0
 245 593 166 362 133 258 c 0
 128 245 135 241 144 253 c 0
 223 358 297 416 348 416 c 0
 392 416 424 384 424 341 c 0
 424 186 251 -9 113 -9 c 0
139 24 m 0
 165 24 218 70 263 130 c 0
 310 194 350 287 350 334 c 0
 350 356 337 373 321 373 c 0
 281 373 230 328 162 235 c 0
 118 172 88 117 88 91 c 0
 88 56 112 24 139 24 c 0
EndSplineSet
AlternateSubs2: "'ssty' Script Style in Mathematical Alphanumeric Symbols lookup 2 subtable" u1D44F.s u1D44F.ss
EndChar

StartChar: u1D450
Encoding: 119888 119888 136
Width: 369
GlyphClass: 2
Flags: HW
TeX: 414 15
ItalicCorrection: 9
TopAccentHorizontal: 240
HStem: -15 63<115.817 195.555> 387 29<218.638 310.414>
VStem: 29 79<55.509 203.677>
LayerCount: 2
Fore
SplineSet
120 -15 m 0
 79 -15 28 30 29 94 c 0
 31 220 124 417 291 417 c 0
 329 417 351 400 351 381 c 0
 351 358 334 331 319 331 c 0
 308 331 302 342 294 356 c 0
 285 372 273 387 252 387 c 0
 189 387 108 217 108 108 c 0
 108 63 128 48 159 48 c 0
 201 48 222 67 248 92 c 0
 257 101 260 105 268 105 c 0
 274 105 276 99 276 92 c 0
 276 65 201 -15 120 -15 c 0
EndSplineSet
AlternateSubs2: "'ssty' Script Style in Mathematical Alphanumeric Symbols lookup 2 subtable" u1D450.s u1D450.ss
EndChar

StartChar: u1D451
Encoding: 119889 119889 137
Width: 515
GlyphClass: 2
Flags: HW
TeX: 705 14
ItalicCorrection: 55
TopAccentHorizontal: 474
HStem: -14 54<67.6346 160.083> 387 34<266.19 338.41>
VStem: 15 77<41.3378 158.66> 289 79<13.5877 102.516> 451 91<617.524 694.555>
LayerCount: 2
Fore
SplineSet
538 666 m 2
 373 108 l 2
 370 98 368 88 368 79 c 0
 368 65 372 59 381 59 c 0
 406 59 451 91 478 127 c 0
 481 131 483 132 486 132 c 0
 491 132 494 129 493 123 c 0
 493 84 382 -14 336 -14 c 0
 313 -14 289 10 289 32 c 0
 289 37 290 43 293 58 c 0
 299 80 312 131 314 140 c 1
 315 149 312 153 308 147 c 0
 216 32 152 -14 82 -14 c 0
 42 -14 15 16 15 60 c 0
 15 135 67 244 140 327 c 0
 193 387 249 422 293 422 c 0
 312 422 317 418 353 395 c 0
 370 384 376 383 377 381 c 1
 377 381 382 387 382 388 c 1
 446 603 l 2
 452 626 451 622 451 627 c 0
 451 641 444 650 422 658 c 0
 394 668 393 668 393 672 c 0
 393 681 402 687 426 691 c 0
 466 698 520 705 529 705 c 0
 538 705 542 700 542 691 c 0
 542 683 542 677 538 666 c 2
125 40 m 0
 211 40 358 220 358 326 c 0
 358 364 340 387 309 387 c 0
 235 387 92 183 92 77 c 0
 92 49 100 40 125 40 c 0
EndSplineSet
AlternateSubs2: "'ssty' Script Style in Mathematical Alphanumeric Symbols lookup 2 subtable" u1D451.s u1D451.ss
EndChar

StartChar: u1D452
Encoding: 119890 119890 138
Width: 404
GlyphClass: 2
Flags: HW
TeX: 414 15
TopAccentHorizontal: 275
HStem: -15 60<123.263 210.557> 390 26<246.894 303.061>
VStem: 31 79<58.4062 200.516> 309 63<307.011 388.999>
LayerCount: 2
Fore
SplineSet
128 -15 m 0
 84 -15 31 41 31 91 c 0
 31 229 152 416 293 416 c 0
 344 416 372 394 372 359 c 0
 372 274 252 239 143 218 c 0
 135 216 132 216 129 208 c 0
 120 181 110 148 110 120 c 0
 110 73 129 45 166 45 c 0
 213 45 244 74 267 99 c 0
 274 107 280 110 285 110 c 0
 291 110 295 106 295 100 c 0
 295 98 295 94 293 91 c 0
 253 25 197 -15 128 -15 c 0
150 243 m 0
 183 245 308 279 309 358 c 0
 309 375 299 390 282 390 c 0
 228 390 144 285 143 249 c 0
 143 243 145 243 150 243 c 0
EndSplineSet
AlternateSubs2: "'ssty' Script Style in Mathematical Alphanumeric Symbols lookup 2 subtable" u1D452.s u1D452.ss
EndChar

StartChar: u1D453
Encoding: 119891 119891 139
Width: 410
GlyphClass: 2
Flags: HW
TeX: 706 290
ItalicCorrection: 174
TopAccentHorizontal: 428
HStem: -290 41<-66.1296 5.59209> 362 40<114.586 200.382 290.344 405.406> 665 41<387.698 472.105>
VStem: 486 70<588.75 652.032>
LayerCount: 2
Fore
SplineSet
-57 -290 m 0
 -113 -290 -147 -271 -147 -237 c 0
 -147 -215 -121 -193 -106 -193 c 0
 -96 -193 -86 -208 -73 -223 c 0
 -61 -237 -45 -249 -21 -249 c 0
 16 -249 35 -222 66 -118 c 2
 200 340 l 2
 204 353 200 358 186 358 c 2
 125 357 l 2
 115 357 111 362 111 370 c 0
 111 381 120 396 132 397 c 2
 201 401 l 2
 210 402 216 408 219 420 c 2
 227 451 l 2
 276 640 388 706 461 706 c 0
 520 706 556 676 556 635 c 0
 556 601 534 582 515 582 c 0
 503 582 496 600 486 623 c 0
 474 650 457 665 428 665 c 0
 374 665 351 630 313 506 c 0
 305 480 300 458 293 432 c 0
 290 422 288 419 288 412 c 0
 288 404 293 402 299 402 c 0
 338 402 373 405 407 405 c 0
 411 405 414 402 414 394 c 0
 414 385 403 364 386 364 c 2
 296 362 l 2
 281 362 272 358 269 345 c 0
 223 195 179 42 140 -108 c 0
 112 -213 0 -290 -57 -290 c 0
EndSplineSet
AlternateSubs2: "'ssty' Script Style in Mathematical Alphanumeric Symbols lookup 2 subtable" u1D453.s u1D453.ss
EndChar

StartChar: u1D454
Encoding: 119892 119892 140
Width: 585
GlyphClass: 2
Flags: HW
TeX: 414 290
TopAccentHorizontal: 331
HStem: -290 31<156.256 309.615> 79 26<242.246 287.375> 346 60<459.368 553.019> 357 35<448.659 530.72> 388 29<328.044 382.128>
VStem: 8 75<-218.396 -144.604> 158 64<113.303 243.679> 363 78<-209.982 -145.749> 393 58<251.035 356.956>
LayerCount: 2
Fore
SplineSet
219 -290 m 0xd7
 101 -290 8 -248 8 -181 c 0
 8 -135 113 -95 206 -65 c 0
 211 -63 212 -60 208 -56 c 0
 178 -32 159 -15 159 7 c 0
 159 27 183 49 213 70 c 0
 220 76 222 80 222 82 c 0
 222 84 219 87 214 89 c 0
 174 108 158 138 158 184 c 0
 158 273 243 417 355 417 c 0xcf
 383 417 394 409 404 404 c 0
 415 399 424 392 434 392 c 0xd7
 458 392 505 406 532 406 c 0
 540 406 554 399 554 382 c 0
 554 357 544 346 535 346 c 0xe7
 516 346 475 357 459 357 c 0
 452 357 444 355 447 344 c 0
 450 333 451 322 451 309 c 0xd680
 451 205 359 79 266 79 c 0
 255 79 247 75 242 69 c 0
 234 60 231 50 231 41 c 0
 231 18 241 6 274 -16 c 0
 309 -39 370 -77 401 -99 c 0
 430 -120 441 -138 441 -159 c 0
 441 -230 315 -290 219 -290 c 0xd7
261 105 m 0
 321 104 393 277 393 342 c 0xce80
 393 363 378 388 359 388 c 0
 298 388 226 236 222 153 c 0
 222 127 240 105 261 105 c 0
251 -259 m 0
 327 -259 363 -227 363 -191 c 0xc7
 363 -172 352 -149 324 -132 c 0
 311 -123 276 -100 261 -92 c 0
 251 -86 240 -83 234 -83 c 0
 226 -83 218 -85 210 -87 c 0
 132 -111 83 -139 83 -181 c 0
 83 -225 166 -259 251 -259 c 0
EndSplineSet
AlternateSubs2: "'ssty' Script Style in Mathematical Alphanumeric Symbols lookup 2 subtable" u1D454.s u1D454.ss
EndChar

StartChar: u1D456
Encoding: 119894 119894 141
Width: 351
GlyphClass: 2
Flags: HW
TeX: 613 14
ItalicCorrection: 26
TopAccentHorizontal: 302
HStem: -14 70<72.0827 153.458> 512 106<268.626 334.72>
VStem: 49 89<6.83211 73.2624> 253 96<526.014 602.124>
LayerCount: 2
Fore
SplineSet
291 512 m 0
 270 512 253 532 253 553 c 0
 253 587 279 617 313 617 c 0
 335 617 349 594 349 572 c 0
 349 540 323 512 291 512 c 0
91 -14 m 0
 67 -14 49 6 49 23 c 0
 49 28 49 33 52 39 c 0
 105 146 140 245 169 319 c 0
 171 325 170 330 164 330 c 0
 152 330 112 310 88 293 c 0
 80 287 72 291 72 299 c 0
 72 317 146 379 226 415 c 0
 245 423 270 394 265 382 c 2
 144 95 l 2
 139 85 138 76 138 68 c 0
 138 59 147 56 153 56 c 0
 179 56 225 102 262 139 c 0
 263 140 264 142 266 142 c 0
 270 142 272 138 272 135 c 0
 272 92 154 -14 91 -14 c 0
EndSplineSet
AlternateSubs2: "'ssty' Script Style in Mathematical Alphanumeric Symbols lookup 2 subtable" u1D456.s u1D456.ss
Substitution2: "'dtls' Dotless Forms in Mathematical Alphanumeric Symbols lookup 1 subtable" u1D6A4
EndChar

StartChar: u1D457
Encoding: 119895 119895 142
Width: 365
GlyphClass: 2
Flags: HW
TeX: 613 290
ItalicCorrection: 51
TopAccentHorizontal: 331
HStem: -290 43<-48.4763 20.7065> 512 106<307.427 373.521>
VStem: 292 96<526.414 602.523>
LayerCount: 2
Fore
SplineSet
329 512 m 0
 308 512 292 532 292 553 c 0
 292 587 318 618 352 618 c 0
 374 618 388 594 388 572 c 0
 388 540 361 512 329 512 c 0
-44 -290 m 0
 -94 -290 -124 -265 -124 -245 c 0
 -124 -226 -102 -203 -83 -203 c 0
 -70 -203 -60 -213 -50 -225 c 0
 -40 -236 -27 -247 -4 -247 c 0
 32 -247 54 -206 73 -146 c 2
 214 285 l 2
 222 309 218 320 206 320 c 0
 194 320 172 309 143 295 c 0
 138 293 127 294 127 301 c 0
 127 307 130 311 138 318 c 0
 197 370 239 387 295 416 c 0
 311 421 332 402 327 388 c 0
 314 354 300 316 287 276 c 2
 157 -119 l 2
 130 -201 17 -290 -44 -290 c 0
EndSplineSet
AlternateSubs2: "'ssty' Script Style in Mathematical Alphanumeric Symbols lookup 2 subtable" u1D457.s u1D457.ss
Substitution2: "'dtls' Dotless Forms in Mathematical Alphanumeric Symbols lookup 1 subtable" u1D6A5
EndChar

StartChar: u1D458
Encoding: 119896 119896 143
Width: 429
GlyphClass: 2
Flags: HW
TeX: 706 21
ItalicCorrection: 45
TopAccentHorizontal: 221
HStem: -20 66<275.681 337.434> -14 21G<37.7002 52.3003> 179 25<147.8 188.4> 370 47<309.919 400.7>
VStem: 14 60<-12.5253 69.7061> 370 76<317.505 386.6>
LayerCount: 2
Fore
SplineSet
292 -20 m 0xbc
 261 -20 243 -3 229 29 c 2
 191 138 l 2
 183 159 168 179 148 179 c 0
 139 179 128 153 122 139 c 0
 113 117 82 40 74 18 c 0
 66 -3 61 -14 43 -14 c 0x7c
 32 -14 14 -3 14 12 c 0
 14 19 16 35 22 54 c 2
 186 563 l 2
 194 587 197 604 197 620 c 0
 197 629 188 637 174 642 c 0
 161 647 149 652 149 656 c 0
 149 661 152 665 158 668 c 0
 188 683 260 706 277 706 c 0
 283 706 294 707 294 696 c 0
 294 684 293 680 290 670 c 2
 157 267 l 2
 152 253 161 256 166 263 c 0
 232 355 317 417 386 417 c 0
 415 417 446 402 446 371 c 0
 446 302 316 213 247 192 c 0
 240 190 240 187 243 180 c 2
 287 74 l 2
 293 60 305 46 320 46 c 0
 344 46 372 74 390 103 c 0
 397 114 401 116 406 116 c 0
 408 116 412 109 412 104 c 0
 412 59 327 -20 292 -20 c 0xbc
188 204 m 0
 269 204 370 295 370 339 c 0
 370 359 358 370 335 370 c 0
 280 370 177 249 177 221 c 0
 177 213 180 204 188 204 c 0
EndSplineSet
AlternateSubs2: "'ssty' Script Style in Mathematical Alphanumeric Symbols lookup 2 subtable" u1D458.s u1D458.ss
EndChar

StartChar: u1D459
Encoding: 119897 119897 144
Width: 339
GlyphClass: 2
Flags: HW
TeX: 709 14
ItalicCorrection: 29
TopAccentHorizontal: 281
HStem: -14 65<78 148.341>
VStem: 41 89<13.7386 80.4985>
LayerCount: 2
Fore
SplineSet
87 -14 m 0
 68 -14 41 10 41 32 c 0
 41 35 42 41 43 45 c 2
 231 580 l 2
 239 602 240 619 237 635 c 0
 235 646 222 657 206 662 c 0
 194 666 186 671 188 676 c 0
 194 682 205 687 212 689 c 0
 246 697 314 709 329 709 c 0
 335 709 341 703 341 693 c 0
 341 685 337 673 334 663 c 2
 134 94 l 2
 130 84 130 75 130 67 c 0
 130 57 133 51 140 51 c 0
 167 51 219 106 244 140 c 0
 251 150 261 160 267 160 c 0
 273 160 273 155 273 147 c 0
 273 82 142 -14 87 -14 c 0
EndSplineSet
AlternateSubs2: "'ssty' Script Style in Mathematical Alphanumeric Symbols lookup 2 subtable" u1D459.s u1D459.ss
EndChar

StartChar: u1D45A
Encoding: 119898 119898 145
Width: 729
GlyphClass: 2
Flags: HW
TeX: 414 17
ItalicCorrection: 10
TopAccentHorizontal: 354
HStem: -14 69<537.9 594.028> 355 62<74.3766 160.309> 372 45<559.124 614.027>
VStem: 22 16<305.862 318.948>
LayerCount: 2
Fore
SplineSet
35 -17 m 0xb0
 24 -17 12 2 12 17 c 0
 12 23 20 47 33 82 c 2
 127 325 l 2
 133 342 126 355 110 355 c 0
 91 355 70 351 38 310 c 0
 33 304 24 304 22 314 c 0
 21 326 32 355 42 366 c 0
 66 394 98 416 145 417 c 0xd0
 175 417 208 401 191 358 c 2
 134 212 l 2
 130 202 140 201 144 208 c 0
 228 338 302 417 370 417 c 0
 413 417 445 377 421 312 c 1
 388 217 l 2
 384 207 393 206 397 213 c 0
 478 345 559 417 626 417 c 0
 668 417 698 375 670 304 c 2
 586 91 l 2
 575 65 579 55 591 55 c 0
 621 55 687 123 698 133 c 0
 700 135 702 135 703 135 c 0
 707 135 711 131 711 126 c 0
 711 115 707 105 693 90 c 0
 647 38 589 -14 524 -14 c 0
 508 -14 484 9 492 32 c 2
 611 331 l 2
 621 356 607 371 592 372 c 0
 571 373 535 350 493 297 c 0
 461 256 390 150 348 74 c 0
 315 14 285 -17 268 -17 c 0
 257 -17 246 0 246 13 c 0
 246 19 255 47 268 83 c 2
 363 334 l 2
 375 364 353 373 344 374 c 0
 323 376 287 352 244 298 c 0
 212 258 143 149 102 75 c 0
 68 14 52 -17 35 -17 c 0xb0
EndSplineSet
AlternateSubs2: "'ssty' Script Style in Mathematical Alphanumeric Symbols lookup 2 subtable" u1D45A.s u1D45A.ss
EndChar

StartChar: u1D45B
Encoding: 119899 119899 146
Width: 493
GlyphClass: 2
Flags: HW
TeX: 414 16
TopAccentHorizontal: 263
HStem: -14 69<262.858 351.907> 371 45<319.548 372.795>
LayerCount: 2
Fore
SplineSet
46 -16 m 0
 29 -16 7 13 16 34 c 2
 130 313 l 2
 141 340 143 355 130 355 c 0
 111 355 88 351 56 310 c 0
 51 304 42 304 40 314 c 0
 39 326 54 354 63 366 c 0
 85 396 121 416 168 417 c 0
 193 417 214 394 204 368 c 2
 139 203 l 2
 135 193 146 192 150 199 c 0
 230 337 318 417 382 417 c 0
 429 417 458 365 431 303 c 2
 341 91 l 2
 330 65 334 55 346 55 c 0
 376 55 446 111 456 121 c 0
 458 123 460 124 461 124 c 0
 465 124 469 119 469 114 c 0
 469 108 467 102 464 98 c 0
 411 34 343 -14 279 -14 c 0
 260 -14 236 9 246 31 c 0
 285 121 327 212 362 302 c 0
 381 353 372 370 354 371 c 0
 331 372 297 344 254 290 c 0
 224 253 142 126 81 20 c 0
 68 -4 59 -16 46 -16 c 0
EndSplineSet
AlternateSubs2: "'ssty' Script Style in Mathematical Alphanumeric Symbols lookup 2 subtable" u1D45B.s u1D45B.ss
EndChar

StartChar: u1D45C
Encoding: 119900 119900 147
Width: 416
GlyphClass: 2
Flags: HW
TeX: 414 14
TopAccentHorizontal: 265
HStem: -14 31<110.465 180.375> 386 31<232.861 302.01>
VStem: 27 73<32.0481 195.568> 312 73<213.745 371.676>
LayerCount: 2
Fore
SplineSet
125 -14 m 0
 72 -14 27 42 27 103 c 0
 27 228 134 417 274 417 c 0
 344 417 385 364 385 295 c 0
 385 175 283 -14 125 -14 c 0
142 17 m 0
 220 17 312 214 312 328 c 0
 312 362 303 386 270 386 c 0
 196 386 100 208 100 77 c 0
 100 35 116 17 142 17 c 0
EndSplineSet
AlternateSubs2: "'ssty' Script Style in Mathematical Alphanumeric Symbols lookup 2 subtable" u1D45C.s u1D45C.ss
EndChar

StartChar: u1D45D
Encoding: 119901 119901 148
Width: 519
GlyphClass: 2
Flags: HW
TeX: 506 286
TopAccentHorizontal: 318
HStem: -280 27<-68.4422 -4.58382 92.8057 158.652> -14 35<204.548 279.76> 378 39<305.662 384.075>
VStem: 407 81<194.749 357.835>
LayerCount: 2
Fore
SplineSet
-60 -286 m 0
 -67 -286 -75 -284 -75 -277 c 0
 -75 -267 -58 -259 -46 -257 c 0
 -16 -251 -1 -245 8 -218 c 2
 198 318 l 2
 208 345 207 353 187 350 c 0
 156 345 136 340 108 327 c 0
 97 322 87 325 87 334 c 0
 87 345 95 352 103 356 c 0
 124 367 163 386 216 401 c 0
 225 403 231 408 235 420 c 0
 254 483 270 510 301 510 c 0
 314 510 324 502 320 487 c 2
 304 431 l 2
 300 418 303 412 308 413 c 0
 325 416 339 417 354 417 c 0
 455 417 488 362 488 291 c 0
 488 162 357 -14 223 -14 c 0
 210 -14 193 -4 180 4 c 0
 167 13 161 12 152 -13 c 2
 88 -207 l 2
 78 -235 94 -249 130 -253 c 0
 142 -254 159 -258 159 -268 c 0
 159 -276 145 -280 131 -280 c 0
 100 -280 61 -277 42 -279 c 0
 9 -283 -24 -286 -60 -286 c 0
239 21 m 0
 299 21 407 171 407 281 c 0
 407 355 378 377 330 378 c 0
 318 378 307 378 294 376 c 1
 202 107 l 2
 194 84 195 62 200 47 c 0
 206 30 218 21 239 21 c 0
EndSplineSet
AlternateSubs2: "'ssty' Script Style in Mathematical Alphanumeric Symbols lookup 2 subtable" u1D45D.s u1D45D.ss
EndChar

StartChar: u1D45E
Encoding: 119902 119902 149
Width: 506
GlyphClass: 2
Flags: HW
TeX: 428 286
ItalicCorrection: 11
TopAccentHorizontal: 288
HStem: -286 29<116.121 181.779> -273 27<291.969 346.852> -14 41<75.3003 176.812> 388 35<295.825 365.318>
VStem: 25 79<28.4154 142.143>
LayerCount: 2
Fore
SplineSet
133 -286 m 0xb8
 126 -287 114 -285 114 -277 c 0
 114 -267 131 -259 143 -257 c 0xb8
 173 -252 198 -236 207 -210 c 0
 246 -105 288 5 328 113 c 0
 334 127 328 139 313 122 c 0
 237 35 168 -14 97 -14 c 0
 53 -14 25 14 25 52 c 0
 25 136 91 248 171 332 c 0
 224 387 293 423 343 423 c 0
 373 423 390 409 400 396 c 0
 410 385 414 375 421 375 c 0
 429 375 435 381 440 391 c 2
 449 409 l 2
 458 427 470 433 481 433 c 0
 491 433 495 417 484 386 c 2
 290 -199 l 2
 281 -227 291 -243 317 -246 c 0
 331 -247 347 -251 347 -261 c 0
 347 -269 334 -273 319 -273 c 0x78
 248 -273 164 -281 133 -286 c 0xb8
128 27 m 0
 179 27 276 118 319 191 c 0
 349 242 375 298 375 337 c 0
 375 363 361 388 335 388 c 0
 273 388 103 176 104 65 c 0
 104 39 109 27 128 27 c 0
EndSplineSet
AlternateSubs2: "'ssty' Script Style in Mathematical Alphanumeric Symbols lookup 2 subtable" u1D45E.s u1D45E.ss
EndChar

StartChar: u1D45F
Encoding: 119903 119903 150
Width: 415
GlyphClass: 2
Flags: HW
TeX: 419 17
ItalicCorrection: 51
TopAccentHorizontal: 267
HStem: 358 59<118.244 201.298 332.072 394.75>
VStem: 367 71<304.108 354.191>
LayerCount: 2
Fore
SplineSet
74 -17 m 0
 63 -17 45 -4 45 10 c 0
 45 25 53 46 66 81 c 2
 159 324 l 2
 165 340 165 358 152 358 c 0
 132 358 113 350 103 344 c 0
 95 339 85 342 85 352 c 0
 85 364 98 382 118 395 c 0
 136 408 160 417 185 417 c 0
 240 417 232 371 208 310 c 2
 164 200 l 2
 159 190 172 188 176 195 c 0
 255 330 338 421 389 421 c 0
 424 421 438 397 438 369 c 0
 438 330 413 285 385 285 c 0
 373 285 368 299 367 321 c 0
 366 341 361 354 347 354 c 0
 333 354 311 337 278 293 c 0
 249 255 179 144 139 73 c 0
 104 12 91 -17 74 -17 c 0
EndSplineSet
AlternateSubs2: "'ssty' Script Style in Mathematical Alphanumeric Symbols lookup 2 subtable" u1D45F.s u1D45F.ss
EndChar

StartChar: u1D460
Encoding: 119904 119904 151
Width: 355
GlyphClass: 2
Flags: HW
TeX: 414 14
ItalicCorrection: 5
TopAccentHorizontal: 221
HStem: -14 49<58.6001 164.746> 368 49<215.785 274.466>
VStem: 133 62<258.258 336.713> 196 67<67.2236 170.532>
LayerCount: 2
Fore
SplineSet
75 -14 m 0
 41 -14 16 5 16 33 c 0
 16 64 35 81 46 81 c 0
 55 81 65 72 78 61 c 0
 93 49 110 35 139 35 c 0
 173 35 195 63 196 92 c 0
 196 120 183 156 165 189 c 0
 146 221 133 253 133 275 c 0
 133 352 234 417 270 417 c 0
 299 417 332 388 332 373 c 0
 332 360 309 332 295 332 c 0
 287 332 279 341 271 350 c 0
 263 359 251 368 233 368 c 0
 211 368 194 348 194 321 c 0
 194 304 215 259 230 231 c 0
 247 201 263 155 263 125 c 0
 263 49 157 -14 75 -14 c 0
EndSplineSet
AlternateSubs2: "'ssty' Script Style in Mathematical Alphanumeric Symbols lookup 2 subtable" u1D460.s u1D460.ss
EndChar

StartChar: u1D461
Encoding: 119905 119905 152
Width: 332
GlyphClass: 2
Flags: HW
TeX: 510 14
ItalicCorrection: 46
TopAccentHorizontal: 220
HStem: -14 78<62.9941 160.1> 361 40<78.6828 145.57 239.647 350.32>
VStem: 37 313
LayerCount: 2
Fore
SplineSet
81 -14 m 0
 62 -14 37 11 37 26 c 0
 37 46 44 59 51 80 c 2
 145 345 l 2
 149 356 141 359 135 359 c 2
 94 361 l 2
 76 362 75 371 75 376 c 0
 75 379 92 401 111 401 c 2
 149 401 l 2
 164 401 166 404 174 420 c 2
 199 470 l 2
 208 488 244 518 256 518 c 0
 268 518 270 498 265 484 c 2
 240 415 l 2
 237 405 242 403 253 403 c 0
 279 403 307 398 326 395 c 0
 348 391 350 386 350 379 c 0
 350 376 346 368 330 367 c 0
 303 365 279 363 250 362 c 0
 229 361 220 355 217 346 c 2
 130 105 l 2
 120 78 126 64 147 64 c 0
 174 64 213 102 235 123 c 0
 247 136 259 133 259 126 c 0
 260 118 255 106 245 94 c 0
 199 38 114 -14 81 -14 c 0
EndSplineSet
AlternateSubs2: "'ssty' Script Style in Mathematical Alphanumeric Symbols lookup 2 subtable" u1D461.s u1D461.ss
EndChar

StartChar: u1D462
Encoding: 119906 119906 153
Width: 509
GlyphClass: 2
Flags: HW
TeX: 418 14
ItalicCorrection: 3
TopAccentHorizontal: 292
HStem: -14 73<87.8477 135.447 293.647 358.447>
LayerCount: 2
Fore
SplineSet
88 -14 m 0
 63 -14 34 25 42 45 c 2
 146 293 l 2
 155 315 158 332 148 332 c 0
 137 332 102 305 75 280 c 0
 70 275 60 277 60 282 c 0
 60 288 62 298 73 313 c 0
 124 381 200 420 233 420 c 0
 246 420 267 397 259 381 c 0
 217 295 178 202 137 111 c 0
 125 85 121 59 135 59 c 0
 155 59 209 118 264 181 c 0
 334 261 405 362 423 394 c 0
 432 410 443 417 453 417 c 0
 468 417 486 391 480 378 c 2
 355 89 l 2
 345 65 347 52 358 52 c 0
 383 52 442 102 471 131 c 0
 472 132 474 133 475 133 c 0
 479 133 484 128 484 123 c 0
 484 113 462 90 440 73 c 1
 403 31 350 -11 294 -8 c 0
 279 -7 261 20 269 37 c 0
 295 94 332 171 344 203 c 0
 350 218 339 218 332 210 c 0
 201 64 127 -14 88 -14 c 0
EndSplineSet
AlternateSubs2: "'ssty' Script Style in Mathematical Alphanumeric Symbols lookup 2 subtable" u1D462.s u1D462.ss
EndChar

StartChar: u1D463
Encoding: 119907 119907 154
Width: 400
GlyphClass: 2
Flags: HW
TeX: 418 14
ItalicCorrection: 10
TopAccentHorizontal: 229
HStem: -14 60<73.6001 175.286> 330 90<95.5 179.187>
VStem: 326 56<226.999 383.159>
LayerCount: 2
Fore
SplineSet
99 -14 m 0
 48 -14 15 55 38 116 c 2
 103 288 l 2
 113 314 114 330 100 330 c 0
 90 330 63 307 43 286 c 0
 36 278 31 277 29 277 c 0
 24 277 21 280 21 283 c 0
 21 291 24 300 34 314 c 0
 82 379 139 420 170 420 c 0
 187 420 204 399 198 380 c 2
 110 121 l 2
 95 75 106 46 140 46 c 0
 232 46 326 168 326 278 c 0
 326 302 317 327 301 344 c 0
 291 354 288 365 288 377 c 0
 288 395 324 420 352 420 c 0
 367 420 382 397 382 349 c 0
 382 262 352 175 283 96 c 0
 220 23 154 -14 99 -14 c 0
EndSplineSet
AlternateSubs2: "'ssty' Script Style in Mathematical Alphanumeric Symbols lookup 2 subtable" u1D463.s u1D463.ss
EndChar

StartChar: u1D464
Encoding: 119908 119908 155
Width: 610
GlyphClass: 2
Flags: HW
TeX: 420 14
ItalicCorrection: 9
TopAccentHorizontal: 320
HStem: -14 60<74.0582 152.398 300.799 390.025>
VStem: 528 63<238.241 383.963>
LayerCount: 2
Fore
SplineSet
561 422 m 0
 576 422 591 397 591 349 c 0
 591 262 552 170 476 81 c 0
 422 18 368 -14 320 -14 c 0
 271 -14 252 49 261 111 c 1
 213 44 135 -14 96 -14 c 0
 44 -14 10 41 47 142 c 2
 107 302 l 2
 114 320 110 330 100 330 c 0
 93 330 64 317 43 294 c 0
 36 287 28 285 26 285 c 0
 21 285 16 288 16 293 c 0
 16 298 17 305 29 320 c 0
 79 379 146 420 177 420 c 0
 191 420 208 405 197 375 c 2
 108 122 l 2
 92 76 106 46 138 46 c 0
 187 46 268 155 277 190 c 0
 284 218 300 307 307 335 c 0
 311 352 319 369 331 377 c 0
 347 388 361 399 390 399 c 0
 406 399 404 353 393 322 c 0
 376 276 362 239 350 213 c 0
 340 190 331 156 329 141 c 0
 320 83 328 45 361 45 c 0
 433 45 528 179 528 286 c 0
 528 303 522 316 514 329 c 0
 505 345 494 357 494 366 c 0
 494 386 539 422 561 422 c 0
EndSplineSet
AlternateSubs2: "'ssty' Script Style in Mathematical Alphanumeric Symbols lookup 2 subtable" u1D464.s u1D464.ss
EndChar

StartChar: u1D465
Encoding: 119909 119909 156
Width: 457
GlyphClass: 2
Flags: HW
TeX: 414 14
ItalicCorrection: 31
TopAccentHorizontal: 262
HStem: -14 63<35.2015 70.1941 268.1 335.729> 350 67<114.052 175.5 354.224 428.767>
VStem: 372 22<105.21 139.132>
LayerCount: 2
Fore
SplineSet
15 -14 m 0
 -7 -14 -27 -1 -27 25 c 0
 -27 49 1 89 19 89 c 0
 29 89 33 80 35 71 c 0
 39 56 46 49 55 49 c 0
 64 48 75 54 84 63 c 0
 121 101 144 130 183 175 c 0
 188 181 189 188 187 195 c 2
 149 333 l 2
 145 348 142 350 134 350 c 0
 123 350 102 333 77 298 c 0
 74 294 68 284 60 284 c 0
 55 284 53 290 53 300 c 0
 53 341 116 417 164 417 c 0
 187 417 200 399 209 363 c 2
 234 259 l 2
 236 249 241 249 248 258 c 2
 317 355 l 2
 340 386 373 417 408 417 c 0
 435 417 460 388 461 372 c 0
 462 354 435 316 418 316 c 0
 409 316 403 322 399 332 c 0
 392 349 387 355 377 355 c 0
 362 355 344 342 321 314 c 0
 302 292 280 266 256 229 c 0
 251 220 248 211 253 194 c 2
 286 74 l 2
 291 55 301 49 308 49 c 0
 326 49 351 78 372 126 c 0
 376 135 380 139 385 139 c 0
 390 139 394 137 394 118 c 0
 394 81 347 -14 287 -14 c 0
 250 -14 234 11 223 53 c 1
 222 58 202 138 201 143 c 1
 197 158 193 159 185 149 c 0
 155 111 125 68 94 31 c 0
 65 -4 40 -14 15 -14 c 0
EndSplineSet
AlternateSubs2: "'ssty' Script Style in Mathematical Alphanumeric Symbols lookup 2 subtable" u1D465.s u1D465.ss
EndChar

StartChar: u1D466
Encoding: 119910 119910 157
Width: 422
GlyphClass: 2
Flags: HW
TeX: 423 290
ItalicCorrection: 10
TopAccentHorizontal: 245
HStem: -290 64<-76.1767 6.38913> 354 64<98.2241 165.811>
VStem: 182 66<87.6703 307.825> 346 58<265.826 417.596>
LayerCount: 2
Fore
SplineSet
-55 -290 m 0
 -77 -290 -104 -275 -104 -245 c 0
 -104 -217 -83 -192 -62 -192 c 0
 -49 -192 -39 -202 -29 -210 c 0
 -19 -218 -9 -226 4 -226 c 0
 50 -226 103 -162 145 -76 c 0
 174 -15 182 60 182 150 c 0
 182 299 145 354 125 354 c 0
 105 354 76 312 69 288 c 0
 67 281 58 260 50 260 c 0
 45 260 41 273 41 288 c 0
 41 351 102 418 149 418 c 0
 182 418 205 394 218 350 c 0
 236 292 254 212 248 79 c 0
 247 55 254 59 263 76 c 0
 307 161 346 271 346 405 c 0
 346 412 360 425 367 425 c 0
 376 425 404 405 404 379 c 0
 404 255 303 53 152 -130 c 0
 81 -217 1 -290 -55 -290 c 0
EndSplineSet
AlternateSubs2: "'ssty' Script Style in Mathematical Alphanumeric Symbols lookup 2 subtable" u1D466.s u1D466.ss
EndChar

StartChar: u1D467
Encoding: 119911 119911 158
Width: 419
GlyphClass: 2
Flags: HW
TeX: 418 34
ItalicCorrection: 19
TopAccentHorizontal: 221
HStem: -34 56<223.13 282.905>
VStem: -2 30<-19.9901 32.7883> 51 59<252.618 332.674> 317 49<43.0822 142.041>
LayerCount: 2
Fore
SplineSet
410 411 m 0
 411 403 403 384 388 368 c 1
 388 366 175 155 171 152 c 1
 123 104 l 1
 153 103 177 83 202 62 c 0
 225 42 247 22 270 22 c 0
 312 22 317 71 317 115 c 0
 317 139 320 146 332 146 c 0
 346 146 366 128 366 95 c 0
 366 39 268 -34 231 -34 c 0
 197 -34 168 -9 143 15 c 0
 122 34 104 52 90 52 c 0
 51 52 28 25 28 -6 c 0
 28 -19 18 -20 13 -20 c 0
 8 -20 -1 -6 -2 7 c 0
 -3 21 3 42 22 60 c 2
 289 315 l 1
 275 316 258 324 241 332 c 1
 215 342 189 356 159 359 c 0
 135 362 112 346 107 330 c 0
 103 322 102 306 108 292 c 0
 112 283 112 277 110 270 c 0
 104 260 83 249 77 248 c 0
 69 246 52 253 51 271 c 0
 49 300 60 321 86 350 c 0
 104 376 149 400 174 406 c 0
 197 411 225 410 248 404 c 0
 273 397 294 387 313 385 c 0
 334 383 347 386 364 398 c 0
 374 404 386 414 397 417 c 0
 402 418 408 416 410 411 c 0
EndSplineSet
AlternateSubs2: "'ssty' Script Style in Mathematical Alphanumeric Symbols lookup 2 subtable" u1D467.s u1D467.ss
EndChar

StartChar: u1D6E2
Encoding: 120546 120546 159
Width: 684
GlyphClass: 2
Flags: HW
TeX: 676 5
ItalicCorrection: 50
TopAccentHorizontal: 562
HStem: -5 35<-50.623 29.9617 306.977 387.688 527.23 590.813> 256 35<327.696 462.196> 656 20G<616.699 623.999>
LayerCount: 2
Fore
SplineSet
-27 -5 m 0
 -43 -5 -50 -1 -51 8 c 0
 -52 18 -39 24 -18 30 c 0
 36 44 80 70 113 107 c 0
 259 268 365 412 486 565 c 0
 511 596 525 622 534 622 c 0
 563 622 571 631 588 648 c 0
 607 668 612 676 620 676 c 0
 627 676 631 667 626 640 c 2
 523 121 l 2
 511 59 522 37 561 26 c 0
 581 20 592 18 592 8 c 0
 592 0 582 -5 561 -5 c 0
 533 -5 478 1 436 1 c 0
 400 1 354 0 330 -0 c 0
 314 0 309 4 307 12 c 0
 305 21 318 29 335 32 c 0
 399 43 417 56 431 110 c 2
 462 230 l 2
 467 249 452 256 434 256 c 2
 317 254 l 2
 297 254 286 249 276 236 c 2
 177 106 l 2
 138 55 159 43 186 34 c 0
 201 29 211 22 211 12 c 0
 211 3 198 -1 182 -1 c 0
 162 -1 134 1 99 1 c 0
 58 1 5 -5 -27 -5 c 0
345 289 m 2
 453 290 l 2
 467 290 474 296 479 316 c 2
 527 535 l 2
 531 550 531 558 524 558 c 0
 519 558 513 555 506 546 c 2
 328 311 l 2
 318 298 311 289 345 289 c 2
EndSplineSet
AlternateSubs2: "'ssty' Script Style in Mathematical Alphanumeric Symbols lookup 2 subtable" u1D6F0.s u1D6F0.ss
EndChar

StartChar: u1D6E3
Encoding: 120547 120547 160
Width: 623
GlyphClass: 2
Flags: HW
TeX: 655 5
ItalicCorrection: 5
TopAccentHorizontal: 382
HStem: -4 26<-7.54508 62.1661 231.092 324.732> 344 26<294.366 375.174> 625 30<357.233 457.578> 625 20<193.188 238.669 359.422 412.974>
VStem: 453 91<126.009 278.912> 512 88<455.993 586.105>
LayerCount: 2
Fore
SplineSet
15 -5 m 0xe8
 0 -5 -8 -3 -8 6 c 0
 -8 16 5 21 27 25 c 0
 76 35 106 52 121 99 c 2
 259 549 l 2
 274 597 263 613 219 621 c 0
 200 625 193 627 193 637 c 0
 193 646 209 651 225 651 c 0
 262 651 276 645 307 645 c 0xd8
 339 645 384 655 414 655 c 0
 548 655 600 596 600 525 c 0xe4
 600 432 499 377 421 366 c 0
 411 365 413 358 418 356 c 0
 495 327 544 285 544 193 c 0
 544 73 424 -4 268 -4 c 0
 213 -4 179 3 140 3 c 0
 93 3 67 -5 15 -5 c 0xe8
307 370 m 0
 338 370 367 376 398 383 c 1
 461 412 512 459 512 527 c 0
 512 581 469 625 395 625 c 0xe4
 369 625 359 621 355 607 c 2
 293 386 l 2
 290 373 295 370 307 370 c 0
267 22 m 0
 356 23 453 104 453 208 c 0xc8
 453 296 400 344 297 344 c 0
 285 344 276 337 273 324 c 2
 209 107 l 2
 202 84 203 60 218 46 c 0
 231 33 244 22 267 22 c 0
EndSplineSet
AlternateSubs2: "'ssty' Script Style in Mathematical Alphanumeric Symbols lookup 2 subtable" u1D6E3.s u1D6E3.ss
EndChar

StartChar: u1D6E4
Encoding: 120548 120548 161
Width: 632
GlyphClass: 2
Flags: HW
TeX: 663 5
ItalicCorrection: 62
TopAccentHorizontal: 434
HStem: -5 30<8.94524 94.1701 257.747 319.225> 618 32<219.232 284.181 396.178 590.469> 642 20G<649.114 655.214>
VStem: 605 29<503.508 578.475>
LayerCount: 2
Fore
SplineSet
31 -5 m 0xd0
 16 -5 8 -1 8 7 c 0
 8 16 21 21 43 25 c 0
 92 34 133 52 148 99 c 2
 286 549 l 2
 301 596 285 613 241 622 c 0
 222 626 218 633 218 642 c 0
 218 650 232 653 248 653 c 0
 266 653 319 650 361 650 c 2
 546 650 l 2xd0
 603 650 646 662 652 662 c 0xb0
 658 662 667 653 667 647 c 0
 666 631 643 571 634 520 c 0
 633 513 623 503 617 503 c 0
 610 503 605 518 605 525 c 0
 605 548 605 580 597 595 c 0
 590 607 574 618 550 618 c 2
 428 618 l 2
 416 618 391 604 385 583 c 2
 245 98 l 2
 231 52 252 35 296 25 c 0
 315 21 319 16 319 7 c 0
 319 -1 305 -5 290 -5 c 0
 241 -5 214 0 170 0 c 0
 118 0 80 -5 31 -5 c 0xd0
EndSplineSet
AlternateSubs2: "'ssty' Script Style in Mathematical Alphanumeric Symbols lookup 2 subtable" u1D6E4.s u1D6E4.ss
EndChar

StartChar: u1D6E5
Encoding: 120549 120549 162
Width: 693
GlyphClass: 2
Flags: HW
TeX: 676 3
TopAccentHorizontal: 566
HStem: 0 56<135.773 432.311> 562 60<515.188 533.739>
LayerCount: 2
Fore
SplineSet
44 -3 m 0
 32 -4 28 26 32 31 c 2
 484 558 l 2
 511 588 525 622 533 622 c 0
 563 622 581 632 598 649 c 0
 617 669 622 677 630 677 c 0
 637 677 643 669 636 640 c 0
 590 436 549 233 513 29 c 0
 511 15 501 0 481 0 c 2
 172 0 l 2
 127 0 90 1 44 -3 c 0
166 56 m 0
 258 51 319 51 411 56 c 0
 423 57 431 61 432 69 c 0
 460 224 496 385 534 540 c 0
 538 555 538 562 531 562 c 0
 526 562 522 559 513 549 c 2
 155 105 l 2
 145 93 136 81 136 70 c 0
 136 58 149 57 166 56 c 0
EndSplineSet
AlternateSubs2: "'ssty' Script Style in Mathematical Alphanumeric Symbols lookup 2 subtable" u1D6E5.s u1D6E5.ss
EndChar

StartChar: u1D6E6
Encoding: 120550 120550 163
Width: 633
GlyphClass: 2
Flags: HW
TeX: 660 5
ItalicCorrection: 51
TopAccentHorizontal: 449
HStem: 1 27<3.23711 88.4764 223.88 465.33> 321 29<303.667 463.718> 624 29<192.959 266.991 383.435 582.555>
VStem: 474 27<235.014 309.457> 599 58<571.756 613.632>
LayerCount: 2
Fore
SplineSet
22 -5 m 0
 6 -5 -1 -1 -1 7 c 0
 -1 16 12 21 34 25 c 0
 98 36 120 54 134 99 c 2
 272 549 l 2
 289 604 275 616 218 624 c 0
 198 627 193 633 193 642 c 0
 193 650 208 653 225 653 c 0
 241 653 305 650 347 650 c 2
 508 650 l 2
 614 650 639 660 645 660 c 0
 650 660 657 652 657 646 c 0
 657 632 634 588 627 532 c 0
 625 518 616 513 610 513 c 0
 603 513 598 522 599 537 c 0
 602 600 591 621 538 621 c 2
 422 621 l 2
 390 621 379 612 371 585 c 2
 306 380 l 2
 298 357 302 349 322 350 c 2
 442 352 l 2
 476 353 495 370 512 392 c 0
 521 403 533 422 545 422 c 0
 555 422 556 408 549 394 c 0
 537 370 528 351 521 331 c 0
 513 308 507 286 501 257 c 0
 499 247 494 235 487 235 c 0
 476 235 474 254 474 262 c 0
 474 303 460 319 437 319 c 2
 324 321 l 2
 302 321 286 318 278 291 c 2
 227 110 l 2
 209 44 220 28 263 28 c 2
 409 28 l 2
 441 28 468 39 489 54 c 0
 510 69 528 92 546 121 c 0
 551 129 556 139 564 139 c 0
 570 139 571 127 571 118 c 0
 571 100 546 40 530 15 c 0
 522 2 513 -5 498 -5 c 0
 375 -5 241 1 145 1 c 0
 97 1 71 -5 22 -5 c 0
EndSplineSet
AlternateSubs2: "'ssty' Script Style in Mathematical Alphanumeric Symbols lookup 2 subtable" u1D6E6.s u1D6E6.ss
EndChar

StartChar: u1D6E7
Encoding: 120551 120551 164
Width: 641
GlyphClass: 2
Flags: HW
TeX: 653 5
ItalicCorrection: 78
TopAccentHorizontal: 434
HStem: -5 38<146.23 465.474> 617 30<346.342 547.915>
LayerCount: 2
Fore
SplineSet
518 -5 m 0
 430 -5 278 -1 188 -1 c 0
 145 -1 52 -3 -2 -3 c 0
 -9 -3 -5 12 -4 13 c 1
 2 25 47 75 78 106 c 0
 255 288 368 418 548 600 c 0
 553 605 561 616 539 617 c 0
 497 619 375 614 314 608 c 0
 281 604 226 579 189 519 c 0
 179 504 170 492 160 492 c 0
 151 492 148 501 148 511 c 0
 148 515 151 526 156 537 c 0
 169 566 189 606 199 629 c 0
 206 646 214 655 229 655 c 0
 248 655 285 648 322 647 c 0
 369 646 432 647 474 647 c 0
 549 647 610 648 676 650 c 0
 684 650 693 631 689 627 c 2
 610 546 l 2
 431 366 320 257 154 67 c 0
 140 51 142 41 160 39 c 0
 186 36 221 33 262 33 c 0
 306 33 390 37 433 45 c 0
 498 55 554 86 595 151 c 0
 600 159 606 170 616 170 c 0
 626 170 625 160 625 151 c 0
 624 128 565 39 549 12 c 0
 544 3 536 -5 518 -5 c 0
EndSplineSet
AlternateSubs2: "'ssty' Script Style in Mathematical Alphanumeric Symbols lookup 2 subtable" u1D6E7.s u1D6E7.ss
EndChar

StartChar: u1D6E8
Encoding: 120552 120552 165
Width: 820
GlyphClass: 2
Flags: HW
TeX: 653 5
ItalicCorrection: 73
TopAccentHorizontal: 517
HStem: -5 30<-7.03273 66.2743 202.84 264.194 413.9 489.072 616.899 671.987> 307 39<268.128 594.416> 622 32<192.453 247.766 369.481 448.306 610.005 665.869 789.898 863.881>
LayerCount: 2
Fore
SplineSet
14 -5 m 0
 -1 -5 -8 -1 -8 7 c 0
 -8 16 3 19 25 26 c 0
 68 38 87 45 96 75 c 2
 244 551 l 2
 258 597 259 613 215 622 c 0
 196 626 192 633 192 642 c 0
 192 650 206 654 221 654 c 0
 270 654 285 650 322 650 c 0
 360 650 378 654 427 654 c 0
 442 654 450 650 450 642 c 0
 449 633 436 626 414 622 c 0
 364 612 341 590 329 551 c 2
 268 356 l 2
 266 348 272 346 278 346 c 2
 602 346 l 2
 607 346 610 349 613 358 c 2
 673 552 l 2
 684 588 677 612 632 622 c 0
 613 626 609 633 610 642 c 0
 610 650 624 654 639 654 c 0
 688 654 709 650 751 650 c 0
 785 650 794 654 843 654 c 0
 858 654 865 650 865 642 c 0
 865 633 852 626 830 622 c 0
 781 613 770 591 758 552 c 2
 614 83 l 2
 604 50 611 32 649 25 c 0
 668 21 672 16 672 7 c 0
 672 -1 658 -5 643 -5 c 0
 594 -5 581 0 543 0 c 0
 504 0 485 -5 436 -5 c 0
 421 -5 413 -1 413 7 c 0
 413 16 426 21 448 25 c 0
 491 33 520 55 534 97 c 2
 595 292 l 2
 597 300 600 307 594 307 c 2
 262 307 l 2
 257 307 255 303 253 295 c 2
 194 103 l 2
 177 48 199 34 241 25 c 0
 260 21 264 16 264 7 c 0
 264 -1 250 -5 235 -5 c 0
 186 -5 164 0 122 0 c 0
 82 0 63 -5 14 -5 c 0
EndSplineSet
AlternateSubs2: "'ssty' Script Style in Mathematical Alphanumeric Symbols lookup 2 subtable" u1D6E8.s u1D6E8.ss
EndChar

StartChar: u1D6E9
Encoding: 120553 120553 166
Width: 701
GlyphClass: 2
Flags: HW
TeX: 664 14
ItalicCorrection: 5
TopAccentHorizontal: 442
HStem: -14 32<226.59 362.125> 298 76<314.847 452.788> 635 29<383.84 508.17>
VStem: 60 92<121.649 342.665> 453 29<244.871 295.55> 587 92<302.875 528.634>
LayerCount: 2
Fore
SplineSet
287 -14 m 0
 133 -14 60 103 60 243 c 0
 60 438 205 664 453 664 c 0
 607 664 679 547 679 407 c 0
 679 212 535 -14 287 -14 c 0
289 18 m 0
 465 18 587 258 587 448 c 0
 587 541 548 635 450 635 c 0
 281 635 152 392 152 202 c 0
 152 109 191 18 289 18 c 0
460 243 m 0
 453 243 453 259 453 273 c 0
 454 290 444 298 422 298 c 2
 297 298 l 2
 274 298 256 286 244 271 c 0
 235 261 222 245 212 245 c 0
 204 245 206 265 216 278 c 0
 242 314 271 362 289 401 c 0
 296 416 303 418 308 418 c 0
 314 418 316 411 315 399 c 0
 314 385 322 374 337 374 c 2
 466 374 l 2
 486 374 507 383 519 396 c 0
 533 411 542 419 550 419 c 0
 555 419 563 412 556 403 c 0
 525 358 500 315 482 267 c 0
 477 256 472 243 460 243 c 0
EndSplineSet
AlternateSubs2: "'ssty' Script Style in Mathematical Alphanumeric Symbols lookup 2 subtable" u1D6E9.s u1D6E9.ss
EndChar

StartChar: u1D6EA
Encoding: 120554 120554 167
Width: 417
GlyphClass: 2
Flags: HW
TeX: 653 5
ItalicCorrection: 79
TopAccentHorizontal: 335
HStem: -5 30<-7.05476 74.9678 218.29 281.39> 622 32<196.008 255.756 384.494 466.817>
LayerCount: 2
Fore
SplineSet
15 -5 m 0
 0 -5 -8 -1 -8 7 c 0
 -8 16 5 21 27 25 c 0
 77 34 108 52 122 98 c 2
 260 550 l 2
 274 596 263 612 218 622 c 0
 199 626 195 633 196 642 c 0
 196 650 210 654 225 654 c 0
 274 654 294 650 337 650 c 0
 377 650 396 654 445 654 c 0
 460 654 468 650 468 642 c 0
 468 633 454 626 432 622 c 0
 382 612 358 596 344 550 c 2
 208 103 l 2
 193 52 212 35 256 26 c 0
 277 22 282 16 282 7 c 0
 282 -1 268 -5 253 -5 c 0
 204 -5 181 0 138 0 c 0
 93 0 64 -5 15 -5 c 0
EndSplineSet
AlternateSubs2: "'ssty' Script Style in Mathematical Alphanumeric Symbols lookup 2 subtable" u1D6EA.s u1D6EA.ss
EndChar

StartChar: u1D6EB
Encoding: 120555 120555 168
Width: 774
GlyphClass: 2
Flags: HW
TeX: 655 5
ItalicCorrection: 83
TopAccentHorizontal: 487
HStem: -5 30<7.97225 87.393 226.104 284.739 401.426 461.017 619.733 688.653> 323 25<296.554 312.264> 622 32<201.59 262.133 379.739 458.949 565.56 609.883 724.997 826.609>
LayerCount: 2
Fore
SplineSet
31 -5 m 0
 15 -5 7 -1 7 7 c 0
 8 16 21 21 43 25 c 0
 93 34 113 52 128 101 c 2
 266 551 l 2
 280 597 270 613 225 622 c 0
 206 626 201 632 201 641 c 0
 201 649 216 654 232 654 c 0
 280 654 299 651 339 651 c 0
 375 651 388 654 437 654 c 0
 452 654 460 650 460 642 c 0
 460 632 446 626 424 622 c 0
 374 612 367 603 351 551 c 2
 295 361 l 2
 292 351 295 348 306 348 c 0
 327 348 348 363 376 387 c 2
 580 565 l 2
 597 580 610 591 610 602 c 0
 611 607 605 614 589 619 c 0
 574 624 565 630 565 639 c 0
 565 647 584 651 600 651 c 2
 653 651 l 2
 708 651 770 655 811 655 c 0
 823 655 829 650 829 643 c 0
 829 634 814 627 792 623 c 0
 740 614 685 597 631 558 c 0
 548 497 484 440 396 360 c 0
 390 354 390 347 394 340 c 0
 470 199 527 119 573 73 c 0
 604 43 630 35 663 26 c 0
 683 20 689 17 689 7 c 0
 689 -1 675 -5 658 -5 c 0
 602 -5 586 0 499 0 c 0
 473 0 466 -1 424 -1 c 0
 409 -1 401 2 401 10 c 0
 401 20 413 24 432 28 c 0
 470 37 470 44 452 75 c 2
 318 303 l 2
 310 317 290 323 285 323 c 0
 280 323 277 311 275 303 c 2
 220 109 l 2
 204 54 216 35 260 25 c 0
 279 21 285 16 285 7 c 0
 285 -2 270 -5 254 -5 c 0
 202 -5 191 2 153 2 c 0
 108 2 83 -5 31 -5 c 0
EndSplineSet
AlternateSubs2: "'ssty' Script Style in Mathematical Alphanumeric Symbols lookup 2 subtable" u1D6EB.s u1D6EB.ss
EndChar

StartChar: u1D6EC
Encoding: 120556 120556 169
Width: 682
GlyphClass: 2
Flags: HW
TeX: 676 5
TopAccentHorizontal: 551
HStem: -5 36<-50.3323 31.7299 151.485 205.488 310.977 396.798 528.02 590.927>
LayerCount: 2
Fore
SplineSet
-27 -5 m 0
 -43 -5 -50 -1 -51 8 c 0
 -52 18 -39 25 -18 31 c 0
 17 41 77 64 112 107 c 2
 479 560 l 2
 505 591 521 622 530 622 c 0
 560 622 570 632 587 649 c 0
 606 669 611 677 619 677 c 0
 626 677 630 669 625 640 c 2
 523 125 l 2
 511 65 524 37 562 29 c 0
 582 25 591 18 591 9 c 0
 591 1 582 -5 561 -5 c 0
 533 -5 476 1 434 1 c 0
 398 1 358 0 334 -0 c 0
 319 0 313 4 311 12 c 0
 309 21 327 27 344 31 c 0
 409 46 419 56 431 110 c 2
 523 534 l 2
 527 549 527 557 520 557 c 0
 515 557 511 553 502 543 c 2
 171 106 l 2
 131 58 152 36 179 30 c 0
 197 26 206 22 206 12 c 0
 206 3 192 -1 176 -1 c 0
 156 -1 122 1 87 1 c 0
 46 1 5 -5 -27 -5 c 0
EndSplineSet
AlternateSubs2: "'ssty' Script Style in Mathematical Alphanumeric Symbols lookup 2 subtable" u1D6EC.s u1D6EC.ss
EndChar

StartChar: u1D6ED
Encoding: 120557 120557 170
Width: 1041
GlyphClass: 2
Flags: HW
TeX: 658 14
ItalicCorrection: 68
TopAccentHorizontal: 646
HStem: -14 21G<412.115 417.015> -3 30<-14.5561 66.9729 183.996 235.141 635.595 702.643 869.446 924.672> 625 33<241.662 334.74 992.067 1081.09>
VStem: 399 80<281.263 512.914> 405 83<159.673 496.98>
LayerCount: 2
Fore
SplineSet
415 -14 m 0xa8
 410 -14 405 -4 405 11 c 0xa8
 409 176 406 340 399 505 c 0
 398 532 385 530 371 502 c 0
 311 384 257 266 207 148 c 0
 168 55 176 33 206 27 c 0
 225 24 235 18 235 9 c 0
 235 1 217 -3 202 -3 c 0
 151 -3 140 0 95 0 c 0
 60 0 49 -6 5 -6 c 0
 -11 -6 -18 -3 -18 5 c 0
 -18 14 -5 20 17 24 c 0
 73 35 103 57 149 146 c 2
 344 528 l 2
 372 581 363 613 279 625 c 0
 252 629 242 632 242 642 c 0
 242 653 258 658 283 658 c 0
 318 658 405 653 449 653 c 0
 477 653 481 632 479 581 c 2x70
 488 170 l 2
 489 142 501 150 517 167 c 0
 638 302 750 439 863 575 c 1
 878 603 884 618 895 636 c 0
 901 646 907 650 916 650 c 2
 955 650 l 2
 975 650 1029 658 1049 658 c 0
 1065 658 1081 652 1081 643 c 0
 1081 632 1071 624 1039 620 c 0
 980 611 968 603 948 534 c 0
 912 410 883 277 858 148 c 0
 842 65 857 35 900 27 c 0
 919 24 925 18 925 9 c 0
 925 3 910 -3 895 -3 c 0x68
 846 -3 815 7 770 7 c 0
 725 7 706 -3 657 -3 c 0
 642 -3 635 1 635 9 c 0
 635 17 648 24 669 29 c 0
 713 39 731 59 746 103 c 0
 793 251 823 360 856 494 c 0
 858 501 850 502 844 495 c 2
 555 159 l 1
 440 9 l 2
 428 -6 419 -14 415 -14 c 0xa8
EndSplineSet
AlternateSubs2: "'ssty' Script Style in Mathematical Alphanumeric Symbols lookup 2 subtable" u1D6ED.s u1D6ED.ss
EndChar

StartChar: u1D6EE
Encoding: 120558 120558 171
Width: 820
GlyphClass: 2
Flags: HW
TeX: 658 5
ItalicCorrection: 88
TopAccentHorizontal: 474
HStem: -5 30<-19.4074 51.3358 169.621 239.063> 620 31<602.112 680.34 791.949 878.097> 624 34<145.408 238.47>
LayerCount: 2
Fore
SplineSet
3 -5 m 0xc0
 -12 -5 -20 -1 -20 7 c 0
 -20 16 -13 20 9 25 c 0
 70 39 89 63 100 97 c 2
 241 524 l 2
 261 586 259 619 183 624 c 0
 161 626 145 633 145 644 c 0
 145 656 163 658 171 658 c 0xa0
 224 658 270 653 307 653 c 0
 319 653 330 645 335 635 c 2
 559 159 l 2
 562 153 571 141 578 141 c 0
 583 141 585 146 591 160 c 0
 607 201 696 496 705 538 c 0
 717 590 692 610 627 620 c 0
 608 623 602 630 602 639 c 0
 602 647 619 651 634 651 c 0
 672 651 705 647 742 647 c 0
 781 647 802 653 858 653 c 0
 874 653 880 649 880 641 c 0
 880 632 866 624 844 622 c 0
 793 617 782 606 759 550 c 0
 747 520 630 172 614 118 c 0
 607 95 610 83 618 66 c 0
 626 48 639 41 650 33 c 0
 661 25 669 19 669 7 c 0
 669 0 664 0 659 0 c 0
 620 0 597 -5 578 -5 c 0
 555 -5 544 1 533 24 c 0
 466 166 380 383 311 512 c 0
 304 526 295 534 288 534 c 0
 281 534 272 522 266 502 c 0
 238 404 183 237 150 98 c 0
 141 59 160 35 211 24 c 0
 230 20 240 16 239 7 c 0
 239 -1 225 -5 210 -5 c 0
 159 -5 145 0 111 0 c 0
 69 0 47 -5 3 -5 c 0xc0
EndSplineSet
AlternateSubs2: "'ssty' Script Style in Mathematical Alphanumeric Symbols lookup 2 subtable" u1D6EE.s u1D6EE.ss
EndChar

StartChar: u1D6EF
Encoding: 120559 120559 172
Width: 708
GlyphClass: 2
Flags: HW
TeX: 675 8
ItalicCorrection: 51
TopAccentHorizontal: 467
HStem: -8 21G<5.01514 93.6152> 0 72<101.579 498.338> 303 73<272.684 468.969> 581 70<293.824 634.509> 654 20G<721.615 729.015>
VStem: 79 26<109.802 151.961> 245 27<379.614 422.532> 469 28<243.795 300.138> 635 31<521.991 576.793>
LayerCount: 2
Fore
SplineSet
643 519 m 0x3f80
 634 519 634 532 635 543 c 0
 639 568 626 581 597 581 c 2
 323 581 l 2
 273 581 255 572 224 545 c 0
 214 537 195 520 185 520 c 0
 176 520 178 531 189 545 c 0
 218 585 238 614 262 657 c 0
 269 670 280 676 286 676 c 0
 292 676 295 669 299 664 c 0
 307 653 336 651 362 651 c 2
 630 651 l 2
 658 651 688 656 702 664 c 0
 711 669 718 674 726 674 c 0
 732 674 733 664 727 654 c 0
 701 617 682 584 666 546 c 0
 661 534 652 519 643 519 c 0x3f80
182 243 m 0
 173 243 178 261 186 274 c 0
 199 298 238 384 245 402 c 0
 253 421 260 425 265 425 c 0
 270 425 274 418 272 406 c 0
 269 391 284 376 298 376 c 2
 485 376 l 2
 498 376 518 389 529 401 c 0
 540 411 545 418 553 418 c 0
 558 418 561 412 556 402 c 0
 536 362 508 303 497 267 c 0
 494 256 487 243 479 243 c 0
 473 243 469 254 469 265 c 0
 471 287 467 303 440 303 c 2
 270 303 l 2
 238 303 228 290 209 266 c 0
 204 259 189 243 182 243 c 0
10 -8 m 2xbf80
 1 -8 -5 4 2 12 c 0
 11 26 22 39 33 54 c 0
 48 77 64 104 79 133 c 0
 87 148 94 156 100 156 c 0
 107 156 106 145 105 137 c 0
 95 85 99 72 143 72 c 2
 441 72 l 2x7f80
 490 72 527 92 554 127 c 0
 560 135 577 156 589 156 c 0
 599 156 592 141 590 134 c 0
 587 126 536 55 519 13 c 0xbf80
 515 4 508 -8 498 -8 c 1
 497 -8 480 0 399 0 c 2
 94 0 l 2x7f80
 46 0 10 -8 10 -8 c 2xbf80
EndSplineSet
AlternateSubs2: "'ssty' Script Style in Mathematical Alphanumeric Symbols lookup 2 subtable" u1D6EF.s u1D6EF.ss
EndChar

StartChar: u1D6F0
Encoding: 120560 120560 173
Width: 701
GlyphClass: 2
Flags: HW
TeX: 664 14
ItalicCorrection: 5
TopAccentHorizontal: 442
HStem: -14 32<226.59 362.125> 635 29<383.84 508.17>
VStem: 60 92<121.649 342.665> 587 92<302.875 528.634>
LayerCount: 2
Fore
SplineSet
287 -14 m 0
 133 -14 60 103 60 243 c 0
 60 438 205 664 453 664 c 0
 607 664 679 547 679 407 c 0
 679 212 535 -14 287 -14 c 0
289 18 m 0
 465 18 587 258 587 448 c 0
 587 541 548 635 450 635 c 0
 281 635 152 392 152 202 c 0
 152 109 191 18 289 18 c 0
EndSplineSet
AlternateSubs2: "'ssty' Script Style in Mathematical Alphanumeric Symbols lookup 2 subtable" u1D6F0.s u1D6F0.ss
EndChar

StartChar: u1D6F1
Encoding: 120561 120561 174
Width: 856
GlyphClass: 2
Flags: HW
TeX: 653 5
ItalicCorrection: 73
TopAccentHorizontal: 533
HStem: -5 30<-7.05476 74.4618 218.095 279.429 433.501 507.154 651.118 713.185> 620 30<196.539 255.291 374.107 702.418 818.387 898.195>
LayerCount: 2
Fore
SplineSet
15 -5 m 0
 0 -5 -8 -1 -8 7 c 0
 -8 16 5 21 27 25 c 0
 76 34 107 52 121 98 c 2
 259 550 l 2
 273 596 262 613 218 622 c 0
 199 626 195 633 196 642 c 0
 196 650 210 653 225 653 c 0
 274 653 295 650 337 650 c 2
 550 650 l 2
 625 650 695 650 772 650 c 0
 812 650 829 653 878 653 c 0
 893 653 901 650 901 642 c 0
 901 633 887 626 865 622 c 0
 816 613 792 596 778 550 c 2
 640 98 l 2
 626 52 646 34 690 25 c 0
 709 21 713 16 713 7 c 0
 713 -1 699 -5 684 -5 c 0
 635 -5 614 0 572 0 c 0
 526 0 497 -5 448 -5 c 0
 433 -5 433 -1 433 7 c 0
 433 16 439 21 461 25 c 0
 511 35 541 52 555 98 c 2
 699 565 l 2
 712 608 703 620 662 620 c 1
 654 620 549 620 541 620 c 1
 501 620 470 620 430 620 c 0
 384 620 363 608 350 565 c 2
 206 98 l 2
 192 52 212 35 256 25 c 0
 275 21 280 16 280 7 c 0
 280 -1 266 -5 251 -5 c 0
 202 -5 180 0 138 0 c 0
 92 0 64 -5 15 -5 c 0
EndSplineSet
AlternateSubs2: "'ssty' Script Style in Mathematical Alphanumeric Symbols lookup 2 subtable" u1D6F1.s u1D6F1.ss
EndChar

StartChar: u1D6F2
Encoding: 120562 120562 175
Width: 636
GlyphClass: 2
Flags: HW
TeX: 656 5
ItalicCorrection: 22
TopAccentHorizontal: 399
HStem: -5 30<0.855633 82.1508 224.286 287.826> 251 27<311.632 399.721> 626 27<177.862 250.727 369.618 463.395>
VStem: 538 92<387.284 560.963>
LayerCount: 2
Fore
SplineSet
23 -5 m 0
 8 -5 0 -1 0 7 c 0
 0 16 13 21 35 25 c 0
 85 34 112 52 127 100 c 2
 261 539 l 2
 278 596 265 619 202 626 c 0
 183 628 178 633 178 642 c 0
 178 650 193 653 209 653 c 0
 223 653 274 652 304 652 c 0
 326 652 389 656 418 656 c 0
 546 656 630 585 630 471 c 0
 629 341 498 251 354 251 c 0
 339 251 312 253 312 265 c 0
 312 273 323 277 335 278 c 0
 353 280 370 284 388 288 c 0
 474 310 538 377 538 479 c 0
 538 566 486 628 392 628 c 0
 375 628 370 618 359 582 c 2
 214 110 l 2
 197 58 212 36 264 25 c 0
 283 21 288 16 288 7 c 0
 288 -1 274 -5 258 -5 c 0
 209 -5 185 2 149 2 c 0
 102 2 72 -5 23 -5 c 0
EndSplineSet
AlternateSubs2: "'ssty' Script Style in Mathematical Alphanumeric Symbols lookup 2 subtable" u1D6F2.s u1D6F2.ss
EndChar

StartChar: u1D6F3
Encoding: 120563 120563 176
Width: 701
GlyphClass: 2
Flags: HW
TeX: 664 14
ItalicCorrection: 5
TopAccentHorizontal: 442
HStem: -14 32<226.59 363.293> 315 42<177 569.8> 635 29<384.351 508.17>
VStem: 60 92<121.649 310.414> 587 92<359.631 528.634>
LayerCount: 2
Fore
SplineSet
453 664 m 0
 607 664 679 547 679 407 c 0
 679 212 535 -14 287 -14 c 0
 133 -14 60 103 60 243 c 0
 60 438 205 664 453 664 c 0
450 635 m 0
 325 635 222 503 177 357 c 1
 579 357 l 1
 585 388 587 419 587 448 c 0
 587 541 548 635 450 635 c 0
289 18 m 0
 426 18 530 162 570 315 c 1
 166 315 l 1
 157 277 152 238 152 202 c 0
 152 109 191 18 289 18 c 0
EndSplineSet
AlternateSubs2: "'ssty' Script Style in Mathematical Alphanumeric Symbols lookup 2 subtable" u1D6F3.s u1D6F3.ss
EndChar

StartChar: u1D6F4
Encoding: 120564 120564 177
Width: 666
GlyphClass: 2
Flags: HW
TeX: 669 6
ItalicCorrection: 51
TopAccentHorizontal: 455
HStem: 0 77<170.292 494.029> 615 31<305.615 520.808> 650 20G<675.809 681.809>
VStem: 639 31<500.925 581.565>
LayerCount: 2
Fore
SplineSet
17 -6 m 0
 7 -6 -3 -1 -1 5 c 0
 1 11 15 27 46 53 c 0
 126 120 299 263 374 327 c 0
 379 332 380 335 378 340 c 0
 343 408 261 516 239 554 c 0
 221 585 205 606 193 630 c 1
 191 637 204 649 211 649 c 0
 280 647 353 646 436 646 c 0
 481 646 529 646 580 647 c 0
 608 647 641 649 650 655 c 0
 662 663 673 670 679 670 c 0
 685 670 692 667 689 652 c 0
 682 609 674 561 670 536 c 0
 668 521 664 500 651 500 c 0
 638 500 640 519 639 531 c 0
 638 556 632 574 621 586 c 0
 610 598 596 603 579 604 c 0
 524 608 387 615 324 615 c 0
 302 615 302 606 306 597 c 0
 323 558 436 402 458 368 c 0
 464 358 457 350 450 344 c 2
 160 101 l 2
 151 93 152 85 162 84 c 0
 202 78 272 77 414 77 c 0
 460 78 491 85 532 135 c 0
 546 152 559 168 572 168 c 0
 580 168 580 161 576 153 c 0
 544 100 505 38 493 12 c 0
 489 3 483 -5 474 -5 c 0
 446 -5 427 0 401 0 c 0
 340 1 157 1 122 0 c 0
 75 -1 60 -6 17 -6 c 0
EndSplineSet
AlternateSubs2: "'ssty' Script Style in Mathematical Alphanumeric Symbols lookup 2 subtable" u1D6F4.s u1D6F4.ss
EndChar

StartChar: u1D6F5
Encoding: 120565 120565 178
Width: 672
GlyphClass: 2
Flags: HW
TeX: 666 5
ItalicCorrection: 105
TopAccentHorizontal: 376
HStem: -5 28<64.0741 142.686 294.269 353.523> 614 29<172.088 330.608 429.091 596.633> 650 20G<131.011 137.111 682.61 689.811>
VStem: 59 57<525.013 567.456> 620 27<496.428 565.099>
LayerCount: 2
Fore
SplineSet
87 -5 m 0
 72 -5 63 -1 63 7 c 0
 64 16 78 19 100 23 c 0
 150 32 181 54 195 101 c 2
 318 529 l 2
 338 598 333 614 315 614 c 2
 237 614 l 2
 174 614 141 583 116 553 c 0
 98 533 82 503 70 503 c 0
 61 503 59 506 59 517 c 0
 59 520 62 531 70 547 c 0
 86 577 105 613 116 649 c 0
 119 659 128 670 134 670 c 0
 140 670 148 662 155 656 c 0
 163 649 171 643 234 643 c 2
 580 643 l 2
 644 643 656 650 664 656 c 0
 673 662 680 670 686 670 c 0
 694 670 696 665 695 658 c 0
 695 650 690 638 686 631 c 0
 677 614 658 566 647 513 c 0
 644 501 641 496 635 496 c 0
 626 496 620 505 620 521 c 0
 620 581 603 614 552 614 c 2
 459 614 l 2
 432 614 423 603 402 527 c 2
 280 102 l 2
 266 55 286 33 330 23 c 0
 349 19 354 16 354 7 c 0
 354 -1 339 -5 324 -5 c 0
 275 -5 254 0 212 0 c 0
 166 0 136 -5 87 -5 c 0
EndSplineSet
AlternateSubs2: "'ssty' Script Style in Mathematical Alphanumeric Symbols lookup 2 subtable" u1D6F5.s u1D6F5.ss
EndChar

StartChar: u1D6F6
Encoding: 120566 120566 179
Width: 639
GlyphClass: 2
Flags: HW
TeX: 664 5
ItalicCorrection: 105
TopAccentHorizontal: 406
HStem: -5 30<80.0607 157.429 309.661 366.499> 610 54<160.344 254.565> 618 46<558.698 705.716>
VStem: 67 296<474 565.8>
LayerCount: 2
Fore
SplineSet
101 -5 m 0xb0
 86 -5 76 -1 78 7 c 0
 81 16 92 21 114 25 c 0
 164 34 197 60 211 107 c 2
 269 299 l 2
 312 442 308 610 202 610 c 0
 157 610 108 585 77 562 c 0
 72 559 67 561 67 566 c 0
 67 594 167 664 245 664 c 0xd0
 354 664 366 561 363 474 c 0
 363 471 365 471 367 474 c 0
 454 613 559 664 634 664 c 0
 686 664 728 637 740 596 c 0
 744 583 734 579 728 585 c 0
 701 611 667 618 638 618 c 0
 559 618 479 551 426 471 c 0
 395 425 366 343 354 302 c 2
 295 107 l 2
 282 63 299 35 343 25 c 0
 362 21 370 16 367 7 c 0
 365 -1 353 -5 338 -5 c 0
 289 -5 267 0 225 0 c 0
 180 0 150 -5 101 -5 c 0xb0
EndSplineSet
AlternateSubs2: "'ssty' Script Style in Mathematical Alphanumeric Symbols lookup 2 subtable" u1D6F6.s u1D6F6.ss
EndChar

